<svg width="37" height="30" viewBox="0 0 37 30" fill="none" xmlns="http://www.w3.org/2000/svg">
<path d="M31.328 0.839996L36.576 4.936C34.9547 6.04533 33.4613 7.15466 32.096 8.26399C30.816 9.37333 29.7067 10.4827 28.768 11.592C27.9147 12.7013 27.1893 13.896 26.592 15.176C25.9947 16.456 25.6107 17.9067 25.44 19.528L23.776 19.4C24.4587 18.12 25.2693 17.3093 26.208 16.968C27.1467 16.5413 28.2987 16.328 29.664 16.328C31.5413 16.328 33.12 16.9253 34.4 18.12C35.7653 19.3147 36.448 20.9787 36.448 23.112C36.448 25.0747 35.7653 26.696 34.4 27.976C33.12 29.256 31.3707 29.896 29.152 29.896C26.9333 29.896 25.056 29.1707 23.52 27.72C22.0693 26.2693 21.344 24.008 21.344 20.936C21.344 18.8027 21.6 16.7973 22.112 14.92C22.7093 12.9573 23.4773 11.1653 24.416 9.544C25.3547 7.83733 26.4213 6.25866 27.616 4.808C28.8107 3.35733 30.048 2.03466 31.328 0.839996ZM10.336 0.839996L15.584 4.936C13.9627 6.04533 12.4693 7.15466 11.104 8.26399C9.824 9.37333 8.71467 10.4827 7.776 11.592C6.92267 12.7013 6.19733 13.896 5.6 15.176C5.00267 16.456 4.61867 17.9067 4.448 19.528L2.784 19.4C3.46667 18.12 4.27733 17.3093 5.216 16.968C6.15467 16.5413 7.30667 16.328 8.672 16.328C10.5493 16.328 12.1707 16.9253 13.536 18.12C14.9013 19.3147 15.584 20.9787 15.584 23.112C15.584 25.0747 14.9013 26.696 13.536 27.976C12.1707 29.256 10.3787 29.896 8.16 29.896C5.94133 29.896 4.064 29.1707 2.528 27.72C1.07733 26.2693 0.352 24.008 0.352 20.936C0.352 18.8027 0.608 16.7973 1.12 14.92C1.71733 12.9573 2.48533 11.1653 3.424 9.544C4.36267 7.83733 5.42933 6.25866 6.624 4.808C7.81867 3.35733 9.056 2.03466 10.336 0.839996Z" fill="#A26DFF"/>
</svg>
