<svg width="31" height="31" viewBox="0 0 31 31" fill="none" xmlns="http://www.w3.org/2000/svg">
<path d="M24.2097 23.2742C24.2968 23.3613 24.3659 23.4647 24.413 23.5785C24.4602 23.6923 24.4844 23.8143 24.4844 23.9375C24.4844 24.0607 24.4602 24.1827 24.413 24.2965C24.3659 24.4103 24.2968 24.5137 24.2097 24.6008C24.1226 24.6879 24.0192 24.757 23.9054 24.8041C23.7916 24.8513 23.6696 24.8755 23.5464 24.8755C23.4232 24.8755 23.3013 24.8513 23.1875 24.8041C23.0737 24.757 22.9702 24.6879 22.8831 24.6008L15.1089 16.8254L7.3347 24.6008C7.15879 24.7767 6.9202 24.8755 6.67142 24.8755C6.42264 24.8755 6.18405 24.7767 6.00814 24.6008C5.83223 24.4249 5.7334 24.1863 5.7334 23.9375C5.7334 23.6887 5.83223 23.4501 6.00814 23.2742L13.7835 15.5L6.00814 7.72578C5.83223 7.54987 5.7334 7.31128 5.7334 7.0625C5.7334 6.81372 5.83223 6.57513 6.00814 6.39922C6.18405 6.22331 6.42264 6.12448 6.67142 6.12448C6.9202 6.12448 7.15879 6.22331 7.3347 6.39922L15.1089 14.1746L22.8831 6.39922C23.0591 6.22331 23.2976 6.12448 23.5464 6.12448C23.7952 6.12448 24.0338 6.22331 24.2097 6.39922C24.3856 6.57513 24.4844 6.81372 24.4844 7.0625C24.4844 7.31128 24.3856 7.54987 24.2097 7.72578L16.4343 15.5L24.2097 23.2742Z" fill="#A26DFF"/>
</svg>
