<svg width="979" height="391" viewBox="0 0 979 391" fill="none" xmlns="http://www.w3.org/2000/svg">
<g opacity="0.6" clip-path="url(#clip0_51_6258)">
<rect x="-9.99997" y="-28.3394" width="49.3304" height="49.3304" stroke="white" stroke-opacity="0.06" stroke-width="0.986607"/>
<rect x="39.3305" y="-28.3394" width="49.3304" height="49.3304" stroke="white" stroke-opacity="0.06" stroke-width="0.986607"/>
<rect x="88.6607" y="-28.3394" width="49.3304" height="49.3304" stroke="white" stroke-opacity="0.06" stroke-width="0.986607"/>
<rect x="137.991" y="-28.3394" width="49.3304" height="49.3304" stroke="white" stroke-opacity="0.06" stroke-width="0.986607"/>
<rect x="187.322" y="-28.3394" width="49.3304" height="49.3304" stroke="white" stroke-opacity="0.06" stroke-width="0.986607"/>
<rect x="236.652" y="-28.3394" width="49.3304" height="49.3304" stroke="white" stroke-opacity="0.06" stroke-width="0.986607"/>
<rect x="285.982" y="-28.3394" width="49.3304" height="49.3304" stroke="white" stroke-opacity="0.06" stroke-width="0.986607"/>
<rect x="335.313" y="-28.3394" width="49.3304" height="49.3304" stroke="white" stroke-opacity="0.06" stroke-width="0.986607"/>
<rect x="384.643" y="-28.3394" width="49.3304" height="49.3304" stroke="white" stroke-opacity="0.06" stroke-width="0.986607"/>
<rect x="433.973" y="-28.3394" width="49.3304" height="49.3304" stroke="white" stroke-opacity="0.06" stroke-width="0.986607"/>
<rect x="483.304" y="-28.3394" width="49.3304" height="49.3304" stroke="white" stroke-opacity="0.06" stroke-width="0.986607"/>
<rect x="532.634" y="-28.3394" width="49.3304" height="49.3304" stroke="white" stroke-opacity="0.06" stroke-width="0.986607"/>
<rect x="581.964" y="-28.3394" width="49.3304" height="49.3304" stroke="white" stroke-opacity="0.06" stroke-width="0.986607"/>
<rect x="631.295" y="-28.3394" width="49.3304" height="49.3304" stroke="white" stroke-opacity="0.06" stroke-width="0.986607"/>
<rect x="680.625" y="-28.3394" width="49.3304" height="49.3304" stroke="white" stroke-opacity="0.06" stroke-width="0.986607"/>
<rect x="729.955" y="-28.3394" width="49.3304" height="49.3304" stroke="white" stroke-opacity="0.06" stroke-width="0.986607"/>
<rect x="779.286" y="-28.3394" width="49.3304" height="49.3304" fill="white" fill-opacity="0.05" stroke="white" stroke-opacity="0.06" stroke-width="0.986607"/>
<rect x="828.616" y="-28.3394" width="49.3304" height="49.3304" stroke="white" stroke-opacity="0.06" stroke-width="0.986607"/>
<rect x="877.947" y="-28.3394" width="49.3304" height="49.3304" stroke="white" stroke-opacity="0.06" stroke-width="0.986607"/>
<rect x="927.277" y="-28.3394" width="49.3304" height="49.3304" stroke="white" stroke-opacity="0.06" stroke-width="0.986607"/>
<rect x="976.607" y="-28.3394" width="49.3304" height="49.3304" stroke="white" stroke-opacity="0.06" stroke-width="0.986607"/>
<rect x="-9.99997" y="20.991" width="49.3304" height="49.3304" stroke="white" stroke-opacity="0.06" stroke-width="0.986607"/>
<rect x="39.3305" y="20.991" width="49.3304" height="49.3304" stroke="white" stroke-opacity="0.06" stroke-width="0.986607"/>
<rect x="88.6607" y="20.991" width="49.3304" height="49.3304" stroke="white" stroke-opacity="0.06" stroke-width="0.986607"/>
<rect x="137.991" y="20.991" width="49.3304" height="49.3304" stroke="white" stroke-opacity="0.06" stroke-width="0.986607"/>
<rect x="187.322" y="20.991" width="49.3304" height="49.3304" stroke="white" stroke-opacity="0.06" stroke-width="0.986607"/>
<rect x="236.652" y="20.991" width="49.3304" height="49.3304" stroke="white" stroke-opacity="0.06" stroke-width="0.986607"/>
<rect x="285.982" y="20.991" width="49.3304" height="49.3304" stroke="white" stroke-opacity="0.06" stroke-width="0.986607"/>
<rect x="335.313" y="20.991" width="49.3304" height="49.3304" stroke="white" stroke-opacity="0.06" stroke-width="0.986607"/>
<rect x="384.643" y="20.991" width="49.3304" height="49.3304" stroke="white" stroke-opacity="0.06" stroke-width="0.986607"/>
<rect x="433.973" y="20.991" width="49.3304" height="49.3304" stroke="white" stroke-opacity="0.06" stroke-width="0.986607"/>
<rect x="483.304" y="20.991" width="49.3304" height="49.3304" stroke="white" stroke-opacity="0.06" stroke-width="0.986607"/>
<rect x="532.634" y="20.991" width="49.3304" height="49.3304" stroke="white" stroke-opacity="0.06" stroke-width="0.986607"/>
<rect x="581.964" y="20.991" width="49.3304" height="49.3304" stroke="white" stroke-opacity="0.06" stroke-width="0.986607"/>
<rect x="631.295" y="20.991" width="49.3304" height="49.3304" stroke="white" stroke-opacity="0.06" stroke-width="0.986607"/>
<rect x="680.625" y="20.991" width="49.3304" height="49.3304" stroke="white" stroke-opacity="0.06" stroke-width="0.986607"/>
<rect x="729.955" y="20.991" width="49.3304" height="49.3304" stroke="white" stroke-opacity="0.06" stroke-width="0.986607"/>
<rect x="779.286" y="20.991" width="49.3304" height="49.3304" stroke="white" stroke-opacity="0.06" stroke-width="0.986607"/>
<rect x="828.616" y="20.991" width="49.3304" height="49.3304" stroke="white" stroke-opacity="0.06" stroke-width="0.986607"/>
<rect x="877.947" y="20.991" width="49.3304" height="49.3304" stroke="white" stroke-opacity="0.06" stroke-width="0.986607"/>
<rect x="927.277" y="20.991" width="49.3304" height="49.3304" stroke="white" stroke-opacity="0.06" stroke-width="0.986607"/>
<rect x="976.607" y="20.991" width="49.3304" height="49.3304" stroke="white" stroke-opacity="0.06" stroke-width="0.986607"/>
<rect x="-9.99997" y="70.3213" width="49.3304" height="49.3304" stroke="white" stroke-opacity="0.06" stroke-width="0.986607"/>
<rect x="39.3305" y="70.3213" width="49.3304" height="49.3304" stroke="white" stroke-opacity="0.06" stroke-width="0.986607"/>
<rect x="88.6607" y="70.3213" width="49.3304" height="49.3304" stroke="white" stroke-opacity="0.06" stroke-width="0.986607"/>
<rect x="137.991" y="70.3213" width="49.3304" height="49.3304" fill="white" fill-opacity="0.05" stroke="white" stroke-opacity="0.06" stroke-width="0.986607"/>
<rect x="187.322" y="70.3213" width="49.3304" height="49.3304" stroke="white" stroke-opacity="0.06" stroke-width="0.986607"/>
<rect x="236.652" y="70.3213" width="49.3304" height="49.3304" stroke="white" stroke-opacity="0.06" stroke-width="0.986607"/>
<rect x="285.982" y="70.3213" width="49.3304" height="49.3304" stroke="white" stroke-opacity="0.06" stroke-width="0.986607"/>
<rect x="335.313" y="70.3213" width="49.3304" height="49.3304" stroke="white" stroke-opacity="0.06" stroke-width="0.986607"/>
<rect x="384.643" y="70.3213" width="49.3304" height="49.3304" stroke="white" stroke-opacity="0.06" stroke-width="0.986607"/>
<rect x="433.973" y="70.3213" width="49.3304" height="49.3304" stroke="white" stroke-opacity="0.06" stroke-width="0.986607"/>
<rect x="483.304" y="70.3213" width="49.3304" height="49.3304" stroke="white" stroke-opacity="0.06" stroke-width="0.986607"/>
<rect x="532.634" y="70.3213" width="49.3304" height="49.3304" stroke="white" stroke-opacity="0.06" stroke-width="0.986607"/>
<rect x="581.964" y="70.3213" width="49.3304" height="49.3304" fill="white" fill-opacity="0.05" stroke="white" stroke-opacity="0.06" stroke-width="0.986607"/>
<rect x="631.295" y="70.3213" width="49.3304" height="49.3304" stroke="white" stroke-opacity="0.06" stroke-width="0.986607"/>
<rect x="680.625" y="70.3213" width="49.3304" height="49.3304" stroke="white" stroke-opacity="0.06" stroke-width="0.986607"/>
<rect x="729.955" y="70.3213" width="49.3304" height="49.3304" stroke="white" stroke-opacity="0.06" stroke-width="0.986607"/>
<rect x="779.286" y="70.3213" width="49.3304" height="49.3304" stroke="white" stroke-opacity="0.06" stroke-width="0.986607"/>
<rect x="828.616" y="70.3213" width="49.3304" height="49.3304" stroke="white" stroke-opacity="0.06" stroke-width="0.986607"/>
<rect x="877.947" y="70.3213" width="49.3304" height="49.3304" stroke="white" stroke-opacity="0.06" stroke-width="0.986607"/>
<rect x="927.277" y="70.3213" width="49.3304" height="49.3304" stroke="white" stroke-opacity="0.06" stroke-width="0.986607"/>
<rect x="976.607" y="70.3213" width="49.3304" height="49.3304" stroke="white" stroke-opacity="0.06" stroke-width="0.986607"/>
<rect x="-9.99997" y="119.651" width="49.3304" height="49.3304" stroke="white" stroke-opacity="0.06" stroke-width="0.986607"/>
<rect x="39.3305" y="119.652" width="49.3304" height="49.3304" stroke="white" stroke-opacity="0.06" stroke-width="0.986607"/>
<rect x="88.6607" y="119.652" width="49.3304" height="49.3304" stroke="white" stroke-opacity="0.06" stroke-width="0.986607"/>
<rect x="137.991" y="119.652" width="49.3304" height="49.3304" stroke="white" stroke-opacity="0.06" stroke-width="0.986607"/>
<rect x="187.322" y="119.652" width="49.3304" height="49.3304" stroke="white" stroke-opacity="0.06" stroke-width="0.986607"/>
<rect x="236.652" y="119.652" width="49.3304" height="49.3304" stroke="white" stroke-opacity="0.06" stroke-width="0.986607"/>
<rect x="285.982" y="119.652" width="49.3304" height="49.3304" stroke="white" stroke-opacity="0.06" stroke-width="0.986607"/>
<rect x="335.313" y="119.652" width="49.3304" height="49.3304" stroke="white" stroke-opacity="0.06" stroke-width="0.986607"/>
<rect x="384.643" y="119.652" width="49.3304" height="49.3304" stroke="white" stroke-opacity="0.06" stroke-width="0.986607"/>
<rect x="433.973" y="119.652" width="49.3304" height="49.3304" stroke="white" stroke-opacity="0.06" stroke-width="0.986607"/>
<rect x="483.304" y="119.652" width="49.3304" height="49.3304" stroke="white" stroke-opacity="0.06" stroke-width="0.986607"/>
<rect x="532.634" y="119.652" width="49.3304" height="49.3304" stroke="white" stroke-opacity="0.06" stroke-width="0.986607"/>
<rect x="581.964" y="119.652" width="49.3304" height="49.3304" stroke="white" stroke-opacity="0.06" stroke-width="0.986607"/>
<rect x="631.295" y="119.652" width="49.3304" height="49.3304" stroke="white" stroke-opacity="0.06" stroke-width="0.986607"/>
<rect x="680.625" y="119.652" width="49.3304" height="49.3304" stroke="white" stroke-opacity="0.06" stroke-width="0.986607"/>
<rect x="729.955" y="119.652" width="49.3304" height="49.3304" stroke="white" stroke-opacity="0.06" stroke-width="0.986607"/>
<rect x="779.286" y="119.652" width="49.3304" height="49.3304" stroke="white" stroke-opacity="0.06" stroke-width="0.986607"/>
<rect x="828.616" y="119.652" width="49.3304" height="49.3304" stroke="white" stroke-opacity="0.06" stroke-width="0.986607"/>
<rect x="877.947" y="119.652" width="49.3304" height="49.3304" fill="white" fill-opacity="0.05" stroke="white" stroke-opacity="0.06" stroke-width="0.986607"/>
<rect x="927.277" y="119.651" width="49.3304" height="49.3304" stroke="white" stroke-opacity="0.06" stroke-width="0.986607"/>
<rect x="976.607" y="119.651" width="49.3304" height="49.3304" stroke="white" stroke-opacity="0.06" stroke-width="0.986607"/>
<rect x="-9.99997" y="168.982" width="49.3304" height="49.3304" stroke="white" stroke-opacity="0.06" stroke-width="0.986607"/>
<rect x="39.3305" y="168.982" width="49.3304" height="49.3304" stroke="white" stroke-opacity="0.06" stroke-width="0.986607"/>
<rect x="88.6607" y="168.982" width="49.3304" height="49.3304" stroke="white" stroke-opacity="0.06" stroke-width="0.986607"/>
<rect x="137.991" y="168.982" width="49.3304" height="49.3304" stroke="white" stroke-opacity="0.06" stroke-width="0.986607"/>
<rect x="187.322" y="168.982" width="49.3304" height="49.3304" stroke="white" stroke-opacity="0.06" stroke-width="0.986607"/>
<rect x="236.652" y="168.982" width="49.3304" height="49.3304" stroke="white" stroke-opacity="0.06" stroke-width="0.986607"/>
<rect x="285.982" y="168.982" width="49.3304" height="49.3304" stroke="white" stroke-opacity="0.06" stroke-width="0.986607"/>
<rect x="335.313" y="168.982" width="49.3304" height="49.3304" stroke="white" stroke-opacity="0.06" stroke-width="0.986607"/>
<rect x="384.643" y="168.982" width="49.3304" height="49.3304" stroke="white" stroke-opacity="0.06" stroke-width="0.986607"/>
<rect x="433.973" y="168.982" width="49.3304" height="49.3304" stroke="white" stroke-opacity="0.06" stroke-width="0.986607"/>
<rect x="483.304" y="168.982" width="49.3304" height="49.3304" stroke="white" stroke-opacity="0.06" stroke-width="0.986607"/>
<rect x="532.634" y="168.982" width="49.3304" height="49.3304" stroke="white" stroke-opacity="0.06" stroke-width="0.986607"/>
<rect x="581.964" y="168.982" width="49.3304" height="49.3304" stroke="white" stroke-opacity="0.06" stroke-width="0.986607"/>
<rect x="631.295" y="168.982" width="49.3304" height="49.3304" stroke="white" stroke-opacity="0.06" stroke-width="0.986607"/>
<rect x="680.625" y="168.982" width="49.3304" height="49.3304" stroke="white" stroke-opacity="0.06" stroke-width="0.986607"/>
<rect x="729.955" y="168.982" width="49.3304" height="49.3304" stroke="white" stroke-opacity="0.06" stroke-width="0.986607"/>
<rect x="779.286" y="168.982" width="49.3304" height="49.3304" stroke="white" stroke-opacity="0.06" stroke-width="0.986607"/>
<rect x="828.616" y="168.982" width="49.3304" height="49.3304" stroke="white" stroke-opacity="0.06" stroke-width="0.986607"/>
<rect x="877.947" y="168.982" width="49.3304" height="49.3304" stroke="white" stroke-opacity="0.06" stroke-width="0.986607"/>
<rect x="927.277" y="168.982" width="49.3304" height="49.3304" stroke="white" stroke-opacity="0.06" stroke-width="0.986607"/>
<rect x="976.607" y="168.982" width="49.3304" height="49.3304" stroke="white" stroke-opacity="0.06" stroke-width="0.986607"/>
<rect x="-9.99997" y="218.312" width="49.3304" height="49.3304" stroke="white" stroke-opacity="0.06" stroke-width="0.986607"/>
<rect x="39.3305" y="218.312" width="49.3304" height="49.3304" stroke="white" stroke-opacity="0.06" stroke-width="0.986607"/>
<rect x="88.6607" y="218.312" width="49.3304" height="49.3304" stroke="white" stroke-opacity="0.06" stroke-width="0.986607"/>
<rect x="137.991" y="218.312" width="49.3304" height="49.3304" stroke="white" stroke-opacity="0.06" stroke-width="0.986607"/>
<rect x="187.322" y="218.312" width="49.3304" height="49.3304" stroke="white" stroke-opacity="0.06" stroke-width="0.986607"/>
<rect x="236.652" y="218.312" width="49.3304" height="49.3304" stroke="white" stroke-opacity="0.06" stroke-width="0.986607"/>
<rect x="285.982" y="218.312" width="49.3304" height="49.3304" stroke="white" stroke-opacity="0.06" stroke-width="0.986607"/>
<rect x="335.313" y="218.312" width="49.3304" height="49.3304" stroke="white" stroke-opacity="0.06" stroke-width="0.986607"/>
<rect x="384.643" y="218.312" width="49.3304" height="49.3304" fill="white" fill-opacity="0.05" stroke="white" stroke-opacity="0.06" stroke-width="0.986607"/>
<rect x="433.973" y="218.312" width="49.3304" height="49.3304" stroke="white" stroke-opacity="0.06" stroke-width="0.986607"/>
<rect x="483.304" y="218.312" width="49.3304" height="49.3304" stroke="white" stroke-opacity="0.06" stroke-width="0.986607"/>
<rect x="532.634" y="218.312" width="49.3304" height="49.3304" stroke="white" stroke-opacity="0.06" stroke-width="0.986607"/>
<rect x="581.964" y="218.312" width="49.3304" height="49.3304" stroke="white" stroke-opacity="0.06" stroke-width="0.986607"/>
<rect x="631.295" y="218.312" width="49.3304" height="49.3304" stroke="white" stroke-opacity="0.06" stroke-width="0.986607"/>
<rect x="680.625" y="218.312" width="49.3304" height="49.3304" stroke="white" stroke-opacity="0.06" stroke-width="0.986607"/>
<rect x="729.955" y="218.312" width="49.3304" height="49.3304" stroke="white" stroke-opacity="0.06" stroke-width="0.986607"/>
<rect x="779.286" y="218.312" width="49.3304" height="49.3304" stroke="white" stroke-opacity="0.06" stroke-width="0.986607"/>
<rect x="828.616" y="218.312" width="49.3304" height="49.3304" stroke="white" stroke-opacity="0.06" stroke-width="0.986607"/>
<rect x="877.947" y="218.312" width="49.3304" height="49.3304" stroke="white" stroke-opacity="0.06" stroke-width="0.986607"/>
<rect x="927.277" y="218.312" width="49.3304" height="49.3304" stroke="white" stroke-opacity="0.06" stroke-width="0.986607"/>
<rect x="976.607" y="218.312" width="49.3304" height="49.3304" stroke="white" stroke-opacity="0.06" stroke-width="0.986607"/>
<rect x="-9.99997" y="267.643" width="49.3304" height="49.3304" stroke="white" stroke-opacity="0.06" stroke-width="0.986607"/>
<rect x="39.3305" y="267.643" width="49.3304" height="49.3304" stroke="white" stroke-opacity="0.06" stroke-width="0.986607"/>
<rect x="88.6607" y="267.643" width="49.3304" height="49.3304" stroke="white" stroke-opacity="0.06" stroke-width="0.986607"/>
<rect x="137.991" y="267.643" width="49.3304" height="49.3304" stroke="white" stroke-opacity="0.06" stroke-width="0.986607"/>
<rect x="187.322" y="267.643" width="49.3304" height="49.3304" fill="white" fill-opacity="0.05" stroke="white" stroke-opacity="0.06" stroke-width="0.986607"/>
<rect x="236.652" y="267.643" width="49.3304" height="49.3304" stroke="white" stroke-opacity="0.06" stroke-width="0.986607"/>
<rect x="285.982" y="267.643" width="49.3304" height="49.3304" stroke="white" stroke-opacity="0.06" stroke-width="0.986607"/>
<rect x="335.313" y="267.643" width="49.3304" height="49.3304" stroke="white" stroke-opacity="0.06" stroke-width="0.986607"/>
<rect x="384.643" y="267.643" width="49.3304" height="49.3304" stroke="white" stroke-opacity="0.06" stroke-width="0.986607"/>
<rect x="433.973" y="267.643" width="49.3304" height="49.3304" stroke="white" stroke-opacity="0.06" stroke-width="0.986607"/>
<rect x="483.304" y="267.643" width="49.3304" height="49.3304" stroke="white" stroke-opacity="0.06" stroke-width="0.986607"/>
<rect x="532.634" y="267.643" width="49.3304" height="49.3304" stroke="white" stroke-opacity="0.06" stroke-width="0.986607"/>
<rect x="581.964" y="267.643" width="49.3304" height="49.3304" stroke="white" stroke-opacity="0.06" stroke-width="0.986607"/>
<rect x="631.295" y="267.643" width="49.3304" height="49.3304" stroke="white" stroke-opacity="0.06" stroke-width="0.986607"/>
<rect x="680.625" y="267.643" width="49.3304" height="49.3304" stroke="white" stroke-opacity="0.06" stroke-width="0.986607"/>
<rect x="729.955" y="267.643" width="49.3304" height="49.3304" stroke="white" stroke-opacity="0.06" stroke-width="0.986607"/>
<rect x="779.286" y="267.643" width="49.3304" height="49.3304" stroke="white" stroke-opacity="0.06" stroke-width="0.986607"/>
<rect x="828.616" y="267.643" width="49.3304" height="49.3304" stroke="white" stroke-opacity="0.06" stroke-width="0.986607"/>
<rect x="877.947" y="267.643" width="49.3304" height="49.3304" stroke="white" stroke-opacity="0.06" stroke-width="0.986607"/>
<rect x="927.277" y="267.643" width="49.3304" height="49.3304" stroke="white" stroke-opacity="0.06" stroke-width="0.986607"/>
<rect x="976.607" y="267.643" width="49.3304" height="49.3304" stroke="white" stroke-opacity="0.06" stroke-width="0.986607"/>
<rect x="-9.99997" y="316.973" width="49.3304" height="49.3304" stroke="white" stroke-opacity="0.06" stroke-width="0.986607"/>
<rect x="39.3305" y="316.973" width="49.3304" height="49.3304" stroke="white" stroke-opacity="0.06" stroke-width="0.986607"/>
<rect x="88.6607" y="316.973" width="49.3304" height="49.3304" stroke="white" stroke-opacity="0.06" stroke-width="0.986607"/>
<rect x="137.991" y="316.973" width="49.3304" height="49.3304" stroke="white" stroke-opacity="0.06" stroke-width="0.986607"/>
<rect x="187.322" y="316.973" width="49.3304" height="49.3304" stroke="white" stroke-opacity="0.06" stroke-width="0.986607"/>
<rect x="236.652" y="316.973" width="49.3304" height="49.3304" stroke="white" stroke-opacity="0.06" stroke-width="0.986607"/>
<rect x="285.982" y="316.973" width="49.3304" height="49.3304" stroke="white" stroke-opacity="0.06" stroke-width="0.986607"/>
<rect x="335.313" y="316.973" width="49.3304" height="49.3304" stroke="white" stroke-opacity="0.06" stroke-width="0.986607"/>
<rect x="384.643" y="316.973" width="49.3304" height="49.3304" stroke="white" stroke-opacity="0.06" stroke-width="0.986607"/>
<rect x="433.973" y="316.973" width="49.3304" height="49.3304" stroke="white" stroke-opacity="0.06" stroke-width="0.986607"/>
<rect x="483.304" y="316.973" width="49.3304" height="49.3304" stroke="white" stroke-opacity="0.06" stroke-width="0.986607"/>
<rect x="532.634" y="316.973" width="49.3304" height="49.3304" stroke="white" stroke-opacity="0.06" stroke-width="0.986607"/>
<rect x="581.964" y="316.973" width="49.3304" height="49.3304" stroke="white" stroke-opacity="0.06" stroke-width="0.986607"/>
<rect x="631.295" y="316.973" width="49.3304" height="49.3304" stroke="white" stroke-opacity="0.06" stroke-width="0.986607"/>
<rect x="680.625" y="316.973" width="49.3304" height="49.3304" stroke="white" stroke-opacity="0.06" stroke-width="0.986607"/>
<rect x="729.955" y="316.973" width="49.3304" height="49.3304" stroke="white" stroke-opacity="0.06" stroke-width="0.986607"/>
<rect x="779.286" y="316.973" width="49.3304" height="49.3304" stroke="white" stroke-opacity="0.06" stroke-width="0.986607"/>
<rect x="828.616" y="316.973" width="49.3304" height="49.3304" stroke="white" stroke-opacity="0.06" stroke-width="0.986607"/>
<rect x="877.947" y="316.973" width="49.3304" height="49.3304" stroke="white" stroke-opacity="0.06" stroke-width="0.986607"/>
<rect x="927.277" y="316.973" width="49.3304" height="49.3304" stroke="white" stroke-opacity="0.06" stroke-width="0.986607"/>
<rect x="976.607" y="316.973" width="49.3304" height="49.3304" stroke="white" stroke-opacity="0.06" stroke-width="0.986607"/>
<rect x="-9.99997" y="366.303" width="49.3304" height="49.3304" stroke="white" stroke-opacity="0.06" stroke-width="0.986607"/>
<rect x="39.3305" y="366.303" width="49.3304" height="49.3304" stroke="white" stroke-opacity="0.06" stroke-width="0.986607"/>
<rect x="88.6607" y="366.303" width="49.3304" height="49.3304" stroke="white" stroke-opacity="0.06" stroke-width="0.986607"/>
<rect x="137.991" y="366.303" width="49.3304" height="49.3304" stroke="white" stroke-opacity="0.06" stroke-width="0.986607"/>
<rect x="187.322" y="366.303" width="49.3304" height="49.3304" stroke="white" stroke-opacity="0.06" stroke-width="0.986607"/>
<rect x="236.652" y="366.303" width="49.3304" height="49.3304" stroke="white" stroke-opacity="0.06" stroke-width="0.986607"/>
<rect x="285.982" y="366.303" width="49.3304" height="49.3304" stroke="white" stroke-opacity="0.06" stroke-width="0.986607"/>
<rect x="335.313" y="366.303" width="49.3304" height="49.3304" stroke="white" stroke-opacity="0.06" stroke-width="0.986607"/>
<rect x="384.643" y="366.303" width="49.3304" height="49.3304" stroke="white" stroke-opacity="0.06" stroke-width="0.986607"/>
<rect x="433.973" y="366.303" width="49.3304" height="49.3304" stroke="white" stroke-opacity="0.06" stroke-width="0.986607"/>
<rect x="483.304" y="366.303" width="49.3304" height="49.3304" stroke="white" stroke-opacity="0.06" stroke-width="0.986607"/>
<rect x="532.634" y="366.303" width="49.3304" height="49.3304" stroke="white" stroke-opacity="0.06" stroke-width="0.986607"/>
<rect x="581.964" y="366.303" width="49.3304" height="49.3304" stroke="white" stroke-opacity="0.06" stroke-width="0.986607"/>
<rect x="631.295" y="366.303" width="49.3304" height="49.3304" stroke="white" stroke-opacity="0.06" stroke-width="0.986607"/>
<rect x="680.625" y="366.303" width="49.3304" height="49.3304" stroke="white" stroke-opacity="0.06" stroke-width="0.986607"/>
<rect x="729.955" y="366.303" width="49.3304" height="49.3304" stroke="white" stroke-opacity="0.06" stroke-width="0.986607"/>
<rect x="779.286" y="366.303" width="49.3304" height="49.3304" stroke="white" stroke-opacity="0.06" stroke-width="0.986607"/>
<rect x="828.616" y="366.303" width="49.3304" height="49.3304" stroke="white" stroke-opacity="0.06" stroke-width="0.986607"/>
<rect x="877.947" y="366.303" width="49.3304" height="49.3304" stroke="white" stroke-opacity="0.06" stroke-width="0.986607"/>
<rect x="927.277" y="366.303" width="49.3304" height="49.3304" stroke="white" stroke-opacity="0.06" stroke-width="0.986607"/>
<rect x="976.607" y="366.303" width="49.3304" height="49.3304" stroke="white" stroke-opacity="0.06" stroke-width="0.986607"/>
</g>
<defs>
<clipPath id="clip0_51_6258">
<rect width="1035.94" height="663" fill="white" transform="translate(-10 -127)"/>
</clipPath>
</defs>
</svg>
