<svg width="111" height="110" viewBox="0 0 111 110" fill="none" xmlns="http://www.w3.org/2000/svg">
<path d="M2.69522 53.2398C1.67472 82.4629 24.5369 106.98 53.76 108C82.9832 109.021 107.501 86.1585 108.522 56.9353C109.542 27.7122 86.6787 3.19539 57.4555 2.1749C28.2324 1.1544 3.71571 24.0166 2.69522 53.2398Z" fill="#353535" stroke="#5C5C5C" stroke-width="1.522"/>
<path fill-rule="evenodd" clip-rule="evenodd" d="M32.41 41.6369L33.8756 37.596C34.1734 36.7741 34.8522 36.1502 35.6952 35.9243L39.8466 34.8045C40.4212 34.6508 40.4538 33.8489 39.8961 33.6465L35.8539 32.1808C35.0334 31.8828 34.4095 31.2043 34.1822 30.3609L33.0641 26.2096C32.9102 25.6366 32.1085 25.6024 31.9057 26.1617L30.4401 30.2026C30.1423 31.0228 29.4635 31.6467 28.6202 31.8743L24.4691 32.9924C23.8945 33.1475 23.8604 33.948 24.4194 34.1505L28.4619 35.6161C29.2822 35.9141 29.9062 36.5943 30.1335 37.4376L31.2517 41.587C31.4054 42.1617 32.2072 42.1959 32.41 41.6369Z" fill="#FAFAFA"/>
<path fill-rule="evenodd" clip-rule="evenodd" d="M97.4094 41.5255C95.7823 39.573 93.177 38.4145 90.6234 37.8877C88.0482 37.3774 85.332 37.3215 82.7596 37.6864C77.5564 38.3809 72.7825 40.3585 68.5919 42.8575C66.4182 44.08 64.5507 45.5169 62.6168 46.9794C61.6839 47.7206 60.829 48.5149 59.9403 49.2959L57.5078 51.5528C54.8605 54.1335 52.2578 56.4773 49.7515 58.408C47.2358 60.3291 44.8958 61.7728 42.6054 62.7585C40.3159 63.7495 37.8843 64.2942 34.74 64.2853C31.6231 64.2865 27.9593 63.5959 24.0518 62.5309C20.123 61.4693 16.0094 60.0078 11.4008 58.7131C12.8656 63.2692 15.169 67.3307 18.1777 71.0747C21.2254 74.7571 25.0732 78.1508 30.0873 80.4695C35.0262 82.833 41.3016 83.8385 47.2364 82.8591C53.1851 81.9283 58.466 79.3749 62.7678 76.3591C67.0814 73.3113 70.6083 69.7909 73.6065 66.108C74.4342 65.0904 74.8732 64.52 75.4744 63.723L77.1385 61.4342C78.2891 60.0225 79.3478 58.4065 80.4864 57.008C82.7257 54.0737 84.9347 51.1421 87.4764 48.4587C88.7562 47.0973 90.1003 45.7993 91.6772 44.5621C92.4635 43.9586 93.3106 43.3708 94.2442 42.8473C95.1933 42.2805 96.1899 41.8459 97.4094 41.5255Z" fill="#5C5C5C"/>
<path fill-rule="evenodd" clip-rule="evenodd" d="M97.4094 41.5246C95.7506 36.871 92.5042 32.8893 88.0648 29.8798C83.652 26.9026 77.4364 25.2448 71.1848 26.2547C68.0968 26.7408 65.0853 27.7791 62.4242 29.2089C59.7753 30.6333 57.3852 32.3755 55.3032 34.2618C54.2636 35.2079 53.3152 36.1999 52.3728 37.198L49.9182 40.1117L46.1206 44.8073C41.2771 50.8505 36.0409 57.948 27.7894 59.8171C19.6887 61.652 16.2728 59.6572 11.4008 58.7123C12.2158 61.0563 13.247 63.3407 14.6822 65.3692C16.0881 67.4365 17.7656 69.3908 19.8767 71.0892C20.9451 71.907 22.0748 72.7167 23.3366 73.414C24.5934 74.0892 25.953 74.692 27.4104 75.1611C30.3103 76.0659 33.5966 76.4621 36.8033 76.1419C40.0114 75.8273 43.0987 74.9221 45.8134 73.6712C48.5472 72.4338 50.9449 70.8945 53.095 69.2563C57.371 65.9507 60.7364 62.2506 63.6012 58.4916C65.0418 56.6127 66.3569 54.6927 67.5785 52.7691L69.017 50.4786C69.4557 49.8095 69.8993 49.1366 70.348 48.5111C72.1571 45.9979 73.9108 43.9934 76.0075 42.5162C78.0775 40.9979 80.9231 39.9222 84.6808 39.7803C88.423 39.6349 92.7142 40.295 97.4094 41.5246Z" fill="#FAFAFA"/>
<path fill-rule="evenodd" clip-rule="evenodd" d="M75.884 78.955C75.7662 82.3261 78.405 85.1558 81.7761 85.2735C85.1473 85.3912 87.9737 82.7524 88.0915 79.3813C88.2092 76.0101 85.5737 73.1805 82.2025 73.0628C78.8314 72.9451 76.0017 75.5838 75.884 78.955Z" fill="#5C5C5C"/>
</svg>
