<svg width="407" height="437" viewBox="0 0 407 437" fill="none" xmlns="http://www.w3.org/2000/svg">
<g filter="url(#filter0_d_2001_20)">
<g clip-path="url(#clip0_2001_20)">
<rect x="5.16113" y="5" width="396.322" height="427" rx="16.5825" fill="#09050E"/>
<g opacity="0.6" clip-path="url(#clip1_2001_20)">
<rect x="-8.10489" y="433.506" width="31.5241" height="31.5241" transform="rotate(-90 -8.10489 433.506)" stroke="white" stroke-opacity="0.06" stroke-width="0.630481"/>
<rect x="-8.10489" y="401.983" width="31.5241" height="31.5241" transform="rotate(-90 -8.10489 401.983)" stroke="white" stroke-opacity="0.06" stroke-width="0.630481"/>
<rect x="-8.10489" y="370.458" width="31.5241" height="31.5241" transform="rotate(-90 -8.10489 370.458)" stroke="white" stroke-opacity="0.06" stroke-width="0.630481"/>
<rect x="-8.10489" y="338.934" width="31.5241" height="31.5241" transform="rotate(-90 -8.10489 338.934)" stroke="white" stroke-opacity="0.06" stroke-width="0.630481"/>
<rect x="-8.10489" y="307.41" width="31.5241" height="31.5241" transform="rotate(-90 -8.10489 307.41)" stroke="white" stroke-opacity="0.06" stroke-width="0.630481"/>
<rect x="-8.10489" y="275.886" width="31.5241" height="31.5241" transform="rotate(-90 -8.10489 275.886)" stroke="white" stroke-opacity="0.06" stroke-width="0.630481"/>
<rect x="-8.10489" y="244.362" width="31.5241" height="31.5241" transform="rotate(-90 -8.10489 244.362)" stroke="white" stroke-opacity="0.06" stroke-width="0.630481"/>
<rect x="-8.10489" y="212.838" width="31.5241" height="31.5241" transform="rotate(-90 -8.10489 212.838)" stroke="white" stroke-opacity="0.06" stroke-width="0.630481"/>
<rect x="-8.10489" y="181.314" width="31.5241" height="31.5241" transform="rotate(-90 -8.10489 181.314)" stroke="white" stroke-opacity="0.06" stroke-width="0.630481"/>
<rect x="-8.10489" y="149.79" width="31.5241" height="31.5241" transform="rotate(-90 -8.10489 149.79)" stroke="white" stroke-opacity="0.06" stroke-width="0.630481"/>
<rect x="-8.10489" y="118.266" width="31.5241" height="31.5241" transform="rotate(-90 -8.10489 118.266)" stroke="white" stroke-opacity="0.06" stroke-width="0.630481"/>
<rect x="-8.10489" y="86.7418" width="31.5241" height="31.5241" transform="rotate(-90 -8.10489 86.7418)" stroke="white" stroke-opacity="0.06" stroke-width="0.630481"/>
<rect x="-8.10489" y="55.2177" width="31.5241" height="31.5241" transform="rotate(-90 -8.10489 55.2177)" stroke="white" stroke-opacity="0.06" stroke-width="0.630481"/>
<rect x="-8.10489" y="23.6936" width="31.5241" height="31.5241" transform="rotate(-90 -8.10489 23.6936)" stroke="white" stroke-opacity="0.06" stroke-width="0.630481"/>
<rect x="23.4192" y="433.506" width="31.5241" height="31.5241" transform="rotate(-90 23.4192 433.506)" stroke="white" stroke-opacity="0.06" stroke-width="0.630481"/>
<rect x="23.4192" y="401.983" width="31.5241" height="31.5241" transform="rotate(-90 23.4192 401.983)" stroke="white" stroke-opacity="0.06" stroke-width="0.630481"/>
<rect x="23.4192" y="370.458" width="31.5241" height="31.5241" transform="rotate(-90 23.4192 370.458)" stroke="white" stroke-opacity="0.06" stroke-width="0.630481"/>
<rect x="23.4192" y="338.934" width="31.5241" height="31.5241" transform="rotate(-90 23.4192 338.934)" stroke="white" stroke-opacity="0.06" stroke-width="0.630481"/>
<rect x="23.4192" y="307.41" width="31.5241" height="31.5241" transform="rotate(-90 23.4192 307.41)" stroke="white" stroke-opacity="0.06" stroke-width="0.630481"/>
<rect x="23.4192" y="275.886" width="31.5241" height="31.5241" transform="rotate(-90 23.4192 275.886)" fill="white" fill-opacity="0.05" stroke="white" stroke-opacity="0.06" stroke-width="0.630481"/>
<rect x="23.4192" y="244.362" width="31.5241" height="31.5241" transform="rotate(-90 23.4192 244.362)" stroke="white" stroke-opacity="0.06" stroke-width="0.630481"/>
<rect x="23.4192" y="212.838" width="31.5241" height="31.5241" transform="rotate(-90 23.4192 212.838)" stroke="white" stroke-opacity="0.06" stroke-width="0.630481"/>
<rect x="23.4192" y="181.314" width="31.5241" height="31.5241" transform="rotate(-90 23.4192 181.314)" stroke="white" stroke-opacity="0.06" stroke-width="0.630481"/>
<rect x="23.4192" y="149.79" width="31.5241" height="31.5241" transform="rotate(-90 23.4192 149.79)" stroke="white" stroke-opacity="0.06" stroke-width="0.630481"/>
<rect x="23.4192" y="118.266" width="31.5241" height="31.5241" transform="rotate(-90 23.4192 118.266)" stroke="white" stroke-opacity="0.06" stroke-width="0.630481"/>
<rect x="23.4192" y="86.7418" width="31.5241" height="31.5241" transform="rotate(-90 23.4192 86.7418)" stroke="white" stroke-opacity="0.06" stroke-width="0.630481"/>
<rect x="23.4192" y="55.2177" width="31.5241" height="31.5241" transform="rotate(-90 23.4192 55.2177)" stroke="white" stroke-opacity="0.06" stroke-width="0.630481"/>
<rect x="23.4192" y="23.6936" width="31.5241" height="31.5241" transform="rotate(-90 23.4192 23.6936)" stroke="white" stroke-opacity="0.06" stroke-width="0.630481"/>
<rect x="54.9432" y="433.506" width="31.5241" height="31.5241" transform="rotate(-90 54.9432 433.506)" stroke="white" stroke-opacity="0.06" stroke-width="0.630481"/>
<rect x="54.9432" y="401.983" width="31.5241" height="31.5241" transform="rotate(-90 54.9432 401.983)" stroke="white" stroke-opacity="0.06" stroke-width="0.630481"/>
<rect x="54.9432" y="370.458" width="31.5241" height="31.5241" transform="rotate(-90 54.9432 370.458)" stroke="white" stroke-opacity="0.06" stroke-width="0.630481"/>
<rect x="54.9432" y="338.934" width="31.5241" height="31.5241" transform="rotate(-90 54.9432 338.934)" stroke="white" stroke-opacity="0.06" stroke-width="0.630481"/>
<rect x="54.9432" y="307.41" width="31.5241" height="31.5241" transform="rotate(-90 54.9432 307.41)" stroke="white" stroke-opacity="0.06" stroke-width="0.630481"/>
<rect x="54.9432" y="275.886" width="31.5241" height="31.5241" transform="rotate(-90 54.9432 275.886)" stroke="white" stroke-opacity="0.06" stroke-width="0.630481"/>
<rect x="54.9432" y="244.362" width="31.5241" height="31.5241" transform="rotate(-90 54.9432 244.362)" stroke="white" stroke-opacity="0.06" stroke-width="0.630481"/>
<rect x="54.9432" y="212.838" width="31.5241" height="31.5241" transform="rotate(-90 54.9432 212.838)" stroke="white" stroke-opacity="0.06" stroke-width="0.630481"/>
<rect x="54.9432" y="181.314" width="31.5241" height="31.5241" transform="rotate(-90 54.9432 181.314)" stroke="white" stroke-opacity="0.06" stroke-width="0.630481"/>
<rect x="54.9432" y="149.79" width="31.5241" height="31.5241" transform="rotate(-90 54.9432 149.79)" stroke="white" stroke-opacity="0.06" stroke-width="0.630481"/>
<rect x="54.9432" y="118.266" width="31.5241" height="31.5241" transform="rotate(-90 54.9432 118.266)" stroke="white" stroke-opacity="0.06" stroke-width="0.630481"/>
<rect x="54.9432" y="86.7418" width="31.5241" height="31.5241" transform="rotate(-90 54.9432 86.7418)" stroke="white" stroke-opacity="0.06" stroke-width="0.630481"/>
<rect x="54.9432" y="55.2177" width="31.5241" height="31.5241" transform="rotate(-90 54.9432 55.2177)" fill="white" fill-opacity="0.05" stroke="white" stroke-opacity="0.06" stroke-width="0.630481"/>
<rect x="54.9432" y="23.6936" width="31.5241" height="31.5241" transform="rotate(-90 54.9432 23.6936)" stroke="white" stroke-opacity="0.06" stroke-width="0.630481"/>
<rect x="86.4673" y="433.506" width="31.5241" height="31.5241" transform="rotate(-90 86.4673 433.506)" stroke="white" stroke-opacity="0.06" stroke-width="0.630481"/>
<rect x="86.4673" y="401.983" width="31.5241" height="31.5241" transform="rotate(-90 86.4673 401.983)" stroke="white" stroke-opacity="0.06" stroke-width="0.630481"/>
<rect x="86.4673" y="370.458" width="31.5241" height="31.5241" transform="rotate(-90 86.4673 370.458)" stroke="white" stroke-opacity="0.06" stroke-width="0.630481"/>
<rect x="86.4673" y="338.934" width="31.5241" height="31.5241" transform="rotate(-90 86.4673 338.934)" stroke="white" stroke-opacity="0.06" stroke-width="0.630481"/>
<rect x="86.4673" y="307.41" width="31.5241" height="31.5241" transform="rotate(-90 86.4673 307.41)" stroke="white" stroke-opacity="0.06" stroke-width="0.630481"/>
<rect x="86.4673" y="275.886" width="31.5241" height="31.5241" transform="rotate(-90 86.4673 275.886)" stroke="white" stroke-opacity="0.06" stroke-width="0.630481"/>
<rect x="86.4673" y="244.362" width="31.5241" height="31.5241" transform="rotate(-90 86.4673 244.362)" stroke="white" stroke-opacity="0.06" stroke-width="0.630481"/>
<rect x="86.4673" y="212.838" width="31.5241" height="31.5241" transform="rotate(-90 86.4673 212.838)" stroke="white" stroke-opacity="0.06" stroke-width="0.630481"/>
<rect x="86.4673" y="181.314" width="31.5241" height="31.5241" transform="rotate(-90 86.4673 181.314)" stroke="white" stroke-opacity="0.06" stroke-width="0.630481"/>
<rect x="86.4673" y="149.79" width="31.5241" height="31.5241" transform="rotate(-90 86.4673 149.79)" stroke="white" stroke-opacity="0.06" stroke-width="0.630481"/>
<rect x="86.4673" y="118.266" width="31.5241" height="31.5241" transform="rotate(-90 86.4673 118.266)" stroke="white" stroke-opacity="0.06" stroke-width="0.630481"/>
<rect x="86.4673" y="86.7418" width="31.5241" height="31.5241" transform="rotate(-90 86.4673 86.7418)" stroke="white" stroke-opacity="0.06" stroke-width="0.630481"/>
<rect x="86.4673" y="55.2177" width="31.5241" height="31.5241" transform="rotate(-90 86.4673 55.2177)" stroke="white" stroke-opacity="0.06" stroke-width="0.630481"/>
<rect x="86.4673" y="23.6936" width="31.5241" height="31.5241" transform="rotate(-90 86.4673 23.6936)" stroke="white" stroke-opacity="0.06" stroke-width="0.630481"/>
<rect x="117.991" y="433.506" width="31.5241" height="31.5241" transform="rotate(-90 117.991 433.506)" stroke="white" stroke-opacity="0.06" stroke-width="0.630481"/>
<rect x="117.991" y="401.983" width="31.5241" height="31.5241" transform="rotate(-90 117.991 401.983)" stroke="white" stroke-opacity="0.06" stroke-width="0.630481"/>
<rect x="117.991" y="370.458" width="31.5241" height="31.5241" transform="rotate(-90 117.991 370.458)" stroke="white" stroke-opacity="0.06" stroke-width="0.630481"/>
<rect x="117.991" y="338.934" width="31.5241" height="31.5241" transform="rotate(-90 117.991 338.934)" stroke="white" stroke-opacity="0.06" stroke-width="0.630481"/>
<rect x="117.991" y="307.41" width="31.5241" height="31.5241" transform="rotate(-90 117.991 307.41)" stroke="white" stroke-opacity="0.06" stroke-width="0.630481"/>
<rect x="117.991" y="275.886" width="31.5241" height="31.5241" transform="rotate(-90 117.991 275.886)" stroke="white" stroke-opacity="0.06" stroke-width="0.630481"/>
<rect x="117.991" y="244.362" width="31.5241" height="31.5241" transform="rotate(-90 117.991 244.362)" stroke="white" stroke-opacity="0.06" stroke-width="0.630481"/>
<rect x="117.991" y="212.838" width="31.5241" height="31.5241" transform="rotate(-90 117.991 212.838)" stroke="white" stroke-opacity="0.06" stroke-width="0.630481"/>
<rect x="117.991" y="181.314" width="31.5241" height="31.5241" transform="rotate(-90 117.991 181.314)" fill="white" fill-opacity="0.05" stroke="white" stroke-opacity="0.06" stroke-width="0.630481"/>
<rect x="117.991" y="149.79" width="31.5241" height="31.5241" transform="rotate(-90 117.991 149.79)" stroke="white" stroke-opacity="0.06" stroke-width="0.630481"/>
<rect x="117.991" y="118.266" width="31.5241" height="31.5241" transform="rotate(-90 117.991 118.266)" stroke="white" stroke-opacity="0.06" stroke-width="0.630481"/>
<rect x="117.991" y="86.7418" width="31.5241" height="31.5241" transform="rotate(-90 117.991 86.7418)" stroke="white" stroke-opacity="0.06" stroke-width="0.630481"/>
<rect x="117.991" y="55.2177" width="31.5241" height="31.5241" transform="rotate(-90 117.991 55.2177)" stroke="white" stroke-opacity="0.06" stroke-width="0.630481"/>
<rect x="117.991" y="23.6938" width="31.5241" height="31.5241" transform="rotate(-90 117.991 23.6938)" stroke="white" stroke-opacity="0.06" stroke-width="0.630481"/>
<rect x="149.515" y="433.506" width="31.5241" height="31.5241" transform="rotate(-90 149.515 433.506)" stroke="white" stroke-opacity="0.06" stroke-width="0.630481"/>
<rect x="149.515" y="401.983" width="31.5241" height="31.5241" transform="rotate(-90 149.515 401.983)" stroke="white" stroke-opacity="0.06" stroke-width="0.630481"/>
<rect x="149.515" y="370.458" width="31.5241" height="31.5241" transform="rotate(-90 149.515 370.458)" stroke="white" stroke-opacity="0.06" stroke-width="0.630481"/>
<rect x="149.515" y="338.934" width="31.5241" height="31.5241" transform="rotate(-90 149.515 338.934)" stroke="white" stroke-opacity="0.06" stroke-width="0.630481"/>
<rect x="149.515" y="307.41" width="31.5241" height="31.5241" transform="rotate(-90 149.515 307.41)" stroke="white" stroke-opacity="0.06" stroke-width="0.630481"/>
<rect x="149.515" y="275.886" width="31.5241" height="31.5241" transform="rotate(-90 149.515 275.886)" stroke="white" stroke-opacity="0.06" stroke-width="0.630481"/>
<rect x="149.515" y="244.362" width="31.5241" height="31.5241" transform="rotate(-90 149.515 244.362)" stroke="white" stroke-opacity="0.06" stroke-width="0.630481"/>
<rect x="149.515" y="212.838" width="31.5241" height="31.5241" transform="rotate(-90 149.515 212.838)" stroke="white" stroke-opacity="0.06" stroke-width="0.630481"/>
<rect x="149.515" y="181.314" width="31.5241" height="31.5241" transform="rotate(-90 149.515 181.314)" stroke="white" stroke-opacity="0.06" stroke-width="0.630481"/>
<rect x="149.515" y="149.79" width="31.5241" height="31.5241" transform="rotate(-90 149.515 149.79)" stroke="white" stroke-opacity="0.06" stroke-width="0.630481"/>
<rect x="149.515" y="118.266" width="31.5241" height="31.5241" transform="rotate(-90 149.515 118.266)" stroke="white" stroke-opacity="0.06" stroke-width="0.630481"/>
<rect x="149.515" y="86.7418" width="31.5241" height="31.5241" transform="rotate(-90 149.515 86.7418)" stroke="white" stroke-opacity="0.06" stroke-width="0.630481"/>
<rect x="149.515" y="55.2177" width="31.5241" height="31.5241" transform="rotate(-90 149.515 55.2177)" stroke="white" stroke-opacity="0.06" stroke-width="0.630481"/>
<rect x="149.515" y="23.6936" width="31.5241" height="31.5241" transform="rotate(-90 149.515 23.6936)" stroke="white" stroke-opacity="0.06" stroke-width="0.630481"/>
<rect x="181.039" y="433.506" width="31.5241" height="31.5241" transform="rotate(-90 181.039 433.506)" stroke="white" stroke-opacity="0.06" stroke-width="0.630481"/>
<rect x="181.039" y="401.983" width="31.5241" height="31.5241" transform="rotate(-90 181.039 401.983)" stroke="white" stroke-opacity="0.06" stroke-width="0.630481"/>
<rect x="181.039" y="370.458" width="31.5241" height="31.5241" transform="rotate(-90 181.039 370.458)" stroke="white" stroke-opacity="0.06" stroke-width="0.630481"/>
<rect x="181.039" y="338.934" width="31.5241" height="31.5241" transform="rotate(-90 181.039 338.934)" stroke="white" stroke-opacity="0.06" stroke-width="0.630481"/>
<rect x="181.039" y="307.41" width="31.5241" height="31.5241" transform="rotate(-90 181.039 307.41)" stroke="white" stroke-opacity="0.06" stroke-width="0.630481"/>
<rect x="181.039" y="275.886" width="31.5241" height="31.5241" transform="rotate(-90 181.039 275.886)" stroke="white" stroke-opacity="0.06" stroke-width="0.630481"/>
<rect x="181.039" y="244.362" width="31.5241" height="31.5241" transform="rotate(-90 181.039 244.362)" stroke="white" stroke-opacity="0.06" stroke-width="0.630481"/>
<rect x="181.039" y="212.838" width="31.5241" height="31.5241" transform="rotate(-90 181.039 212.838)" stroke="white" stroke-opacity="0.06" stroke-width="0.630481"/>
<rect x="181.039" y="181.314" width="31.5241" height="31.5241" transform="rotate(-90 181.039 181.314)" stroke="white" stroke-opacity="0.06" stroke-width="0.630481"/>
<rect x="181.039" y="149.79" width="31.5241" height="31.5241" transform="rotate(-90 181.039 149.79)" stroke="white" stroke-opacity="0.06" stroke-width="0.630481"/>
<rect x="181.039" y="118.266" width="31.5241" height="31.5241" transform="rotate(-90 181.039 118.266)" stroke="white" stroke-opacity="0.06" stroke-width="0.630481"/>
<rect x="181.039" y="86.7418" width="31.5241" height="31.5241" transform="rotate(-90 181.039 86.7418)" stroke="white" stroke-opacity="0.06" stroke-width="0.630481"/>
<rect x="181.039" y="55.2177" width="31.5241" height="31.5241" transform="rotate(-90 181.039 55.2177)" stroke="white" stroke-opacity="0.06" stroke-width="0.630481"/>
<rect x="181.039" y="23.6936" width="31.5241" height="31.5241" transform="rotate(-90 181.039 23.6936)" stroke="white" stroke-opacity="0.06" stroke-width="0.630481"/>
<rect x="212.564" y="433.506" width="31.5241" height="31.5241" transform="rotate(-90 212.564 433.506)" stroke="white" stroke-opacity="0.06" stroke-width="0.630481"/>
<rect x="212.564" y="401.983" width="31.5241" height="31.5241" transform="rotate(-90 212.564 401.983)" stroke="white" stroke-opacity="0.06" stroke-width="0.630481"/>
<rect x="212.564" y="370.458" width="31.5241" height="31.5241" transform="rotate(-90 212.564 370.458)" stroke="white" stroke-opacity="0.06" stroke-width="0.630481"/>
<rect x="212.564" y="338.934" width="31.5241" height="31.5241" transform="rotate(-90 212.564 338.934)" stroke="white" stroke-opacity="0.06" stroke-width="0.630481"/>
<rect x="212.564" y="307.41" width="31.5241" height="31.5241" transform="rotate(-90 212.564 307.41)" fill="white" fill-opacity="0.05" stroke="white" stroke-opacity="0.06" stroke-width="0.630481"/>
<rect x="212.564" y="275.886" width="31.5241" height="31.5241" transform="rotate(-90 212.564 275.886)" stroke="white" stroke-opacity="0.06" stroke-width="0.630481"/>
<rect x="212.564" y="244.362" width="31.5241" height="31.5241" transform="rotate(-90 212.564 244.362)" stroke="white" stroke-opacity="0.06" stroke-width="0.630481"/>
<rect x="212.564" y="212.838" width="31.5241" height="31.5241" transform="rotate(-90 212.564 212.838)" stroke="white" stroke-opacity="0.06" stroke-width="0.630481"/>
<rect x="212.564" y="181.314" width="31.5241" height="31.5241" transform="rotate(-90 212.564 181.314)" stroke="white" stroke-opacity="0.06" stroke-width="0.630481"/>
<rect x="212.564" y="149.79" width="31.5241" height="31.5241" transform="rotate(-90 212.564 149.79)" stroke="white" stroke-opacity="0.06" stroke-width="0.630481"/>
<rect x="212.564" y="118.266" width="31.5241" height="31.5241" transform="rotate(-90 212.564 118.266)" stroke="white" stroke-opacity="0.06" stroke-width="0.630481"/>
<rect x="212.564" y="86.7418" width="31.5241" height="31.5241" transform="rotate(-90 212.564 86.7418)" stroke="white" stroke-opacity="0.06" stroke-width="0.630481"/>
<rect x="212.564" y="55.2177" width="31.5241" height="31.5241" transform="rotate(-90 212.564 55.2177)" stroke="white" stroke-opacity="0.06" stroke-width="0.630481"/>
<rect x="212.564" y="23.6938" width="31.5241" height="31.5241" transform="rotate(-90 212.564 23.6938)" stroke="white" stroke-opacity="0.06" stroke-width="0.630481"/>
<rect x="244.088" y="433.506" width="31.5241" height="31.5241" transform="rotate(-90 244.088 433.506)" fill="white" fill-opacity="0.05" stroke="white" stroke-opacity="0.06" stroke-width="0.630481"/>
<rect x="244.088" y="401.983" width="31.5241" height="31.5241" transform="rotate(-90 244.088 401.983)" stroke="white" stroke-opacity="0.06" stroke-width="0.630481"/>
<rect x="244.088" y="370.458" width="31.5241" height="31.5241" transform="rotate(-90 244.088 370.458)" stroke="white" stroke-opacity="0.06" stroke-width="0.630481"/>
<rect x="244.088" y="338.934" width="31.5241" height="31.5241" transform="rotate(-90 244.088 338.934)" stroke="white" stroke-opacity="0.06" stroke-width="0.630481"/>
<rect x="244.088" y="307.41" width="31.5241" height="31.5241" transform="rotate(-90 244.088 307.41)" stroke="white" stroke-opacity="0.06" stroke-width="0.630481"/>
<rect x="244.088" y="275.886" width="31.5241" height="31.5241" transform="rotate(-90 244.088 275.886)" stroke="white" stroke-opacity="0.06" stroke-width="0.630481"/>
<rect x="244.088" y="244.362" width="31.5241" height="31.5241" transform="rotate(-90 244.088 244.362)" stroke="white" stroke-opacity="0.06" stroke-width="0.630481"/>
<rect x="244.088" y="212.838" width="31.5241" height="31.5241" transform="rotate(-90 244.088 212.838)" stroke="white" stroke-opacity="0.06" stroke-width="0.630481"/>
<rect x="244.088" y="181.314" width="31.5241" height="31.5241" transform="rotate(-90 244.088 181.314)" stroke="white" stroke-opacity="0.06" stroke-width="0.630481"/>
<rect x="244.088" y="149.79" width="31.5241" height="31.5241" transform="rotate(-90 244.088 149.79)" stroke="white" stroke-opacity="0.06" stroke-width="0.630481"/>
<rect x="244.088" y="118.266" width="31.5241" height="31.5241" transform="rotate(-90 244.088 118.266)" stroke="white" stroke-opacity="0.06" stroke-width="0.630481"/>
<rect x="244.088" y="86.7418" width="31.5241" height="31.5241" transform="rotate(-90 244.088 86.7418)" stroke="white" stroke-opacity="0.06" stroke-width="0.630481"/>
<rect x="244.088" y="55.2177" width="31.5241" height="31.5241" transform="rotate(-90 244.088 55.2177)" stroke="white" stroke-opacity="0.06" stroke-width="0.630481"/>
<rect x="244.088" y="23.6936" width="31.5241" height="31.5241" transform="rotate(-90 244.088 23.6936)" stroke="white" stroke-opacity="0.06" stroke-width="0.630481"/>
<rect x="275.612" y="433.506" width="31.5241" height="31.5241" transform="rotate(-90 275.612 433.506)" stroke="white" stroke-opacity="0.06" stroke-width="0.630481"/>
<rect x="275.612" y="401.983" width="31.5241" height="31.5241" transform="rotate(-90 275.612 401.983)" stroke="white" stroke-opacity="0.06" stroke-width="0.630481"/>
<rect x="275.612" y="370.458" width="31.5241" height="31.5241" transform="rotate(-90 275.612 370.458)" stroke="white" stroke-opacity="0.06" stroke-width="0.630481"/>
<rect x="275.612" y="338.934" width="31.5241" height="31.5241" transform="rotate(-90 275.612 338.934)" stroke="white" stroke-opacity="0.06" stroke-width="0.630481"/>
<rect x="275.612" y="307.41" width="31.5241" height="31.5241" transform="rotate(-90 275.612 307.41)" stroke="white" stroke-opacity="0.06" stroke-width="0.630481"/>
<rect x="275.612" y="275.886" width="31.5241" height="31.5241" transform="rotate(-90 275.612 275.886)" stroke="white" stroke-opacity="0.06" stroke-width="0.630481"/>
<rect x="275.612" y="244.362" width="31.5241" height="31.5241" transform="rotate(-90 275.612 244.362)" stroke="white" stroke-opacity="0.06" stroke-width="0.630481"/>
<rect x="275.612" y="212.838" width="31.5241" height="31.5241" transform="rotate(-90 275.612 212.838)" stroke="white" stroke-opacity="0.06" stroke-width="0.630481"/>
<rect x="275.612" y="181.314" width="31.5241" height="31.5241" transform="rotate(-90 275.612 181.314)" stroke="white" stroke-opacity="0.06" stroke-width="0.630481"/>
<rect x="275.612" y="149.79" width="31.5241" height="31.5241" transform="rotate(-90 275.612 149.79)" stroke="white" stroke-opacity="0.06" stroke-width="0.630481"/>
<rect x="275.612" y="118.266" width="31.5241" height="31.5241" transform="rotate(-90 275.612 118.266)" stroke="white" stroke-opacity="0.06" stroke-width="0.630481"/>
<rect x="275.612" y="86.7418" width="31.5241" height="31.5241" transform="rotate(-90 275.612 86.7418)" stroke="white" stroke-opacity="0.06" stroke-width="0.630481"/>
<rect x="275.612" y="55.2177" width="31.5241" height="31.5241" transform="rotate(-90 275.612 55.2177)" stroke="white" stroke-opacity="0.06" stroke-width="0.630481"/>
<rect x="275.612" y="23.6936" width="31.5241" height="31.5241" transform="rotate(-90 275.612 23.6936)" stroke="white" stroke-opacity="0.06" stroke-width="0.630481"/>
<rect x="307.136" y="433.506" width="31.5241" height="31.5241" transform="rotate(-90 307.136 433.506)" stroke="white" stroke-opacity="0.06" stroke-width="0.630481"/>
<rect x="307.136" y="401.983" width="31.5241" height="31.5241" transform="rotate(-90 307.136 401.983)" stroke="white" stroke-opacity="0.06" stroke-width="0.630481"/>
<rect x="307.136" y="370.458" width="31.5241" height="31.5241" transform="rotate(-90 307.136 370.458)" stroke="white" stroke-opacity="0.06" stroke-width="0.630481"/>
<rect x="307.136" y="338.934" width="31.5241" height="31.5241" transform="rotate(-90 307.136 338.934)" stroke="white" stroke-opacity="0.06" stroke-width="0.630481"/>
<rect x="307.136" y="307.41" width="31.5241" height="31.5241" transform="rotate(-90 307.136 307.41)" stroke="white" stroke-opacity="0.06" stroke-width="0.630481"/>
<rect x="307.136" y="275.886" width="31.5241" height="31.5241" transform="rotate(-90 307.136 275.886)" stroke="white" stroke-opacity="0.06" stroke-width="0.630481"/>
<rect x="307.136" y="244.362" width="31.5241" height="31.5241" transform="rotate(-90 307.136 244.362)" stroke="white" stroke-opacity="0.06" stroke-width="0.630481"/>
<rect x="307.136" y="212.838" width="31.5241" height="31.5241" transform="rotate(-90 307.136 212.838)" stroke="white" stroke-opacity="0.06" stroke-width="0.630481"/>
<rect x="307.136" y="181.314" width="31.5241" height="31.5241" transform="rotate(-90 307.136 181.314)" stroke="white" stroke-opacity="0.06" stroke-width="0.630481"/>
<rect x="307.136" y="149.79" width="31.5241" height="31.5241" transform="rotate(-90 307.136 149.79)" stroke="white" stroke-opacity="0.06" stroke-width="0.630481"/>
<rect x="307.136" y="118.266" width="31.5241" height="31.5241" transform="rotate(-90 307.136 118.266)" stroke="white" stroke-opacity="0.06" stroke-width="0.630481"/>
<rect x="307.136" y="86.7418" width="31.5241" height="31.5241" transform="rotate(-90 307.136 86.7418)" stroke="white" stroke-opacity="0.06" stroke-width="0.630481"/>
<rect x="307.136" y="55.2177" width="31.5241" height="31.5241" transform="rotate(-90 307.136 55.2177)" stroke="white" stroke-opacity="0.06" stroke-width="0.630481"/>
<rect x="307.136" y="23.6936" width="31.5241" height="31.5241" transform="rotate(-90 307.136 23.6936)" stroke="white" stroke-opacity="0.06" stroke-width="0.630481"/>
<rect x="338.66" y="433.506" width="31.5241" height="31.5241" transform="rotate(-90 338.66 433.506)" stroke="white" stroke-opacity="0.06" stroke-width="0.630481"/>
<rect x="338.66" y="401.983" width="31.5241" height="31.5241" transform="rotate(-90 338.66 401.983)" stroke="white" stroke-opacity="0.06" stroke-width="0.630481"/>
<rect x="338.66" y="370.458" width="31.5241" height="31.5241" transform="rotate(-90 338.66 370.458)" stroke="white" stroke-opacity="0.06" stroke-width="0.630481"/>
<rect x="338.66" y="338.934" width="31.5241" height="31.5241" transform="rotate(-90 338.66 338.934)" stroke="white" stroke-opacity="0.06" stroke-width="0.630481"/>
<rect x="338.66" y="307.41" width="31.5241" height="31.5241" transform="rotate(-90 338.66 307.41)" stroke="white" stroke-opacity="0.06" stroke-width="0.630481"/>
<rect x="338.66" y="275.886" width="31.5241" height="31.5241" transform="rotate(-90 338.66 275.886)" stroke="white" stroke-opacity="0.06" stroke-width="0.630481"/>
<rect x="338.66" y="244.362" width="31.5241" height="31.5241" transform="rotate(-90 338.66 244.362)" stroke="white" stroke-opacity="0.06" stroke-width="0.630481"/>
<rect x="338.66" y="212.838" width="31.5241" height="31.5241" transform="rotate(-90 338.66 212.838)" stroke="white" stroke-opacity="0.06" stroke-width="0.630481"/>
<rect x="338.66" y="181.314" width="31.5241" height="31.5241" transform="rotate(-90 338.66 181.314)" stroke="white" stroke-opacity="0.06" stroke-width="0.630481"/>
<rect x="338.66" y="149.79" width="31.5241" height="31.5241" transform="rotate(-90 338.66 149.79)" stroke="white" stroke-opacity="0.06" stroke-width="0.630481"/>
<rect x="338.66" y="118.266" width="31.5241" height="31.5241" transform="rotate(-90 338.66 118.266)" stroke="white" stroke-opacity="0.06" stroke-width="0.630481"/>
<rect x="338.66" y="86.7418" width="31.5241" height="31.5241" transform="rotate(-90 338.66 86.7418)" stroke="white" stroke-opacity="0.06" stroke-width="0.630481"/>
<rect x="338.66" y="55.2177" width="31.5241" height="31.5241" transform="rotate(-90 338.66 55.2177)" stroke="white" stroke-opacity="0.06" stroke-width="0.630481"/>
<rect x="338.66" y="23.6936" width="31.5241" height="31.5241" transform="rotate(-90 338.66 23.6936)" stroke="white" stroke-opacity="0.06" stroke-width="0.630481"/>
<rect x="370.184" y="433.506" width="31.5241" height="31.5241" transform="rotate(-90 370.184 433.506)" stroke="white" stroke-opacity="0.06" stroke-width="0.630481"/>
<rect x="370.184" y="401.983" width="31.5241" height="31.5241" transform="rotate(-90 370.184 401.983)" stroke="white" stroke-opacity="0.06" stroke-width="0.630481"/>
<rect x="370.184" y="370.458" width="31.5241" height="31.5241" transform="rotate(-90 370.184 370.458)" stroke="white" stroke-opacity="0.06" stroke-width="0.630481"/>
<rect x="370.184" y="338.934" width="31.5241" height="31.5241" transform="rotate(-90 370.184 338.934)" stroke="white" stroke-opacity="0.06" stroke-width="0.630481"/>
<rect x="370.184" y="307.41" width="31.5241" height="31.5241" transform="rotate(-90 370.184 307.41)" stroke="white" stroke-opacity="0.06" stroke-width="0.630481"/>
<rect x="370.184" y="275.886" width="31.5241" height="31.5241" transform="rotate(-90 370.184 275.886)" stroke="white" stroke-opacity="0.06" stroke-width="0.630481"/>
<rect x="370.184" y="244.362" width="31.5241" height="31.5241" transform="rotate(-90 370.184 244.362)" stroke="white" stroke-opacity="0.06" stroke-width="0.630481"/>
<rect x="370.184" y="212.838" width="31.5241" height="31.5241" transform="rotate(-90 370.184 212.838)" stroke="white" stroke-opacity="0.06" stroke-width="0.630481"/>
<rect x="370.184" y="181.314" width="31.5241" height="31.5241" transform="rotate(-90 370.184 181.314)" stroke="white" stroke-opacity="0.06" stroke-width="0.630481"/>
<rect x="370.184" y="149.79" width="31.5241" height="31.5241" transform="rotate(-90 370.184 149.79)" stroke="white" stroke-opacity="0.06" stroke-width="0.630481"/>
<rect x="370.184" y="118.266" width="31.5241" height="31.5241" transform="rotate(-90 370.184 118.266)" stroke="white" stroke-opacity="0.06" stroke-width="0.630481"/>
<rect x="370.184" y="86.7418" width="31.5241" height="31.5241" transform="rotate(-90 370.184 86.7418)" stroke="white" stroke-opacity="0.06" stroke-width="0.630481"/>
<rect x="370.184" y="55.2177" width="31.5241" height="31.5241" transform="rotate(-90 370.184 55.2177)" stroke="white" stroke-opacity="0.06" stroke-width="0.630481"/>
<rect x="370.184" y="23.6936" width="31.5241" height="31.5241" transform="rotate(-90 370.184 23.6936)" stroke="white" stroke-opacity="0.06" stroke-width="0.630481"/>
<g filter="url(#filter1_f_2001_20)">
<ellipse cx="70.0003" cy="84.9962" rx="98.5918" ry="111.823" fill="#A26DFF"/>
</g>
</g>
</g>
</g>
<defs>
<filter id="filter0_d_2001_20" x="0.186375" y="0.0252426" width="406.272" height="436.95" filterUnits="userSpaceOnUse" color-interpolation-filters="sRGB">
<feFlood flood-opacity="0" result="BackgroundImageFix"/>
<feColorMatrix in="SourceAlpha" type="matrix" values="0 0 0 0 0 0 0 0 0 0 0 0 0 0 0 0 0 0 127 0" result="hardAlpha"/>
<feMorphology radius="1.65825" operator="dilate" in="SourceAlpha" result="effect1_dropShadow_2001_20"/>
<feOffset/>
<feGaussianBlur stdDeviation="1.65825"/>
<feComposite in2="hardAlpha" operator="out"/>
<feColorMatrix type="matrix" values="0 0 0 0 0.635929 0 0 0 0 0.426053 0 0 0 0 1 0 0 0 0.25 0"/>
<feBlend mode="normal" in2="BackgroundImageFix" result="effect1_dropShadow_2001_20"/>
<feBlend mode="normal" in="SourceGraphic" in2="effect1_dropShadow_2001_20" result="shape"/>
</filter>
<filter id="filter1_f_2001_20" x="-327.355" y="-325.59" width="794.71" height="821.172" filterUnits="userSpaceOnUse" color-interpolation-filters="sRGB">
<feFlood flood-opacity="0" result="BackgroundImageFix"/>
<feBlend mode="normal" in="SourceGraphic" in2="BackgroundImageFix" result="shape"/>
<feGaussianBlur stdDeviation="149.382" result="effect1_foregroundBlur_2001_20"/>
</filter>
<clipPath id="clip0_2001_20">
<rect x="5.16113" y="5" width="396.322" height="427" rx="16.5825" fill="white"/>
</clipPath>
<clipPath id="clip1_2001_20">
<rect width="662.005" height="423.683" fill="white" transform="matrix(0 -1 1 0 -8.10489 559.603)"/>
</clipPath>
</defs>
</svg>
