<svg width="16" height="17" viewBox="0 0 16 17" fill="none" xmlns="http://www.w3.org/2000/svg">
<path d="M8.5 8V14C8.5 14.1326 8.44732 14.2598 8.35355 14.3536C8.25979 14.4473 8.13261 14.5 8 14.5C7.86739 14.5 7.74021 14.4473 7.64645 14.3536C7.55268 14.2598 7.5 14.1326 7.5 14V8C7.5 7.86739 7.55268 7.74021 7.64645 7.64645C7.74021 7.55268 7.86739 7.5 8 7.5C8.13261 7.5 8.25979 7.55268 8.35355 7.64645C8.44732 7.74021 8.5 7.86739 8.5 8ZM12.5 12.5C12.3674 12.5 12.2402 12.5527 12.1464 12.6464C12.0527 12.7402 12 12.8674 12 13V14C12 14.1326 12.0527 14.2598 12.1464 14.3536C12.2402 14.4473 12.3674 14.5 12.5 14.5C12.6326 14.5 12.7598 14.4473 12.8536 14.3536C12.9473 14.2598 13 14.1326 13 14V13C13 12.8674 12.9473 12.7402 12.8536 12.6464C12.7598 12.5527 12.6326 12.5 12.5 12.5ZM14 10.5H13V3C13 2.86739 12.9473 2.74021 12.8536 2.64645C12.7598 2.55268 12.6326 2.5 12.5 2.5C12.3674 2.5 12.2402 2.55268 12.1464 2.64645C12.0527 2.74021 12 2.86739 12 3V10.5H11C10.8674 10.5 10.7402 10.5527 10.6464 10.6464C10.5527 10.7402 10.5 10.8674 10.5 11C10.5 11.1326 10.5527 11.2598 10.6464 11.3536C10.7402 11.4473 10.8674 11.5 11 11.5H14C14.1326 11.5 14.2598 11.4473 14.3536 11.3536C14.4473 11.2598 14.5 11.1326 14.5 11C14.5 10.8674 14.4473 10.7402 14.3536 10.6464C14.2598 10.5527 14.1326 10.5 14 10.5ZM3.5 10.5C3.36739 10.5 3.24021 10.5527 3.14645 10.6464C3.05268 10.7402 3 10.8674 3 11V14C3 14.1326 3.05268 14.2598 3.14645 14.3536C3.24021 14.4473 3.36739 14.5 3.5 14.5C3.63261 14.5 3.75979 14.4473 3.85355 14.3536C3.94732 14.2598 4 14.1326 4 14V11C4 10.8674 3.94732 10.7402 3.85355 10.6464C3.75979 10.5527 3.63261 10.5 3.5 10.5ZM5 8.5H4V3C4 2.86739 3.94732 2.74021 3.85355 2.64645C3.75979 2.55268 3.63261 2.5 3.5 2.5C3.36739 2.5 3.24021 2.55268 3.14645 2.64645C3.05268 2.74021 3 2.86739 3 3V8.5H2C1.86739 8.5 1.74021 8.55268 1.64645 8.64645C1.55268 8.74021 1.5 8.86739 1.5 9C1.5 9.13261 1.55268 9.25979 1.64645 9.35355C1.74021 9.44732 1.86739 9.5 2 9.5H5C5.13261 9.5 5.25979 9.44732 5.35355 9.35355C5.44732 9.25979 5.5 9.13261 5.5 9C5.5 8.86739 5.44732 8.74021 5.35355 8.64645C5.25979 8.55268 5.13261 8.5 5 8.5ZM9.5 5.5H8.5V3C8.5 2.86739 8.44732 2.74021 8.35355 2.64645C8.25979 2.55268 8.13261 2.5 8 2.5C7.86739 2.5 7.74021 2.55268 7.64645 2.64645C7.55268 2.74021 7.5 2.86739 7.5 3V5.5H6.5C6.36739 5.5 6.24021 5.55268 6.14645 5.64645C6.05268 5.74021 6 5.86739 6 6C6 6.13261 6.05268 6.25979 6.14645 6.35355C6.24021 6.44732 6.36739 6.5 6.5 6.5H9.5C9.63261 6.5 9.75979 6.44732 9.85355 6.35355C9.94732 6.25979 10 6.13261 10 6C10 5.86739 9.94732 5.74021 9.85355 5.64645C9.75979 5.55268 9.63261 5.5 9.5 5.5Z" fill="#D4D4D4"/>
</svg>
