<svg width="1483" height="950" viewBox="0 0 1483 950" fill="none" xmlns="http://www.w3.org/2000/svg">
<g clip-path="url(#clip0_362_1690)">
<rect width="70.619" height="70.619" stroke="white" stroke-opacity="0.06" stroke-width="1.41238"/>
<rect x="70.6191" width="70.619" height="70.619" stroke="white" stroke-opacity="0.06" stroke-width="1.41238"/>
<rect x="141.238" width="70.619" height="70.619" stroke="white" stroke-opacity="0.06" stroke-width="1.41238"/>
<rect x="211.857" width="70.619" height="70.619" stroke="white" stroke-opacity="0.06" stroke-width="1.41238"/>
<rect x="282.476" width="70.619" height="70.619" stroke="white" stroke-opacity="0.06" stroke-width="1.41238"/>
<rect x="353.095" width="70.619" height="70.619" stroke="white" stroke-opacity="0.06" stroke-width="1.41238"/>
<rect x="423.714" width="70.619" height="70.619" stroke="white" stroke-opacity="0.06" stroke-width="1.41238"/>
<rect x="494.333" width="70.619" height="70.619" stroke="white" stroke-opacity="0.06" stroke-width="1.41238"/>
<rect x="564.952" width="70.619" height="70.619" stroke="white" stroke-opacity="0.06" stroke-width="1.41238"/>
<rect x="635.571" width="70.619" height="70.619" stroke="white" stroke-opacity="0.06" stroke-width="1.41238"/>
<rect x="706.19" width="70.619" height="70.619" stroke="white" stroke-opacity="0.06" stroke-width="1.41238"/>
<rect x="776.81" width="70.619" height="70.619" stroke="white" stroke-opacity="0.06" stroke-width="1.41238"/>
<rect x="847.429" width="70.619" height="70.619" stroke="white" stroke-opacity="0.06" stroke-width="1.41238"/>
<rect x="918.048" width="70.619" height="70.619" stroke="white" stroke-opacity="0.06" stroke-width="1.41238"/>
<rect x="988.667" width="70.619" height="70.619" stroke="white" stroke-opacity="0.06" stroke-width="1.41238"/>
<rect x="1059.29" width="70.619" height="70.619" stroke="white" stroke-opacity="0.06" stroke-width="1.41238"/>
<rect x="1129.9" width="70.619" height="70.619" stroke="white" stroke-opacity="0.06" stroke-width="1.41238"/>
<rect x="1200.52" width="70.619" height="70.619" stroke="white" stroke-opacity="0.06" stroke-width="1.41238"/>
<rect x="1271.14" width="70.619" height="70.619" stroke="white" stroke-opacity="0.06" stroke-width="1.41238"/>
<rect x="1341.76" width="70.619" height="70.619" stroke="white" stroke-opacity="0.06" stroke-width="1.41238"/>
<rect x="1412.38" width="70.619" height="70.619" stroke="white" stroke-opacity="0.06" stroke-width="1.41238"/>
<rect y="70.619" width="70.619" height="70.619" stroke="white" stroke-opacity="0.06" stroke-width="1.41238"/>
<rect x="70.6191" y="70.619" width="70.619" height="70.619" stroke="white" stroke-opacity="0.06" stroke-width="1.41238"/>
<rect x="141.238" y="70.619" width="70.619" height="70.619" fill="white" fill-opacity="0.05" stroke="white" stroke-opacity="0.06" stroke-width="1.41238"/>
<rect x="211.857" y="70.619" width="70.619" height="70.619" stroke="white" stroke-opacity="0.06" stroke-width="1.41238"/>
<rect x="282.476" y="70.619" width="70.619" height="70.619" stroke="white" stroke-opacity="0.06" stroke-width="1.41238"/>
<rect x="353.095" y="70.619" width="70.619" height="70.619" stroke="white" stroke-opacity="0.06" stroke-width="1.41238"/>
<rect x="423.714" y="70.619" width="70.619" height="70.619" stroke="white" stroke-opacity="0.06" stroke-width="1.41238"/>
<rect x="494.333" y="70.619" width="70.619" height="70.619" stroke="white" stroke-opacity="0.06" stroke-width="1.41238"/>
<rect x="564.952" y="70.619" width="70.619" height="70.619" stroke="white" stroke-opacity="0.06" stroke-width="1.41238"/>
<rect x="635.571" y="70.619" width="70.619" height="70.619" fill="white" fill-opacity="0.05" stroke="white" stroke-opacity="0.06" stroke-width="1.41238"/>
<rect x="706.19" y="70.619" width="70.619" height="70.619" stroke="white" stroke-opacity="0.06" stroke-width="1.41238"/>
<rect x="776.81" y="70.619" width="70.619" height="70.619" stroke="white" stroke-opacity="0.06" stroke-width="1.41238"/>
<rect x="847.429" y="70.619" width="70.619" height="70.619" stroke="white" stroke-opacity="0.06" stroke-width="1.41238"/>
<rect x="918.048" y="70.619" width="70.619" height="70.619" stroke="white" stroke-opacity="0.06" stroke-width="1.41238"/>
<rect x="988.667" y="70.619" width="70.619" height="70.619" stroke="white" stroke-opacity="0.06" stroke-width="1.41238"/>
<rect x="1059.29" y="70.619" width="70.619" height="70.619" stroke="white" stroke-opacity="0.06" stroke-width="1.41238"/>
<rect x="1129.9" y="70.619" width="70.619" height="70.619" stroke="white" stroke-opacity="0.06" stroke-width="1.41238"/>
<rect x="1200.52" y="70.619" width="70.619" height="70.619" stroke="white" stroke-opacity="0.06" stroke-width="1.41238"/>
<rect x="1271.14" y="70.619" width="70.619" height="70.619" stroke="white" stroke-opacity="0.06" stroke-width="1.41238"/>
<rect x="1341.76" y="70.619" width="70.619" height="70.619" stroke="white" stroke-opacity="0.06" stroke-width="1.41238"/>
<rect x="1412.38" y="70.619" width="70.619" height="70.619" stroke="white" stroke-opacity="0.06" stroke-width="1.41238"/>
<rect y="141.238" width="70.619" height="70.619" stroke="white" stroke-opacity="0.06" stroke-width="1.41238"/>
<rect x="70.6191" y="141.238" width="70.619" height="70.619" stroke="white" stroke-opacity="0.06" stroke-width="1.41238"/>
<rect x="141.238" y="141.238" width="70.619" height="70.619" stroke="white" stroke-opacity="0.06" stroke-width="1.41238"/>
<rect x="211.857" y="141.238" width="70.619" height="70.619" stroke="white" stroke-opacity="0.06" stroke-width="1.41238"/>
<rect x="282.476" y="141.238" width="70.619" height="70.619" stroke="white" stroke-opacity="0.06" stroke-width="1.41238"/>
<rect x="353.095" y="141.238" width="70.619" height="70.619" stroke="white" stroke-opacity="0.06" stroke-width="1.41238"/>
<rect x="423.714" y="141.238" width="70.619" height="70.619" stroke="white" stroke-opacity="0.06" stroke-width="1.41238"/>
<rect x="494.333" y="141.238" width="70.619" height="70.619" stroke="white" stroke-opacity="0.06" stroke-width="1.41238"/>
<rect x="564.952" y="141.238" width="70.619" height="70.619" stroke="white" stroke-opacity="0.06" stroke-width="1.41238"/>
<rect x="635.571" y="141.238" width="70.619" height="70.619" stroke="white" stroke-opacity="0.06" stroke-width="1.41238"/>
<rect x="706.19" y="141.238" width="70.619" height="70.619" stroke="white" stroke-opacity="0.06" stroke-width="1.41238"/>
<rect x="776.81" y="141.238" width="70.619" height="70.619" stroke="white" stroke-opacity="0.06" stroke-width="1.41238"/>
<rect x="847.429" y="141.238" width="70.619" height="70.619" stroke="white" stroke-opacity="0.06" stroke-width="1.41238"/>
<rect x="918.048" y="141.238" width="70.619" height="70.619" stroke="white" stroke-opacity="0.06" stroke-width="1.41238"/>
<rect x="988.667" y="141.238" width="70.619" height="70.619" stroke="white" stroke-opacity="0.06" stroke-width="1.41238"/>
<rect x="1059.29" y="141.238" width="70.619" height="70.619" stroke="white" stroke-opacity="0.06" stroke-width="1.41238"/>
<rect x="1129.9" y="141.238" width="70.619" height="70.619" fill="white" fill-opacity="0.05" stroke="white" stroke-opacity="0.06" stroke-width="1.41238"/>
<rect x="1200.52" y="141.238" width="70.619" height="70.619" stroke="white" stroke-opacity="0.06" stroke-width="1.41238"/>
<rect x="1271.14" y="141.238" width="70.619" height="70.619" stroke="white" stroke-opacity="0.06" stroke-width="1.41238"/>
<rect x="1341.76" y="141.238" width="70.619" height="70.619" stroke="white" stroke-opacity="0.06" stroke-width="1.41238"/>
<rect x="1412.38" y="141.238" width="70.619" height="70.619" stroke="white" stroke-opacity="0.06" stroke-width="1.41238"/>
<rect y="211.857" width="70.619" height="70.619" stroke="white" stroke-opacity="0.06" stroke-width="1.41238"/>
<rect x="70.6191" y="211.857" width="70.619" height="70.619" stroke="white" stroke-opacity="0.06" stroke-width="1.41238"/>
<rect x="141.238" y="211.857" width="70.619" height="70.619" stroke="white" stroke-opacity="0.06" stroke-width="1.41238"/>
<rect x="211.857" y="211.857" width="70.619" height="70.619" stroke="white" stroke-opacity="0.06" stroke-width="1.41238"/>
<rect x="282.476" y="211.857" width="70.619" height="70.619" stroke="white" stroke-opacity="0.06" stroke-width="1.41238"/>
<rect x="353.095" y="211.857" width="70.619" height="70.619" stroke="white" stroke-opacity="0.06" stroke-width="1.41238"/>
<rect x="423.714" y="211.857" width="70.619" height="70.619" stroke="white" stroke-opacity="0.06" stroke-width="1.41238"/>
<rect x="494.333" y="211.857" width="70.619" height="70.619" stroke="white" stroke-opacity="0.06" stroke-width="1.41238"/>
<rect x="564.952" y="211.857" width="70.619" height="70.619" stroke="white" stroke-opacity="0.06" stroke-width="1.41238"/>
<rect x="635.571" y="211.857" width="70.619" height="70.619" stroke="white" stroke-opacity="0.06" stroke-width="1.41238"/>
<rect x="706.19" y="211.857" width="70.619" height="70.619" stroke="white" stroke-opacity="0.06" stroke-width="1.41238"/>
<rect x="776.81" y="211.857" width="70.619" height="70.619" stroke="white" stroke-opacity="0.06" stroke-width="1.41238"/>
<rect x="847.429" y="211.857" width="70.619" height="70.619" stroke="white" stroke-opacity="0.06" stroke-width="1.41238"/>
<rect x="918.048" y="211.857" width="70.619" height="70.619" stroke="white" stroke-opacity="0.06" stroke-width="1.41238"/>
<rect x="988.667" y="211.857" width="70.619" height="70.619" stroke="white" stroke-opacity="0.06" stroke-width="1.41238"/>
<rect x="1059.29" y="211.857" width="70.619" height="70.619" stroke="white" stroke-opacity="0.06" stroke-width="1.41238"/>
<rect x="1129.9" y="211.857" width="70.619" height="70.619" stroke="white" stroke-opacity="0.06" stroke-width="1.41238"/>
<rect x="1200.52" y="211.857" width="70.619" height="70.619" stroke="white" stroke-opacity="0.06" stroke-width="1.41238"/>
<rect x="1271.14" y="211.857" width="70.619" height="70.619" stroke="white" stroke-opacity="0.06" stroke-width="1.41238"/>
<rect x="1341.76" y="211.857" width="70.619" height="70.619" stroke="white" stroke-opacity="0.06" stroke-width="1.41238"/>
<rect x="1412.38" y="211.857" width="70.619" height="70.619" stroke="white" stroke-opacity="0.06" stroke-width="1.41238"/>
<rect y="282.476" width="70.619" height="70.619" stroke="white" stroke-opacity="0.06" stroke-width="1.41238"/>
<rect x="70.6191" y="282.476" width="70.619" height="70.619" stroke="white" stroke-opacity="0.06" stroke-width="1.41238"/>
<rect x="141.238" y="282.476" width="70.619" height="70.619" stroke="white" stroke-opacity="0.06" stroke-width="1.41238"/>
<rect x="211.857" y="282.476" width="70.619" height="70.619" fill="white" fill-opacity="0.05" stroke="white" stroke-opacity="0.06" stroke-width="1.41238"/>
<rect x="282.476" y="282.476" width="70.619" height="70.619" stroke="white" stroke-opacity="0.06" stroke-width="1.41238"/>
<rect x="353.095" y="282.476" width="70.619" height="70.619" stroke="white" stroke-opacity="0.06" stroke-width="1.41238"/>
<rect x="423.714" y="282.476" width="70.619" height="70.619" stroke="white" stroke-opacity="0.06" stroke-width="1.41238"/>
<rect x="494.333" y="282.476" width="70.619" height="70.619" stroke="white" stroke-opacity="0.06" stroke-width="1.41238"/>
<rect x="564.952" y="282.476" width="70.619" height="70.619" stroke="white" stroke-opacity="0.06" stroke-width="1.41238"/>
<rect x="635.571" y="282.476" width="70.619" height="70.619" stroke="white" stroke-opacity="0.06" stroke-width="1.41238"/>
<rect x="706.19" y="282.476" width="70.619" height="70.619" stroke="white" stroke-opacity="0.06" stroke-width="1.41238"/>
<rect x="776.81" y="282.476" width="70.619" height="70.619" stroke="white" stroke-opacity="0.06" stroke-width="1.41238"/>
<rect x="847.429" y="282.476" width="70.619" height="70.619" fill="white" fill-opacity="0.05" stroke="white" stroke-opacity="0.06" stroke-width="1.41238"/>
<rect x="918.048" y="282.476" width="70.619" height="70.619" stroke="white" stroke-opacity="0.06" stroke-width="1.41238"/>
<rect x="988.667" y="282.476" width="70.619" height="70.619" stroke="white" stroke-opacity="0.06" stroke-width="1.41238"/>
<rect x="1059.29" y="282.476" width="70.619" height="70.619" stroke="white" stroke-opacity="0.06" stroke-width="1.41238"/>
<rect x="1129.9" y="282.476" width="70.619" height="70.619" stroke="white" stroke-opacity="0.06" stroke-width="1.41238"/>
<rect x="1200.52" y="282.476" width="70.619" height="70.619" stroke="white" stroke-opacity="0.06" stroke-width="1.41238"/>
<rect x="1271.14" y="282.476" width="70.619" height="70.619" stroke="white" stroke-opacity="0.06" stroke-width="1.41238"/>
<rect x="1341.76" y="282.476" width="70.619" height="70.619" stroke="white" stroke-opacity="0.06" stroke-width="1.41238"/>
<rect x="1412.38" y="282.476" width="70.619" height="70.619" stroke="white" stroke-opacity="0.06" stroke-width="1.41238"/>
<rect y="353.095" width="70.619" height="70.619" stroke="white" stroke-opacity="0.06" stroke-width="1.41238"/>
<rect x="70.6191" y="353.095" width="70.619" height="70.619" stroke="white" stroke-opacity="0.06" stroke-width="1.41238"/>
<rect x="141.238" y="353.095" width="70.619" height="70.619" stroke="white" stroke-opacity="0.06" stroke-width="1.41238"/>
<rect x="211.857" y="353.095" width="70.619" height="70.619" stroke="white" stroke-opacity="0.06" stroke-width="1.41238"/>
<rect x="282.476" y="353.095" width="70.619" height="70.619" stroke="white" stroke-opacity="0.06" stroke-width="1.41238"/>
<rect x="353.095" y="353.095" width="70.619" height="70.619" stroke="white" stroke-opacity="0.06" stroke-width="1.41238"/>
<rect x="423.714" y="353.095" width="70.619" height="70.619" stroke="white" stroke-opacity="0.06" stroke-width="1.41238"/>
<rect x="494.333" y="353.095" width="70.619" height="70.619" stroke="white" stroke-opacity="0.06" stroke-width="1.41238"/>
<rect x="564.952" y="353.095" width="70.619" height="70.619" stroke="white" stroke-opacity="0.06" stroke-width="1.41238"/>
<rect x="635.571" y="353.095" width="70.619" height="70.619" stroke="white" stroke-opacity="0.06" stroke-width="1.41238"/>
<rect x="706.19" y="353.095" width="70.619" height="70.619" stroke="white" stroke-opacity="0.06" stroke-width="1.41238"/>
<rect x="776.81" y="353.095" width="70.619" height="70.619" stroke="white" stroke-opacity="0.06" stroke-width="1.41238"/>
<rect x="847.429" y="353.095" width="70.619" height="70.619" stroke="white" stroke-opacity="0.06" stroke-width="1.41238"/>
<rect x="918.048" y="353.095" width="70.619" height="70.619" stroke="white" stroke-opacity="0.06" stroke-width="1.41238"/>
<rect x="988.667" y="353.095" width="70.619" height="70.619" stroke="white" stroke-opacity="0.06" stroke-width="1.41238"/>
<rect x="1059.29" y="353.095" width="70.619" height="70.619" stroke="white" stroke-opacity="0.06" stroke-width="1.41238"/>
<rect x="1129.9" y="353.095" width="70.619" height="70.619" stroke="white" stroke-opacity="0.06" stroke-width="1.41238"/>
<rect x="1200.52" y="353.095" width="70.619" height="70.619" stroke="white" stroke-opacity="0.06" stroke-width="1.41238"/>
<rect x="1271.14" y="353.095" width="70.619" height="70.619" fill="white" fill-opacity="0.05" stroke="white" stroke-opacity="0.06" stroke-width="1.41238"/>
<rect x="1341.76" y="353.095" width="70.619" height="70.619" stroke="white" stroke-opacity="0.06" stroke-width="1.41238"/>
<rect x="1412.38" y="353.095" width="70.619" height="70.619" stroke="white" stroke-opacity="0.06" stroke-width="1.41238"/>
<rect y="423.714" width="70.619" height="70.619" stroke="white" stroke-opacity="0.06" stroke-width="1.41238"/>
<rect x="70.6191" y="423.714" width="70.619" height="70.619" stroke="white" stroke-opacity="0.06" stroke-width="1.41238"/>
<rect x="141.238" y="423.714" width="70.619" height="70.619" stroke="white" stroke-opacity="0.06" stroke-width="1.41238"/>
<rect x="211.857" y="423.714" width="70.619" height="70.619" stroke="white" stroke-opacity="0.06" stroke-width="1.41238"/>
<rect x="282.476" y="423.714" width="70.619" height="70.619" stroke="white" stroke-opacity="0.06" stroke-width="1.41238"/>
<rect x="353.095" y="423.714" width="70.619" height="70.619" stroke="white" stroke-opacity="0.06" stroke-width="1.41238"/>
<rect x="423.714" y="423.714" width="70.619" height="70.619" stroke="white" stroke-opacity="0.06" stroke-width="1.41238"/>
<rect x="494.333" y="423.714" width="70.619" height="70.619" stroke="white" stroke-opacity="0.06" stroke-width="1.41238"/>
<rect x="564.952" y="423.714" width="70.619" height="70.619" stroke="white" stroke-opacity="0.06" stroke-width="1.41238"/>
<rect x="635.571" y="423.714" width="70.619" height="70.619" stroke="white" stroke-opacity="0.06" stroke-width="1.41238"/>
<rect x="706.19" y="423.714" width="70.619" height="70.619" stroke="white" stroke-opacity="0.06" stroke-width="1.41238"/>
<rect x="776.81" y="423.714" width="70.619" height="70.619" stroke="white" stroke-opacity="0.06" stroke-width="1.41238"/>
<rect x="847.429" y="423.714" width="70.619" height="70.619" stroke="white" stroke-opacity="0.06" stroke-width="1.41238"/>
<rect x="918.048" y="423.714" width="70.619" height="70.619" stroke="white" stroke-opacity="0.06" stroke-width="1.41238"/>
<rect x="988.667" y="423.714" width="70.619" height="70.619" stroke="white" stroke-opacity="0.06" stroke-width="1.41238"/>
<rect x="1059.29" y="423.714" width="70.619" height="70.619" stroke="white" stroke-opacity="0.06" stroke-width="1.41238"/>
<rect x="1129.9" y="423.714" width="70.619" height="70.619" stroke="white" stroke-opacity="0.06" stroke-width="1.41238"/>
<rect x="1200.52" y="423.714" width="70.619" height="70.619" stroke="white" stroke-opacity="0.06" stroke-width="1.41238"/>
<rect x="1271.14" y="423.714" width="70.619" height="70.619" stroke="white" stroke-opacity="0.06" stroke-width="1.41238"/>
<rect x="1341.76" y="423.714" width="70.619" height="70.619" stroke="white" stroke-opacity="0.06" stroke-width="1.41238"/>
<rect x="1412.38" y="423.714" width="70.619" height="70.619" stroke="white" stroke-opacity="0.06" stroke-width="1.41238"/>
<rect y="494.333" width="70.619" height="70.619" stroke="white" stroke-opacity="0.06" stroke-width="1.41238"/>
<rect x="70.6191" y="494.333" width="70.619" height="70.619" stroke="white" stroke-opacity="0.06" stroke-width="1.41238"/>
<rect x="141.238" y="494.333" width="70.619" height="70.619" stroke="white" stroke-opacity="0.06" stroke-width="1.41238"/>
<rect x="211.857" y="494.333" width="70.619" height="70.619" stroke="white" stroke-opacity="0.06" stroke-width="1.41238"/>
<rect x="282.476" y="494.333" width="70.619" height="70.619" stroke="white" stroke-opacity="0.06" stroke-width="1.41238"/>
<rect x="353.095" y="494.333" width="70.619" height="70.619" stroke="white" stroke-opacity="0.06" stroke-width="1.41238"/>
<rect x="423.714" y="494.333" width="70.619" height="70.619" stroke="white" stroke-opacity="0.06" stroke-width="1.41238"/>
<rect x="494.333" y="494.333" width="70.619" height="70.619" stroke="white" stroke-opacity="0.06" stroke-width="1.41238"/>
<rect x="564.952" y="494.333" width="70.619" height="70.619" fill="white" fill-opacity="0.05" stroke="white" stroke-opacity="0.06" stroke-width="1.41238"/>
<rect x="635.571" y="494.333" width="70.619" height="70.619" stroke="white" stroke-opacity="0.06" stroke-width="1.41238"/>
<rect x="706.19" y="494.333" width="70.619" height="70.619" stroke="white" stroke-opacity="0.06" stroke-width="1.41238"/>
<rect x="776.81" y="494.333" width="70.619" height="70.619" stroke="white" stroke-opacity="0.06" stroke-width="1.41238"/>
<rect x="847.429" y="494.333" width="70.619" height="70.619" stroke="white" stroke-opacity="0.06" stroke-width="1.41238"/>
<rect x="918.048" y="494.333" width="70.619" height="70.619" stroke="white" stroke-opacity="0.06" stroke-width="1.41238"/>
<rect x="988.667" y="494.333" width="70.619" height="70.619" stroke="white" stroke-opacity="0.06" stroke-width="1.41238"/>
<rect x="1059.29" y="494.333" width="70.619" height="70.619" stroke="white" stroke-opacity="0.06" stroke-width="1.41238"/>
<rect x="1129.9" y="494.333" width="70.619" height="70.619" stroke="white" stroke-opacity="0.06" stroke-width="1.41238"/>
<rect x="1200.52" y="494.333" width="70.619" height="70.619" stroke="white" stroke-opacity="0.06" stroke-width="1.41238"/>
<rect x="1271.14" y="494.333" width="70.619" height="70.619" stroke="white" stroke-opacity="0.06" stroke-width="1.41238"/>
<rect x="1341.76" y="494.333" width="70.619" height="70.619" stroke="white" stroke-opacity="0.06" stroke-width="1.41238"/>
<rect x="1412.38" y="494.333" width="70.619" height="70.619" stroke="white" stroke-opacity="0.06" stroke-width="1.41238"/>
<rect y="564.952" width="70.619" height="70.619" stroke="white" stroke-opacity="0.06" stroke-width="1.41238"/>
<rect x="70.6191" y="564.952" width="70.619" height="70.619" stroke="white" stroke-opacity="0.06" stroke-width="1.41238"/>
<rect x="141.238" y="564.952" width="70.619" height="70.619" stroke="white" stroke-opacity="0.06" stroke-width="1.41238"/>
<rect x="211.857" y="564.952" width="70.619" height="70.619" stroke="white" stroke-opacity="0.06" stroke-width="1.41238"/>
<rect x="282.476" y="564.952" width="70.619" height="70.619" fill="white" fill-opacity="0.05" stroke="white" stroke-opacity="0.06" stroke-width="1.41238"/>
<rect x="353.095" y="564.952" width="70.619" height="70.619" stroke="white" stroke-opacity="0.06" stroke-width="1.41238"/>
<rect x="423.714" y="564.952" width="70.619" height="70.619" stroke="white" stroke-opacity="0.06" stroke-width="1.41238"/>
<rect x="494.333" y="564.952" width="70.619" height="70.619" stroke="white" stroke-opacity="0.06" stroke-width="1.41238"/>
<rect x="564.952" y="564.952" width="70.619" height="70.619" stroke="white" stroke-opacity="0.06" stroke-width="1.41238"/>
<rect x="635.571" y="564.952" width="70.619" height="70.619" stroke="white" stroke-opacity="0.06" stroke-width="1.41238"/>
<rect x="706.19" y="564.952" width="70.619" height="70.619" stroke="white" stroke-opacity="0.06" stroke-width="1.41238"/>
<rect x="776.81" y="564.952" width="70.619" height="70.619" stroke="white" stroke-opacity="0.06" stroke-width="1.41238"/>
<rect x="847.429" y="564.952" width="70.619" height="70.619" stroke="white" stroke-opacity="0.06" stroke-width="1.41238"/>
<rect x="918.048" y="564.952" width="70.619" height="70.619" stroke="white" stroke-opacity="0.06" stroke-width="1.41238"/>
<rect x="988.667" y="564.952" width="70.619" height="70.619" stroke="white" stroke-opacity="0.06" stroke-width="1.41238"/>
<rect x="1059.29" y="564.952" width="70.619" height="70.619" stroke="white" stroke-opacity="0.06" stroke-width="1.41238"/>
<rect x="1129.9" y="564.952" width="70.619" height="70.619" stroke="white" stroke-opacity="0.06" stroke-width="1.41238"/>
<rect x="1200.52" y="564.952" width="70.619" height="70.619" stroke="white" stroke-opacity="0.06" stroke-width="1.41238"/>
<rect x="1271.14" y="564.952" width="70.619" height="70.619" stroke="white" stroke-opacity="0.06" stroke-width="1.41238"/>
<rect x="1341.76" y="564.952" width="70.619" height="70.619" stroke="white" stroke-opacity="0.06" stroke-width="1.41238"/>
<rect x="1412.38" y="564.952" width="70.619" height="70.619" stroke="white" stroke-opacity="0.06" stroke-width="1.41238"/>
<rect y="635.571" width="70.619" height="70.619" stroke="white" stroke-opacity="0.06" stroke-width="1.41238"/>
<rect x="70.6191" y="635.571" width="70.619" height="70.619" stroke="white" stroke-opacity="0.06" stroke-width="1.41238"/>
<rect x="141.238" y="635.571" width="70.619" height="70.619" stroke="white" stroke-opacity="0.06" stroke-width="1.41238"/>
<rect x="211.857" y="635.571" width="70.619" height="70.619" stroke="white" stroke-opacity="0.06" stroke-width="1.41238"/>
<rect x="282.476" y="635.571" width="70.619" height="70.619" stroke="white" stroke-opacity="0.06" stroke-width="1.41238"/>
<rect x="353.095" y="635.571" width="70.619" height="70.619" stroke="white" stroke-opacity="0.06" stroke-width="1.41238"/>
<rect x="423.714" y="635.571" width="70.619" height="70.619" stroke="white" stroke-opacity="0.06" stroke-width="1.41238"/>
<rect x="494.333" y="635.571" width="70.619" height="70.619" stroke="white" stroke-opacity="0.06" stroke-width="1.41238"/>
<rect x="564.952" y="635.571" width="70.619" height="70.619" stroke="white" stroke-opacity="0.06" stroke-width="1.41238"/>
<rect x="635.571" y="635.571" width="70.619" height="70.619" stroke="white" stroke-opacity="0.06" stroke-width="1.41238"/>
<rect x="706.19" y="635.571" width="70.619" height="70.619" stroke="white" stroke-opacity="0.06" stroke-width="1.41238"/>
<rect x="776.81" y="635.571" width="70.619" height="70.619" stroke="white" stroke-opacity="0.06" stroke-width="1.41238"/>
<rect x="847.429" y="635.571" width="70.619" height="70.619" stroke="white" stroke-opacity="0.06" stroke-width="1.41238"/>
<rect x="918.048" y="635.571" width="70.619" height="70.619" stroke="white" stroke-opacity="0.06" stroke-width="1.41238"/>
<rect x="988.667" y="635.571" width="70.619" height="70.619" stroke="white" stroke-opacity="0.06" stroke-width="1.41238"/>
<rect x="1059.29" y="635.571" width="70.619" height="70.619" stroke="white" stroke-opacity="0.06" stroke-width="1.41238"/>
<rect x="1129.9" y="635.571" width="70.619" height="70.619" stroke="white" stroke-opacity="0.06" stroke-width="1.41238"/>
<rect x="1200.52" y="635.571" width="70.619" height="70.619" stroke="white" stroke-opacity="0.06" stroke-width="1.41238"/>
<rect x="1271.14" y="635.571" width="70.619" height="70.619" stroke="white" stroke-opacity="0.06" stroke-width="1.41238"/>
<rect x="1341.76" y="635.571" width="70.619" height="70.619" stroke="white" stroke-opacity="0.06" stroke-width="1.41238"/>
<rect x="1412.38" y="635.571" width="70.619" height="70.619" stroke="white" stroke-opacity="0.06" stroke-width="1.41238"/>
<rect y="706.19" width="70.619" height="70.619" stroke="white" stroke-opacity="0.06" stroke-width="1.41238"/>
<rect x="70.6191" y="706.19" width="70.619" height="70.619" stroke="white" stroke-opacity="0.06" stroke-width="1.41238"/>
<rect x="141.238" y="706.19" width="70.619" height="70.619" stroke="white" stroke-opacity="0.06" stroke-width="1.41238"/>
<rect x="211.857" y="706.19" width="70.619" height="70.619" stroke="white" stroke-opacity="0.06" stroke-width="1.41238"/>
<rect x="282.476" y="706.19" width="70.619" height="70.619" stroke="white" stroke-opacity="0.06" stroke-width="1.41238"/>
<rect x="353.095" y="706.19" width="70.619" height="70.619" stroke="white" stroke-opacity="0.06" stroke-width="1.41238"/>
<rect x="423.714" y="706.19" width="70.619" height="70.619" stroke="white" stroke-opacity="0.06" stroke-width="1.41238"/>
<rect x="494.333" y="706.19" width="70.619" height="70.619" stroke="white" stroke-opacity="0.06" stroke-width="1.41238"/>
<rect x="564.952" y="706.19" width="70.619" height="70.619" stroke="white" stroke-opacity="0.06" stroke-width="1.41238"/>
<rect x="635.571" y="706.19" width="70.619" height="70.619" stroke="white" stroke-opacity="0.06" stroke-width="1.41238"/>
<rect x="706.19" y="706.19" width="70.619" height="70.619" stroke="white" stroke-opacity="0.06" stroke-width="1.41238"/>
<rect x="776.81" y="706.19" width="70.619" height="70.619" stroke="white" stroke-opacity="0.06" stroke-width="1.41238"/>
<rect x="847.429" y="706.19" width="70.619" height="70.619" stroke="white" stroke-opacity="0.06" stroke-width="1.41238"/>
<rect x="918.048" y="706.19" width="70.619" height="70.619" stroke="white" stroke-opacity="0.06" stroke-width="1.41238"/>
<rect x="988.667" y="706.19" width="70.619" height="70.619" stroke="white" stroke-opacity="0.06" stroke-width="1.41238"/>
<rect x="1059.29" y="706.19" width="70.619" height="70.619" stroke="white" stroke-opacity="0.06" stroke-width="1.41238"/>
<rect x="1129.9" y="706.19" width="70.619" height="70.619" stroke="white" stroke-opacity="0.06" stroke-width="1.41238"/>
<rect x="1200.52" y="706.19" width="70.619" height="70.619" stroke="white" stroke-opacity="0.06" stroke-width="1.41238"/>
<rect x="1271.14" y="706.19" width="70.619" height="70.619" stroke="white" stroke-opacity="0.06" stroke-width="1.41238"/>
<rect x="1341.76" y="706.19" width="70.619" height="70.619" stroke="white" stroke-opacity="0.06" stroke-width="1.41238"/>
<rect x="1412.38" y="706.19" width="70.619" height="70.619" stroke="white" stroke-opacity="0.06" stroke-width="1.41238"/>
<rect y="776.81" width="70.619" height="70.619" stroke="white" stroke-opacity="0.06" stroke-width="1.41238"/>
<rect x="70.6191" y="776.81" width="70.619" height="70.619" stroke="white" stroke-opacity="0.06" stroke-width="1.41238"/>
<rect x="141.238" y="776.81" width="70.619" height="70.619" stroke="white" stroke-opacity="0.06" stroke-width="1.41238"/>
<rect x="211.857" y="776.81" width="70.619" height="70.619" stroke="white" stroke-opacity="0.06" stroke-width="1.41238"/>
<rect x="282.476" y="776.81" width="70.619" height="70.619" stroke="white" stroke-opacity="0.06" stroke-width="1.41238"/>
<rect x="353.095" y="776.81" width="70.619" height="70.619" stroke="white" stroke-opacity="0.06" stroke-width="1.41238"/>
<rect x="423.714" y="776.81" width="70.619" height="70.619" stroke="white" stroke-opacity="0.06" stroke-width="1.41238"/>
<rect x="494.333" y="776.81" width="70.619" height="70.619" stroke="white" stroke-opacity="0.06" stroke-width="1.41238"/>
<rect x="564.952" y="776.81" width="70.619" height="70.619" stroke="white" stroke-opacity="0.06" stroke-width="1.41238"/>
<rect x="635.571" y="776.81" width="70.619" height="70.619" stroke="white" stroke-opacity="0.06" stroke-width="1.41238"/>
<rect x="706.19" y="776.81" width="70.619" height="70.619" stroke="white" stroke-opacity="0.06" stroke-width="1.41238"/>
<rect x="776.81" y="776.81" width="70.619" height="70.619" stroke="white" stroke-opacity="0.06" stroke-width="1.41238"/>
<rect x="847.429" y="776.81" width="70.619" height="70.619" stroke="white" stroke-opacity="0.06" stroke-width="1.41238"/>
<rect x="918.048" y="776.81" width="70.619" height="70.619" stroke="white" stroke-opacity="0.06" stroke-width="1.41238"/>
<rect x="988.667" y="776.81" width="70.619" height="70.619" stroke="white" stroke-opacity="0.06" stroke-width="1.41238"/>
<rect x="1059.29" y="776.81" width="70.619" height="70.619" stroke="white" stroke-opacity="0.06" stroke-width="1.41238"/>
<rect x="1129.9" y="776.81" width="70.619" height="70.619" stroke="white" stroke-opacity="0.06" stroke-width="1.41238"/>
<rect x="1200.52" y="776.81" width="70.619" height="70.619" stroke="white" stroke-opacity="0.06" stroke-width="1.41238"/>
<rect x="1271.14" y="776.81" width="70.619" height="70.619" stroke="white" stroke-opacity="0.06" stroke-width="1.41238"/>
<rect x="1341.76" y="776.81" width="70.619" height="70.619" stroke="white" stroke-opacity="0.06" stroke-width="1.41238"/>
<rect x="1412.38" y="776.81" width="70.619" height="70.619" stroke="white" stroke-opacity="0.06" stroke-width="1.41238"/>
<rect y="847.429" width="70.619" height="70.619" stroke="white" stroke-opacity="0.06" stroke-width="1.41238"/>
<rect x="70.6191" y="847.429" width="70.619" height="70.619" stroke="white" stroke-opacity="0.06" stroke-width="1.41238"/>
<rect x="141.238" y="847.429" width="70.619" height="70.619" stroke="white" stroke-opacity="0.06" stroke-width="1.41238"/>
<rect x="211.857" y="847.429" width="70.619" height="70.619" stroke="white" stroke-opacity="0.06" stroke-width="1.41238"/>
<rect x="282.476" y="847.429" width="70.619" height="70.619" stroke="white" stroke-opacity="0.06" stroke-width="1.41238"/>
<rect x="353.095" y="847.429" width="70.619" height="70.619" stroke="white" stroke-opacity="0.06" stroke-width="1.41238"/>
<rect x="423.714" y="847.429" width="70.619" height="70.619" stroke="white" stroke-opacity="0.06" stroke-width="1.41238"/>
<rect x="494.333" y="847.429" width="70.619" height="70.619" stroke="white" stroke-opacity="0.06" stroke-width="1.41238"/>
<rect x="564.952" y="847.429" width="70.619" height="70.619" stroke="white" stroke-opacity="0.06" stroke-width="1.41238"/>
<rect x="635.571" y="847.429" width="70.619" height="70.619" stroke="white" stroke-opacity="0.06" stroke-width="1.41238"/>
<rect x="706.19" y="847.429" width="70.619" height="70.619" stroke="white" stroke-opacity="0.06" stroke-width="1.41238"/>
<rect x="776.81" y="847.429" width="70.619" height="70.619" stroke="white" stroke-opacity="0.06" stroke-width="1.41238"/>
<rect x="847.429" y="847.429" width="70.619" height="70.619" stroke="white" stroke-opacity="0.06" stroke-width="1.41238"/>
<rect x="918.048" y="847.429" width="70.619" height="70.619" stroke="white" stroke-opacity="0.06" stroke-width="1.41238"/>
<rect x="988.667" y="847.429" width="70.619" height="70.619" stroke="white" stroke-opacity="0.06" stroke-width="1.41238"/>
<rect x="1059.29" y="847.429" width="70.619" height="70.619" stroke="white" stroke-opacity="0.06" stroke-width="1.41238"/>
<rect x="1129.9" y="847.429" width="70.619" height="70.619" stroke="white" stroke-opacity="0.06" stroke-width="1.41238"/>
<rect x="1200.52" y="847.429" width="70.619" height="70.619" stroke="white" stroke-opacity="0.06" stroke-width="1.41238"/>
<rect x="1271.14" y="847.429" width="70.619" height="70.619" stroke="white" stroke-opacity="0.06" stroke-width="1.41238"/>
<rect x="1341.76" y="847.429" width="70.619" height="70.619" stroke="white" stroke-opacity="0.06" stroke-width="1.41238"/>
<rect x="1412.38" y="847.429" width="70.619" height="70.619" stroke="white" stroke-opacity="0.06" stroke-width="1.41238"/>
</g>
<defs>
<clipPath id="clip0_362_1690">
<rect width="1483" height="949.12" fill="white"/>
</clipPath>
</defs>
</svg>
