<svg width="1440" height="763" viewBox="0 0 1440 763" fill="none" xmlns="http://www.w3.org/2000/svg">
<g clip-path="url(#clip0_51_5938)">
<rect x="-22" y="-22.381" width="70.619" height="70.619" stroke="white" stroke-opacity="0.06" stroke-width="1.41238"/>
<rect x="48.6191" y="-22.381" width="70.619" height="70.619" stroke="white" stroke-opacity="0.06" stroke-width="1.41238"/>
<rect x="119.238" y="-22.381" width="70.619" height="70.619" fill="white" fill-opacity="0.05" stroke="white" stroke-opacity="0.06" stroke-width="1.41238"/>
<rect x="189.857" y="-22.381" width="70.619" height="70.619" stroke="white" stroke-opacity="0.06" stroke-width="1.41238"/>
<rect x="260.476" y="-22.381" width="70.619" height="70.619" stroke="white" stroke-opacity="0.06" stroke-width="1.41238"/>
<rect x="331.095" y="-22.381" width="70.619" height="70.619" stroke="white" stroke-opacity="0.06" stroke-width="1.41238"/>
<rect x="401.714" y="-22.381" width="70.619" height="70.619" stroke="white" stroke-opacity="0.06" stroke-width="1.41238"/>
<rect x="472.333" y="-22.381" width="70.619" height="70.619" stroke="white" stroke-opacity="0.06" stroke-width="1.41238"/>
<rect x="542.952" y="-22.381" width="70.619" height="70.619" stroke="white" stroke-opacity="0.06" stroke-width="1.41238"/>
<rect x="613.571" y="-22.381" width="70.619" height="70.619" fill="white" fill-opacity="0.05" stroke="white" stroke-opacity="0.06" stroke-width="1.41238"/>
<rect x="684.19" y="-22.381" width="70.619" height="70.619" stroke="white" stroke-opacity="0.06" stroke-width="1.41238"/>
<rect x="754.81" y="-22.381" width="70.619" height="70.619" stroke="white" stroke-opacity="0.06" stroke-width="1.41238"/>
<rect x="825.429" y="-22.381" width="70.619" height="70.619" stroke="white" stroke-opacity="0.06" stroke-width="1.41238"/>
<rect x="896.048" y="-22.381" width="70.619" height="70.619" stroke="white" stroke-opacity="0.06" stroke-width="1.41238"/>
<rect x="966.667" y="-22.381" width="70.619" height="70.619" stroke="white" stroke-opacity="0.06" stroke-width="1.41238"/>
<rect x="1037.29" y="-22.381" width="70.619" height="70.619" stroke="white" stroke-opacity="0.06" stroke-width="1.41238"/>
<rect x="1107.9" y="-22.381" width="70.619" height="70.619" stroke="white" stroke-opacity="0.06" stroke-width="1.41238"/>
<rect x="1178.52" y="-22.381" width="70.619" height="70.619" stroke="white" stroke-opacity="0.06" stroke-width="1.41238"/>
<rect x="1249.14" y="-22.381" width="70.619" height="70.619" stroke="white" stroke-opacity="0.06" stroke-width="1.41238"/>
<rect x="1319.76" y="-22.381" width="70.619" height="70.619" stroke="white" stroke-opacity="0.06" stroke-width="1.41238"/>
<rect x="1390.38" y="-22.381" width="70.619" height="70.619" stroke="white" stroke-opacity="0.06" stroke-width="1.41238"/>
<rect x="-22" y="48.2381" width="70.619" height="70.619" stroke="white" stroke-opacity="0.06" stroke-width="1.41238"/>
<rect x="48.6191" y="48.2381" width="70.619" height="70.619" stroke="white" stroke-opacity="0.06" stroke-width="1.41238"/>
<rect x="119.238" y="48.2381" width="70.619" height="70.619" stroke="white" stroke-opacity="0.06" stroke-width="1.41238"/>
<rect x="189.857" y="48.2381" width="70.619" height="70.619" stroke="white" stroke-opacity="0.06" stroke-width="1.41238"/>
<rect x="260.476" y="48.2381" width="70.619" height="70.619" stroke="white" stroke-opacity="0.06" stroke-width="1.41238"/>
<rect x="331.095" y="48.2381" width="70.619" height="70.619" stroke="white" stroke-opacity="0.06" stroke-width="1.41238"/>
<rect x="401.714" y="48.2381" width="70.619" height="70.619" stroke="white" stroke-opacity="0.06" stroke-width="1.41238"/>
<rect x="472.333" y="48.2381" width="70.619" height="70.619" stroke="white" stroke-opacity="0.06" stroke-width="1.41238"/>
<rect x="542.952" y="48.2381" width="70.619" height="70.619" stroke="white" stroke-opacity="0.06" stroke-width="1.41238"/>
<rect x="613.571" y="48.2381" width="70.619" height="70.619" stroke="white" stroke-opacity="0.06" stroke-width="1.41238"/>
<rect x="684.19" y="48.2381" width="70.619" height="70.619" stroke="white" stroke-opacity="0.06" stroke-width="1.41238"/>
<rect x="754.81" y="48.2381" width="70.619" height="70.619" stroke="white" stroke-opacity="0.06" stroke-width="1.41238"/>
<rect x="825.429" y="48.2381" width="70.619" height="70.619" stroke="white" stroke-opacity="0.06" stroke-width="1.41238"/>
<rect x="896.048" y="48.2381" width="70.619" height="70.619" stroke="white" stroke-opacity="0.06" stroke-width="1.41238"/>
<rect x="966.667" y="48.2381" width="70.619" height="70.619" stroke="white" stroke-opacity="0.06" stroke-width="1.41238"/>
<rect x="1037.29" y="48.2381" width="70.619" height="70.619" stroke="white" stroke-opacity="0.06" stroke-width="1.41238"/>
<rect x="1107.9" y="48.2381" width="70.619" height="70.619" fill="white" fill-opacity="0.05" stroke="white" stroke-opacity="0.06" stroke-width="1.41238"/>
<rect x="1178.52" y="48.2381" width="70.619" height="70.619" stroke="white" stroke-opacity="0.06" stroke-width="1.41238"/>
<rect x="1249.14" y="48.2381" width="70.619" height="70.619" stroke="white" stroke-opacity="0.06" stroke-width="1.41238"/>
<rect x="1319.76" y="48.2381" width="70.619" height="70.619" stroke="white" stroke-opacity="0.06" stroke-width="1.41238"/>
<rect x="1390.38" y="48.2381" width="70.619" height="70.619" stroke="white" stroke-opacity="0.06" stroke-width="1.41238"/>
<rect x="-22" y="118.857" width="70.619" height="70.619" stroke="white" stroke-opacity="0.06" stroke-width="1.41238"/>
<rect x="48.6191" y="118.857" width="70.619" height="70.619" stroke="white" stroke-opacity="0.06" stroke-width="1.41238"/>
<rect x="119.238" y="118.857" width="70.619" height="70.619" stroke="white" stroke-opacity="0.06" stroke-width="1.41238"/>
<rect x="189.857" y="118.857" width="70.619" height="70.619" stroke="white" stroke-opacity="0.06" stroke-width="1.41238"/>
<rect x="260.476" y="118.857" width="70.619" height="70.619" stroke="white" stroke-opacity="0.06" stroke-width="1.41238"/>
<rect x="331.095" y="118.857" width="70.619" height="70.619" stroke="white" stroke-opacity="0.06" stroke-width="1.41238"/>
<rect x="401.714" y="118.857" width="70.619" height="70.619" stroke="white" stroke-opacity="0.06" stroke-width="1.41238"/>
<rect x="472.333" y="118.857" width="70.619" height="70.619" stroke="white" stroke-opacity="0.06" stroke-width="1.41238"/>
<rect x="542.952" y="118.857" width="70.619" height="70.619" stroke="white" stroke-opacity="0.06" stroke-width="1.41238"/>
<rect x="613.571" y="118.857" width="70.619" height="70.619" stroke="white" stroke-opacity="0.06" stroke-width="1.41238"/>
<rect x="684.19" y="118.857" width="70.619" height="70.619" stroke="white" stroke-opacity="0.06" stroke-width="1.41238"/>
<rect x="754.81" y="118.857" width="70.619" height="70.619" stroke="white" stroke-opacity="0.06" stroke-width="1.41238"/>
<rect x="825.429" y="118.857" width="70.619" height="70.619" stroke="white" stroke-opacity="0.06" stroke-width="1.41238"/>
<rect x="896.048" y="118.857" width="70.619" height="70.619" stroke="white" stroke-opacity="0.06" stroke-width="1.41238"/>
<rect x="966.667" y="118.857" width="70.619" height="70.619" stroke="white" stroke-opacity="0.06" stroke-width="1.41238"/>
<rect x="1037.29" y="118.857" width="70.619" height="70.619" stroke="white" stroke-opacity="0.06" stroke-width="1.41238"/>
<rect x="1107.9" y="118.857" width="70.619" height="70.619" stroke="white" stroke-opacity="0.06" stroke-width="1.41238"/>
<rect x="1178.52" y="118.857" width="70.619" height="70.619" stroke="white" stroke-opacity="0.06" stroke-width="1.41238"/>
<rect x="1249.14" y="118.857" width="70.619" height="70.619" stroke="white" stroke-opacity="0.06" stroke-width="1.41238"/>
<rect x="1319.76" y="118.857" width="70.619" height="70.619" stroke="white" stroke-opacity="0.06" stroke-width="1.41238"/>
<rect x="1390.38" y="118.857" width="70.619" height="70.619" stroke="white" stroke-opacity="0.06" stroke-width="1.41238"/>
<rect x="-22" y="189.476" width="70.619" height="70.619" stroke="white" stroke-opacity="0.06" stroke-width="1.41238"/>
<rect x="48.6191" y="189.476" width="70.619" height="70.619" stroke="white" stroke-opacity="0.06" stroke-width="1.41238"/>
<rect x="119.238" y="189.476" width="70.619" height="70.619" stroke="white" stroke-opacity="0.06" stroke-width="1.41238"/>
<rect x="189.857" y="189.476" width="70.619" height="70.619" fill="white" fill-opacity="0.05" stroke="white" stroke-opacity="0.06" stroke-width="1.41238"/>
<rect x="260.476" y="189.476" width="70.619" height="70.619" stroke="white" stroke-opacity="0.06" stroke-width="1.41238"/>
<rect x="331.095" y="189.476" width="70.619" height="70.619" stroke="white" stroke-opacity="0.06" stroke-width="1.41238"/>
<rect x="401.714" y="189.476" width="70.619" height="70.619" stroke="white" stroke-opacity="0.06" stroke-width="1.41238"/>
<rect x="472.333" y="189.476" width="70.619" height="70.619" stroke="white" stroke-opacity="0.06" stroke-width="1.41238"/>
<rect x="542.952" y="189.476" width="70.619" height="70.619" stroke="white" stroke-opacity="0.06" stroke-width="1.41238"/>
<rect x="613.571" y="189.476" width="70.619" height="70.619" stroke="white" stroke-opacity="0.06" stroke-width="1.41238"/>
<rect x="684.19" y="189.476" width="70.619" height="70.619" stroke="white" stroke-opacity="0.06" stroke-width="1.41238"/>
<rect x="754.81" y="189.476" width="70.619" height="70.619" stroke="white" stroke-opacity="0.06" stroke-width="1.41238"/>
<rect x="825.429" y="189.476" width="70.619" height="70.619" fill="white" fill-opacity="0.05" stroke="white" stroke-opacity="0.06" stroke-width="1.41238"/>
<rect x="896.048" y="189.476" width="70.619" height="70.619" stroke="white" stroke-opacity="0.06" stroke-width="1.41238"/>
<rect x="966.667" y="189.476" width="70.619" height="70.619" stroke="white" stroke-opacity="0.06" stroke-width="1.41238"/>
<rect x="1037.29" y="189.476" width="70.619" height="70.619" stroke="white" stroke-opacity="0.06" stroke-width="1.41238"/>
<rect x="1107.9" y="189.476" width="70.619" height="70.619" stroke="white" stroke-opacity="0.06" stroke-width="1.41238"/>
<rect x="1178.52" y="189.476" width="70.619" height="70.619" stroke="white" stroke-opacity="0.06" stroke-width="1.41238"/>
<rect x="1249.14" y="189.476" width="70.619" height="70.619" stroke="white" stroke-opacity="0.06" stroke-width="1.41238"/>
<rect x="1319.76" y="189.476" width="70.619" height="70.619" stroke="white" stroke-opacity="0.06" stroke-width="1.41238"/>
<rect x="1390.38" y="189.476" width="70.619" height="70.619" stroke="white" stroke-opacity="0.06" stroke-width="1.41238"/>
<rect x="-22" y="260.095" width="70.619" height="70.619" stroke="white" stroke-opacity="0.06" stroke-width="1.41238"/>
<rect x="48.6191" y="260.095" width="70.619" height="70.619" stroke="white" stroke-opacity="0.06" stroke-width="1.41238"/>
<rect x="119.238" y="260.095" width="70.619" height="70.619" stroke="white" stroke-opacity="0.06" stroke-width="1.41238"/>
<rect x="189.857" y="260.095" width="70.619" height="70.619" stroke="white" stroke-opacity="0.06" stroke-width="1.41238"/>
<rect x="260.476" y="260.095" width="70.619" height="70.619" stroke="white" stroke-opacity="0.06" stroke-width="1.41238"/>
<rect x="331.095" y="260.095" width="70.619" height="70.619" stroke="white" stroke-opacity="0.06" stroke-width="1.41238"/>
<rect x="401.714" y="260.095" width="70.619" height="70.619" stroke="white" stroke-opacity="0.06" stroke-width="1.41238"/>
<rect x="472.333" y="260.095" width="70.619" height="70.619" stroke="white" stroke-opacity="0.06" stroke-width="1.41238"/>
<rect x="542.952" y="260.095" width="70.619" height="70.619" stroke="white" stroke-opacity="0.06" stroke-width="1.41238"/>
<rect x="613.571" y="260.095" width="70.619" height="70.619" stroke="white" stroke-opacity="0.06" stroke-width="1.41238"/>
<rect x="684.19" y="260.095" width="70.619" height="70.619" stroke="white" stroke-opacity="0.06" stroke-width="1.41238"/>
<rect x="754.81" y="260.095" width="70.619" height="70.619" stroke="white" stroke-opacity="0.06" stroke-width="1.41238"/>
<rect x="825.429" y="260.095" width="70.619" height="70.619" stroke="white" stroke-opacity="0.06" stroke-width="1.41238"/>
<rect x="896.048" y="260.095" width="70.619" height="70.619" stroke="white" stroke-opacity="0.06" stroke-width="1.41238"/>
<rect x="966.667" y="260.095" width="70.619" height="70.619" stroke="white" stroke-opacity="0.06" stroke-width="1.41238"/>
<rect x="1037.29" y="260.095" width="70.619" height="70.619" stroke="white" stroke-opacity="0.06" stroke-width="1.41238"/>
<rect x="1107.9" y="260.095" width="70.619" height="70.619" stroke="white" stroke-opacity="0.06" stroke-width="1.41238"/>
<rect x="1178.52" y="260.095" width="70.619" height="70.619" stroke="white" stroke-opacity="0.06" stroke-width="1.41238"/>
<rect x="1249.14" y="260.095" width="70.619" height="70.619" fill="white" fill-opacity="0.05" stroke="white" stroke-opacity="0.06" stroke-width="1.41238"/>
<rect x="1319.76" y="260.095" width="70.619" height="70.619" stroke="white" stroke-opacity="0.06" stroke-width="1.41238"/>
<rect x="1390.38" y="260.095" width="70.619" height="70.619" stroke="white" stroke-opacity="0.06" stroke-width="1.41238"/>
<rect x="-22" y="330.714" width="70.619" height="70.619" stroke="white" stroke-opacity="0.06" stroke-width="1.41238"/>
<rect x="48.6191" y="330.714" width="70.619" height="70.619" stroke="white" stroke-opacity="0.06" stroke-width="1.41238"/>
<rect x="119.238" y="330.714" width="70.619" height="70.619" stroke="white" stroke-opacity="0.06" stroke-width="1.41238"/>
<rect x="189.857" y="330.714" width="70.619" height="70.619" stroke="white" stroke-opacity="0.06" stroke-width="1.41238"/>
<rect x="260.476" y="330.714" width="70.619" height="70.619" stroke="white" stroke-opacity="0.06" stroke-width="1.41238"/>
<rect x="331.095" y="330.714" width="70.619" height="70.619" stroke="white" stroke-opacity="0.06" stroke-width="1.41238"/>
<rect x="401.714" y="330.714" width="70.619" height="70.619" stroke="white" stroke-opacity="0.06" stroke-width="1.41238"/>
<rect x="472.333" y="330.714" width="70.619" height="70.619" stroke="white" stroke-opacity="0.06" stroke-width="1.41238"/>
<rect x="542.952" y="330.714" width="70.619" height="70.619" stroke="white" stroke-opacity="0.06" stroke-width="1.41238"/>
<rect x="613.571" y="330.714" width="70.619" height="70.619" stroke="white" stroke-opacity="0.06" stroke-width="1.41238"/>
<rect x="684.19" y="330.714" width="70.619" height="70.619" stroke="white" stroke-opacity="0.06" stroke-width="1.41238"/>
<rect x="754.81" y="330.714" width="70.619" height="70.619" stroke="white" stroke-opacity="0.06" stroke-width="1.41238"/>
<rect x="825.429" y="330.714" width="70.619" height="70.619" stroke="white" stroke-opacity="0.06" stroke-width="1.41238"/>
<rect x="896.048" y="330.714" width="70.619" height="70.619" stroke="white" stroke-opacity="0.06" stroke-width="1.41238"/>
<rect x="966.667" y="330.714" width="70.619" height="70.619" stroke="white" stroke-opacity="0.06" stroke-width="1.41238"/>
<rect x="1037.29" y="330.714" width="70.619" height="70.619" stroke="white" stroke-opacity="0.06" stroke-width="1.41238"/>
<rect x="1107.9" y="330.714" width="70.619" height="70.619" stroke="white" stroke-opacity="0.06" stroke-width="1.41238"/>
<rect x="1178.52" y="330.714" width="70.619" height="70.619" stroke="white" stroke-opacity="0.06" stroke-width="1.41238"/>
<rect x="1249.14" y="330.714" width="70.619" height="70.619" stroke="white" stroke-opacity="0.06" stroke-width="1.41238"/>
<rect x="1319.76" y="330.714" width="70.619" height="70.619" stroke="white" stroke-opacity="0.06" stroke-width="1.41238"/>
<rect x="1390.38" y="330.714" width="70.619" height="70.619" stroke="white" stroke-opacity="0.06" stroke-width="1.41238"/>
<rect x="-22" y="401.333" width="70.619" height="70.619" stroke="white" stroke-opacity="0.06" stroke-width="1.41238"/>
<rect x="48.6191" y="401.333" width="70.619" height="70.619" stroke="white" stroke-opacity="0.06" stroke-width="1.41238"/>
<rect x="119.238" y="401.333" width="70.619" height="70.619" stroke="white" stroke-opacity="0.06" stroke-width="1.41238"/>
<rect x="189.857" y="401.333" width="70.619" height="70.619" stroke="white" stroke-opacity="0.06" stroke-width="1.41238"/>
<rect x="260.476" y="401.333" width="70.619" height="70.619" stroke="white" stroke-opacity="0.06" stroke-width="1.41238"/>
<rect x="331.095" y="401.333" width="70.619" height="70.619" stroke="white" stroke-opacity="0.06" stroke-width="1.41238"/>
<rect x="401.714" y="401.333" width="70.619" height="70.619" stroke="white" stroke-opacity="0.06" stroke-width="1.41238"/>
<rect x="472.333" y="401.333" width="70.619" height="70.619" stroke="white" stroke-opacity="0.06" stroke-width="1.41238"/>
<rect x="542.952" y="401.333" width="70.619" height="70.619" fill="white" fill-opacity="0.05" stroke="white" stroke-opacity="0.06" stroke-width="1.41238"/>
<rect x="613.571" y="401.333" width="70.619" height="70.619" stroke="white" stroke-opacity="0.06" stroke-width="1.41238"/>
<rect x="684.19" y="401.333" width="70.619" height="70.619" stroke="white" stroke-opacity="0.06" stroke-width="1.41238"/>
<rect x="754.81" y="401.333" width="70.619" height="70.619" stroke="white" stroke-opacity="0.06" stroke-width="1.41238"/>
<rect x="825.429" y="401.333" width="70.619" height="70.619" stroke="white" stroke-opacity="0.06" stroke-width="1.41238"/>
<rect x="896.048" y="401.333" width="70.619" height="70.619" stroke="white" stroke-opacity="0.06" stroke-width="1.41238"/>
<rect x="966.667" y="401.333" width="70.619" height="70.619" stroke="white" stroke-opacity="0.06" stroke-width="1.41238"/>
<rect x="1037.29" y="401.333" width="70.619" height="70.619" stroke="white" stroke-opacity="0.06" stroke-width="1.41238"/>
<rect x="1107.9" y="401.333" width="70.619" height="70.619" stroke="white" stroke-opacity="0.06" stroke-width="1.41238"/>
<rect x="1178.52" y="401.333" width="70.619" height="70.619" stroke="white" stroke-opacity="0.06" stroke-width="1.41238"/>
<rect x="1249.14" y="401.333" width="70.619" height="70.619" stroke="white" stroke-opacity="0.06" stroke-width="1.41238"/>
<rect x="1319.76" y="401.333" width="70.619" height="70.619" stroke="white" stroke-opacity="0.06" stroke-width="1.41238"/>
<rect x="1390.38" y="401.333" width="70.619" height="70.619" stroke="white" stroke-opacity="0.06" stroke-width="1.41238"/>
<rect x="-22" y="471.952" width="70.619" height="70.619" stroke="white" stroke-opacity="0.06" stroke-width="1.41238"/>
<rect x="48.6191" y="471.952" width="70.619" height="70.619" stroke="white" stroke-opacity="0.06" stroke-width="1.41238"/>
<rect x="119.238" y="471.952" width="70.619" height="70.619" stroke="white" stroke-opacity="0.06" stroke-width="1.41238"/>
<rect x="189.857" y="471.952" width="70.619" height="70.619" stroke="white" stroke-opacity="0.06" stroke-width="1.41238"/>
<rect x="260.476" y="471.952" width="70.619" height="70.619" fill="white" fill-opacity="0.05" stroke="white" stroke-opacity="0.06" stroke-width="1.41238"/>
<rect x="331.095" y="471.952" width="70.619" height="70.619" stroke="white" stroke-opacity="0.06" stroke-width="1.41238"/>
<rect x="401.714" y="471.952" width="70.619" height="70.619" stroke="white" stroke-opacity="0.06" stroke-width="1.41238"/>
<rect x="472.333" y="471.952" width="70.619" height="70.619" stroke="white" stroke-opacity="0.06" stroke-width="1.41238"/>
<rect x="542.952" y="471.952" width="70.619" height="70.619" stroke="white" stroke-opacity="0.06" stroke-width="1.41238"/>
<rect x="613.571" y="471.952" width="70.619" height="70.619" stroke="white" stroke-opacity="0.06" stroke-width="1.41238"/>
<rect x="684.19" y="471.952" width="70.619" height="70.619" stroke="white" stroke-opacity="0.06" stroke-width="1.41238"/>
<rect x="754.81" y="471.952" width="70.619" height="70.619" stroke="white" stroke-opacity="0.06" stroke-width="1.41238"/>
<rect x="825.429" y="471.952" width="70.619" height="70.619" stroke="white" stroke-opacity="0.06" stroke-width="1.41238"/>
<rect x="896.048" y="471.952" width="70.619" height="70.619" stroke="white" stroke-opacity="0.06" stroke-width="1.41238"/>
<rect x="966.667" y="471.952" width="70.619" height="70.619" stroke="white" stroke-opacity="0.06" stroke-width="1.41238"/>
<rect x="1037.29" y="471.952" width="70.619" height="70.619" stroke="white" stroke-opacity="0.06" stroke-width="1.41238"/>
<rect x="1107.9" y="471.952" width="70.619" height="70.619" stroke="white" stroke-opacity="0.06" stroke-width="1.41238"/>
<rect x="1178.52" y="471.952" width="70.619" height="70.619" stroke="white" stroke-opacity="0.06" stroke-width="1.41238"/>
<rect x="1249.14" y="471.952" width="70.619" height="70.619" stroke="white" stroke-opacity="0.06" stroke-width="1.41238"/>
<rect x="1319.76" y="471.952" width="70.619" height="70.619" stroke="white" stroke-opacity="0.06" stroke-width="1.41238"/>
<rect x="1390.38" y="471.952" width="70.619" height="70.619" stroke="white" stroke-opacity="0.06" stroke-width="1.41238"/>
<rect x="-22" y="542.571" width="70.619" height="70.619" stroke="white" stroke-opacity="0.06" stroke-width="1.41238"/>
<rect x="48.6191" y="542.571" width="70.619" height="70.619" stroke="white" stroke-opacity="0.06" stroke-width="1.41238"/>
<rect x="119.238" y="542.571" width="70.619" height="70.619" stroke="white" stroke-opacity="0.06" stroke-width="1.41238"/>
<rect x="189.857" y="542.571" width="70.619" height="70.619" stroke="white" stroke-opacity="0.06" stroke-width="1.41238"/>
<rect x="260.476" y="542.571" width="70.619" height="70.619" stroke="white" stroke-opacity="0.06" stroke-width="1.41238"/>
<rect x="331.095" y="542.571" width="70.619" height="70.619" stroke="white" stroke-opacity="0.06" stroke-width="1.41238"/>
<rect x="401.714" y="542.571" width="70.619" height="70.619" stroke="white" stroke-opacity="0.06" stroke-width="1.41238"/>
<rect x="472.333" y="542.571" width="70.619" height="70.619" stroke="white" stroke-opacity="0.06" stroke-width="1.41238"/>
<rect x="542.952" y="542.571" width="70.619" height="70.619" stroke="white" stroke-opacity="0.06" stroke-width="1.41238"/>
<rect x="613.571" y="542.571" width="70.619" height="70.619" stroke="white" stroke-opacity="0.06" stroke-width="1.41238"/>
<rect x="684.19" y="542.571" width="70.619" height="70.619" stroke="white" stroke-opacity="0.06" stroke-width="1.41238"/>
<rect x="754.81" y="542.571" width="70.619" height="70.619" stroke="white" stroke-opacity="0.06" stroke-width="1.41238"/>
<rect x="825.429" y="542.571" width="70.619" height="70.619" stroke="white" stroke-opacity="0.06" stroke-width="1.41238"/>
<rect x="896.048" y="542.571" width="70.619" height="70.619" stroke="white" stroke-opacity="0.06" stroke-width="1.41238"/>
<rect x="966.667" y="542.571" width="70.619" height="70.619" stroke="white" stroke-opacity="0.06" stroke-width="1.41238"/>
<rect x="1037.29" y="542.571" width="70.619" height="70.619" stroke="white" stroke-opacity="0.06" stroke-width="1.41238"/>
<rect x="1107.9" y="542.571" width="70.619" height="70.619" stroke="white" stroke-opacity="0.06" stroke-width="1.41238"/>
<rect x="1178.52" y="542.571" width="70.619" height="70.619" stroke="white" stroke-opacity="0.06" stroke-width="1.41238"/>
<rect x="1249.14" y="542.571" width="70.619" height="70.619" stroke="white" stroke-opacity="0.06" stroke-width="1.41238"/>
<rect x="1319.76" y="542.571" width="70.619" height="70.619" stroke="white" stroke-opacity="0.06" stroke-width="1.41238"/>
<rect x="1390.38" y="542.571" width="70.619" height="70.619" stroke="white" stroke-opacity="0.06" stroke-width="1.41238"/>
<rect x="-22" y="613.19" width="70.619" height="70.619" stroke="white" stroke-opacity="0.06" stroke-width="1.41238"/>
<rect x="48.6191" y="613.19" width="70.619" height="70.619" stroke="white" stroke-opacity="0.06" stroke-width="1.41238"/>
<rect x="119.238" y="613.19" width="70.619" height="70.619" stroke="white" stroke-opacity="0.06" stroke-width="1.41238"/>
<rect x="189.857" y="613.19" width="70.619" height="70.619" stroke="white" stroke-opacity="0.06" stroke-width="1.41238"/>
<rect x="260.476" y="613.19" width="70.619" height="70.619" stroke="white" stroke-opacity="0.06" stroke-width="1.41238"/>
<rect x="331.095" y="613.19" width="70.619" height="70.619" stroke="white" stroke-opacity="0.06" stroke-width="1.41238"/>
<rect x="401.714" y="613.19" width="70.619" height="70.619" stroke="white" stroke-opacity="0.06" stroke-width="1.41238"/>
<rect x="472.333" y="613.19" width="70.619" height="70.619" stroke="white" stroke-opacity="0.06" stroke-width="1.41238"/>
<rect x="542.952" y="613.19" width="70.619" height="70.619" stroke="white" stroke-opacity="0.06" stroke-width="1.41238"/>
<rect x="613.571" y="613.19" width="70.619" height="70.619" stroke="white" stroke-opacity="0.06" stroke-width="1.41238"/>
<rect x="684.19" y="613.19" width="70.619" height="70.619" stroke="white" stroke-opacity="0.06" stroke-width="1.41238"/>
<rect x="754.81" y="613.19" width="70.619" height="70.619" stroke="white" stroke-opacity="0.06" stroke-width="1.41238"/>
<rect x="825.429" y="613.19" width="70.619" height="70.619" stroke="white" stroke-opacity="0.06" stroke-width="1.41238"/>
<rect x="896.048" y="613.19" width="70.619" height="70.619" stroke="white" stroke-opacity="0.06" stroke-width="1.41238"/>
<rect x="966.667" y="613.19" width="70.619" height="70.619" stroke="white" stroke-opacity="0.06" stroke-width="1.41238"/>
<rect x="1037.29" y="613.19" width="70.619" height="70.619" stroke="white" stroke-opacity="0.06" stroke-width="1.41238"/>
<rect x="1107.9" y="613.19" width="70.619" height="70.619" stroke="white" stroke-opacity="0.06" stroke-width="1.41238"/>
<rect x="1178.52" y="613.19" width="70.619" height="70.619" stroke="white" stroke-opacity="0.06" stroke-width="1.41238"/>
<rect x="1249.14" y="613.19" width="70.619" height="70.619" stroke="white" stroke-opacity="0.06" stroke-width="1.41238"/>
<rect x="1319.76" y="613.19" width="70.619" height="70.619" stroke="white" stroke-opacity="0.06" stroke-width="1.41238"/>
<rect x="1390.38" y="613.19" width="70.619" height="70.619" stroke="white" stroke-opacity="0.06" stroke-width="1.41238"/>
<rect x="-22" y="683.81" width="70.619" height="70.619" stroke="white" stroke-opacity="0.06" stroke-width="1.41238"/>
<rect x="48.6191" y="683.81" width="70.619" height="70.619" stroke="white" stroke-opacity="0.06" stroke-width="1.41238"/>
<rect x="119.238" y="683.81" width="70.619" height="70.619" stroke="white" stroke-opacity="0.06" stroke-width="1.41238"/>
<rect x="189.857" y="683.81" width="70.619" height="70.619" stroke="white" stroke-opacity="0.06" stroke-width="1.41238"/>
<rect x="260.476" y="683.81" width="70.619" height="70.619" stroke="white" stroke-opacity="0.06" stroke-width="1.41238"/>
<rect x="331.095" y="683.81" width="70.619" height="70.619" stroke="white" stroke-opacity="0.06" stroke-width="1.41238"/>
<rect x="401.714" y="683.81" width="70.619" height="70.619" stroke="white" stroke-opacity="0.06" stroke-width="1.41238"/>
<rect x="472.333" y="683.81" width="70.619" height="70.619" stroke="white" stroke-opacity="0.06" stroke-width="1.41238"/>
<rect x="542.952" y="683.81" width="70.619" height="70.619" stroke="white" stroke-opacity="0.06" stroke-width="1.41238"/>
<rect x="613.571" y="683.81" width="70.619" height="70.619" stroke="white" stroke-opacity="0.06" stroke-width="1.41238"/>
<rect x="684.19" y="683.81" width="70.619" height="70.619" stroke="white" stroke-opacity="0.06" stroke-width="1.41238"/>
<rect x="754.81" y="683.81" width="70.619" height="70.619" stroke="white" stroke-opacity="0.06" stroke-width="1.41238"/>
<rect x="825.429" y="683.81" width="70.619" height="70.619" stroke="white" stroke-opacity="0.06" stroke-width="1.41238"/>
<rect x="896.048" y="683.81" width="70.619" height="70.619" stroke="white" stroke-opacity="0.06" stroke-width="1.41238"/>
<rect x="966.667" y="683.81" width="70.619" height="70.619" stroke="white" stroke-opacity="0.06" stroke-width="1.41238"/>
<rect x="1037.29" y="683.81" width="70.619" height="70.619" stroke="white" stroke-opacity="0.06" stroke-width="1.41238"/>
<rect x="1107.9" y="683.81" width="70.619" height="70.619" stroke="white" stroke-opacity="0.06" stroke-width="1.41238"/>
<rect x="1178.52" y="683.81" width="70.619" height="70.619" stroke="white" stroke-opacity="0.06" stroke-width="1.41238"/>
<rect x="1249.14" y="683.81" width="70.619" height="70.619" stroke="white" stroke-opacity="0.06" stroke-width="1.41238"/>
<rect x="1319.76" y="683.81" width="70.619" height="70.619" stroke="white" stroke-opacity="0.06" stroke-width="1.41238"/>
<rect x="1390.38" y="683.81" width="70.619" height="70.619" stroke="white" stroke-opacity="0.06" stroke-width="1.41238"/>
<rect x="-22" y="754.429" width="70.619" height="70.619" stroke="white" stroke-opacity="0.06" stroke-width="1.41238"/>
<rect x="48.6191" y="754.429" width="70.619" height="70.619" stroke="white" stroke-opacity="0.06" stroke-width="1.41238"/>
<rect x="119.238" y="754.429" width="70.619" height="70.619" stroke="white" stroke-opacity="0.06" stroke-width="1.41238"/>
<rect x="189.857" y="754.429" width="70.619" height="70.619" stroke="white" stroke-opacity="0.06" stroke-width="1.41238"/>
<rect x="260.476" y="754.429" width="70.619" height="70.619" stroke="white" stroke-opacity="0.06" stroke-width="1.41238"/>
<rect x="331.095" y="754.429" width="70.619" height="70.619" stroke="white" stroke-opacity="0.06" stroke-width="1.41238"/>
<rect x="401.714" y="754.429" width="70.619" height="70.619" stroke="white" stroke-opacity="0.06" stroke-width="1.41238"/>
<rect x="472.333" y="754.429" width="70.619" height="70.619" stroke="white" stroke-opacity="0.06" stroke-width="1.41238"/>
<rect x="542.952" y="754.429" width="70.619" height="70.619" stroke="white" stroke-opacity="0.06" stroke-width="1.41238"/>
<rect x="613.571" y="754.429" width="70.619" height="70.619" stroke="white" stroke-opacity="0.06" stroke-width="1.41238"/>
<rect x="684.19" y="754.429" width="70.619" height="70.619" stroke="white" stroke-opacity="0.06" stroke-width="1.41238"/>
<rect x="754.81" y="754.429" width="70.619" height="70.619" stroke="white" stroke-opacity="0.06" stroke-width="1.41238"/>
<rect x="825.429" y="754.429" width="70.619" height="70.619" stroke="white" stroke-opacity="0.06" stroke-width="1.41238"/>
<rect x="896.048" y="754.429" width="70.619" height="70.619" stroke="white" stroke-opacity="0.06" stroke-width="1.41238"/>
<rect x="966.667" y="754.429" width="70.619" height="70.619" stroke="white" stroke-opacity="0.06" stroke-width="1.41238"/>
<rect x="1037.29" y="754.429" width="70.619" height="70.619" stroke="white" stroke-opacity="0.06" stroke-width="1.41238"/>
<rect x="1107.9" y="754.429" width="70.619" height="70.619" stroke="white" stroke-opacity="0.06" stroke-width="1.41238"/>
<rect x="1178.52" y="754.429" width="70.619" height="70.619" stroke="white" stroke-opacity="0.06" stroke-width="1.41238"/>
<rect x="1249.14" y="754.429" width="70.619" height="70.619" stroke="white" stroke-opacity="0.06" stroke-width="1.41238"/>
<rect x="1319.76" y="754.429" width="70.619" height="70.619" stroke="white" stroke-opacity="0.06" stroke-width="1.41238"/>
<rect x="1390.38" y="754.429" width="70.619" height="70.619" stroke="white" stroke-opacity="0.06" stroke-width="1.41238"/>
</g>
<defs>
<clipPath id="clip0_51_5938">
<rect width="1483" height="949.12" fill="white" transform="translate(-22 -93)"/>
</clipPath>
</defs>
</svg>
