<svg width="403" height="620" viewBox="0 0 403 620" fill="none" xmlns="http://www.w3.org/2000/svg">
<g opacity="0.6" clip-path="url(#clip0_51_7488)">
<rect x="-6" y="634" width="30.8532" height="30.8532" transform="rotate(-90 -6 634)" stroke="white" stroke-opacity="0.06" stroke-width="0.617064"/>
<rect x="-6" y="603.147" width="30.8532" height="30.8532" transform="rotate(-90 -6 603.147)" stroke="white" stroke-opacity="0.06" stroke-width="0.617064"/>
<rect x="-6" y="572.294" width="30.8532" height="30.8532" transform="rotate(-90 -6 572.294)" stroke="white" stroke-opacity="0.06" stroke-width="0.617064"/>
<rect x="-6" y="541.44" width="30.8532" height="30.8532" transform="rotate(-90 -6 541.44)" stroke="white" stroke-opacity="0.06" stroke-width="0.617064"/>
<rect x="-6" y="510.587" width="30.8532" height="30.8532" transform="rotate(-90 -6 510.587)" stroke="white" stroke-opacity="0.06" stroke-width="0.617064"/>
<rect x="-6" y="479.734" width="30.8532" height="30.8532" transform="rotate(-90 -6 479.734)" stroke="white" stroke-opacity="0.06" stroke-width="0.617064"/>
<rect x="-6" y="448.881" width="30.8532" height="30.8532" transform="rotate(-90 -6 448.881)" stroke="white" stroke-opacity="0.06" stroke-width="0.617064"/>
<rect x="-6" y="418.027" width="30.8532" height="30.8532" transform="rotate(-90 -6 418.027)" stroke="white" stroke-opacity="0.06" stroke-width="0.617064"/>
<rect x="-6" y="387.174" width="30.8532" height="30.8532" transform="rotate(-90 -6 387.174)" stroke="white" stroke-opacity="0.06" stroke-width="0.617064"/>
<rect x="-6" y="356.321" width="30.8532" height="30.8532" transform="rotate(-90 -6 356.321)" stroke="white" stroke-opacity="0.06" stroke-width="0.617064"/>
<rect x="-6" y="325.468" width="30.8532" height="30.8532" transform="rotate(-90 -6 325.468)" stroke="white" stroke-opacity="0.06" stroke-width="0.617064"/>
<rect x="-6" y="294.615" width="30.8532" height="30.8532" transform="rotate(-90 -6 294.615)" stroke="white" stroke-opacity="0.06" stroke-width="0.617064"/>
<rect x="-6" y="263.761" width="30.8532" height="30.8532" transform="rotate(-90 -6 263.761)" stroke="white" stroke-opacity="0.06" stroke-width="0.617064"/>
<rect x="-6" y="232.908" width="30.8532" height="30.8532" transform="rotate(-90 -6 232.908)" stroke="white" stroke-opacity="0.06" stroke-width="0.617064"/>
<rect x="-6" y="202.055" width="30.8532" height="30.8532" transform="rotate(-90 -6 202.055)" stroke="white" stroke-opacity="0.06" stroke-width="0.617064"/>
<rect x="-6" y="171.202" width="30.8532" height="30.8532" transform="rotate(-90 -6 171.202)" stroke="white" stroke-opacity="0.06" stroke-width="0.617064"/>
<rect x="-6" y="140.348" width="30.8532" height="30.8532" transform="rotate(-90 -6 140.348)" stroke="white" stroke-opacity="0.06" stroke-width="0.617064"/>
<rect x="-6" y="109.495" width="30.8532" height="30.8532" transform="rotate(-90 -6 109.495)" stroke="white" stroke-opacity="0.06" stroke-width="0.617064"/>
<rect x="-6" y="78.6421" width="30.8532" height="30.8532" transform="rotate(-90 -6 78.6421)" stroke="white" stroke-opacity="0.06" stroke-width="0.617064"/>
<rect x="-6" y="47.7889" width="30.8532" height="30.8532" transform="rotate(-90 -6 47.7889)" stroke="white" stroke-opacity="0.06" stroke-width="0.617064"/>
<rect x="-6" y="16.9355" width="30.8532" height="30.8532" transform="rotate(-90 -6 16.9355)" stroke="white" stroke-opacity="0.06" stroke-width="0.617064"/>
<rect x="24.8531" y="634" width="30.8532" height="30.8532" transform="rotate(-90 24.8531 634)" stroke="white" stroke-opacity="0.06" stroke-width="0.617064"/>
<rect x="24.8531" y="603.147" width="30.8532" height="30.8532" transform="rotate(-90 24.8531 603.147)" stroke="white" stroke-opacity="0.06" stroke-width="0.617064"/>
<rect x="24.8531" y="572.294" width="30.8532" height="30.8532" transform="rotate(-90 24.8531 572.294)" fill="white" fill-opacity="0.05" stroke="white" stroke-opacity="0.06" stroke-width="0.617064"/>
<rect x="24.8531" y="541.44" width="30.8532" height="30.8532" transform="rotate(-90 24.8531 541.44)" stroke="white" stroke-opacity="0.06" stroke-width="0.617064"/>
<rect x="24.8531" y="510.587" width="30.8532" height="30.8532" transform="rotate(-90 24.8531 510.587)" stroke="white" stroke-opacity="0.06" stroke-width="0.617064"/>
<rect x="24.8531" y="479.734" width="30.8532" height="30.8532" transform="rotate(-90 24.8531 479.734)" stroke="white" stroke-opacity="0.06" stroke-width="0.617064"/>
<rect x="24.8531" y="448.881" width="30.8532" height="30.8532" transform="rotate(-90 24.8531 448.881)" stroke="white" stroke-opacity="0.06" stroke-width="0.617064"/>
<rect x="24.8531" y="418.027" width="30.8532" height="30.8532" transform="rotate(-90 24.8531 418.027)" stroke="white" stroke-opacity="0.06" stroke-width="0.617064"/>
<rect x="24.8531" y="387.174" width="30.8532" height="30.8532" transform="rotate(-90 24.8531 387.174)" stroke="white" stroke-opacity="0.06" stroke-width="0.617064"/>
<rect x="24.8531" y="356.321" width="30.8532" height="30.8532" transform="rotate(-90 24.8531 356.321)" fill="white" fill-opacity="0.05" stroke="white" stroke-opacity="0.06" stroke-width="0.617064"/>
<rect x="24.8531" y="325.468" width="30.8532" height="30.8532" transform="rotate(-90 24.8531 325.468)" stroke="white" stroke-opacity="0.06" stroke-width="0.617064"/>
<rect x="24.8531" y="294.615" width="30.8532" height="30.8532" transform="rotate(-90 24.8531 294.615)" stroke="white" stroke-opacity="0.06" stroke-width="0.617064"/>
<rect x="24.8531" y="263.761" width="30.8532" height="30.8532" transform="rotate(-90 24.8531 263.761)" stroke="white" stroke-opacity="0.06" stroke-width="0.617064"/>
<rect x="24.8531" y="232.908" width="30.8532" height="30.8532" transform="rotate(-90 24.8531 232.908)" stroke="white" stroke-opacity="0.06" stroke-width="0.617064"/>
<rect x="24.8531" y="202.055" width="30.8532" height="30.8532" transform="rotate(-90 24.8531 202.055)" stroke="white" stroke-opacity="0.06" stroke-width="0.617064"/>
<rect x="24.8531" y="171.202" width="30.8532" height="30.8532" transform="rotate(-90 24.8531 171.202)" stroke="white" stroke-opacity="0.06" stroke-width="0.617064"/>
<rect x="24.8531" y="140.348" width="30.8532" height="30.8532" transform="rotate(-90 24.8531 140.348)" stroke="white" stroke-opacity="0.06" stroke-width="0.617064"/>
<rect x="24.8531" y="109.495" width="30.8532" height="30.8532" transform="rotate(-90 24.8531 109.495)" stroke="white" stroke-opacity="0.06" stroke-width="0.617064"/>
<rect x="24.8531" y="78.6421" width="30.8532" height="30.8532" transform="rotate(-90 24.8531 78.6421)" stroke="white" stroke-opacity="0.06" stroke-width="0.617064"/>
<rect x="24.8531" y="47.7889" width="30.8532" height="30.8532" transform="rotate(-90 24.8531 47.7889)" stroke="white" stroke-opacity="0.06" stroke-width="0.617064"/>
<rect x="24.8531" y="16.9355" width="30.8532" height="30.8532" transform="rotate(-90 24.8531 16.9355)" stroke="white" stroke-opacity="0.06" stroke-width="0.617064"/>
<rect x="55.7064" y="634" width="30.8532" height="30.8532" transform="rotate(-90 55.7064 634)" stroke="white" stroke-opacity="0.06" stroke-width="0.617064"/>
<rect x="55.7064" y="603.147" width="30.8532" height="30.8532" transform="rotate(-90 55.7064 603.147)" stroke="white" stroke-opacity="0.06" stroke-width="0.617064"/>
<rect x="55.7064" y="572.294" width="30.8532" height="30.8532" transform="rotate(-90 55.7064 572.294)" stroke="white" stroke-opacity="0.06" stroke-width="0.617064"/>
<rect x="55.7064" y="541.44" width="30.8532" height="30.8532" transform="rotate(-90 55.7064 541.44)" stroke="white" stroke-opacity="0.06" stroke-width="0.617064"/>
<rect x="55.7064" y="510.587" width="30.8532" height="30.8532" transform="rotate(-90 55.7064 510.587)" stroke="white" stroke-opacity="0.06" stroke-width="0.617064"/>
<rect x="55.7064" y="479.734" width="30.8532" height="30.8532" transform="rotate(-90 55.7064 479.734)" stroke="white" stroke-opacity="0.06" stroke-width="0.617064"/>
<rect x="55.7064" y="448.881" width="30.8532" height="30.8532" transform="rotate(-90 55.7064 448.881)" stroke="white" stroke-opacity="0.06" stroke-width="0.617064"/>
<rect x="55.7064" y="418.027" width="30.8532" height="30.8532" transform="rotate(-90 55.7064 418.027)" stroke="white" stroke-opacity="0.06" stroke-width="0.617064"/>
<rect x="55.7064" y="387.174" width="30.8532" height="30.8532" transform="rotate(-90 55.7064 387.174)" stroke="white" stroke-opacity="0.06" stroke-width="0.617064"/>
<rect x="55.7064" y="356.321" width="30.8532" height="30.8532" transform="rotate(-90 55.7064 356.321)" stroke="white" stroke-opacity="0.06" stroke-width="0.617064"/>
<rect x="55.7064" y="325.468" width="30.8532" height="30.8532" transform="rotate(-90 55.7064 325.468)" stroke="white" stroke-opacity="0.06" stroke-width="0.617064"/>
<rect x="55.7064" y="294.615" width="30.8532" height="30.8532" transform="rotate(-90 55.7064 294.615)" stroke="white" stroke-opacity="0.06" stroke-width="0.617064"/>
<rect x="55.7064" y="263.761" width="30.8532" height="30.8532" transform="rotate(-90 55.7064 263.761)" stroke="white" stroke-opacity="0.06" stroke-width="0.617064"/>
<rect x="55.7064" y="232.908" width="30.8532" height="30.8532" transform="rotate(-90 55.7064 232.908)" stroke="white" stroke-opacity="0.06" stroke-width="0.617064"/>
<rect x="55.7064" y="202.055" width="30.8532" height="30.8532" transform="rotate(-90 55.7064 202.055)" stroke="white" stroke-opacity="0.06" stroke-width="0.617064"/>
<rect x="55.7064" y="171.202" width="30.8532" height="30.8532" transform="rotate(-90 55.7064 171.202)" stroke="white" stroke-opacity="0.06" stroke-width="0.617064"/>
<rect x="55.7064" y="140.348" width="30.8532" height="30.8532" transform="rotate(-90 55.7064 140.348)" fill="white" fill-opacity="0.05" stroke="white" stroke-opacity="0.06" stroke-width="0.617064"/>
<rect x="55.7064" y="109.495" width="30.8532" height="30.8532" transform="rotate(-90 55.7064 109.495)" stroke="white" stroke-opacity="0.06" stroke-width="0.617064"/>
<rect x="55.7064" y="78.6421" width="30.8532" height="30.8532" transform="rotate(-90 55.7064 78.6421)" stroke="white" stroke-opacity="0.06" stroke-width="0.617064"/>
<rect x="55.7064" y="47.7889" width="30.8532" height="30.8532" transform="rotate(-90 55.7064 47.7889)" stroke="white" stroke-opacity="0.06" stroke-width="0.617064"/>
<rect x="55.7064" y="16.9355" width="30.8532" height="30.8532" transform="rotate(-90 55.7064 16.9355)" stroke="white" stroke-opacity="0.06" stroke-width="0.617064"/>
<rect x="86.5596" y="634" width="30.8532" height="30.8532" transform="rotate(-90 86.5596 634)" stroke="white" stroke-opacity="0.06" stroke-width="0.617064"/>
<rect x="86.5597" y="603.147" width="30.8532" height="30.8532" transform="rotate(-90 86.5597 603.147)" stroke="white" stroke-opacity="0.06" stroke-width="0.617064"/>
<rect x="86.5597" y="572.294" width="30.8532" height="30.8532" transform="rotate(-90 86.5597 572.294)" stroke="white" stroke-opacity="0.06" stroke-width="0.617064"/>
<rect x="86.5597" y="541.44" width="30.8532" height="30.8532" transform="rotate(-90 86.5597 541.44)" stroke="white" stroke-opacity="0.06" stroke-width="0.617064"/>
<rect x="86.5597" y="510.587" width="30.8532" height="30.8532" transform="rotate(-90 86.5597 510.587)" stroke="white" stroke-opacity="0.06" stroke-width="0.617064"/>
<rect x="86.5597" y="479.734" width="30.8532" height="30.8532" transform="rotate(-90 86.5597 479.734)" stroke="white" stroke-opacity="0.06" stroke-width="0.617064"/>
<rect x="86.5597" y="448.881" width="30.8532" height="30.8532" transform="rotate(-90 86.5597 448.881)" stroke="white" stroke-opacity="0.06" stroke-width="0.617064"/>
<rect x="86.5597" y="418.027" width="30.8532" height="30.8532" transform="rotate(-90 86.5597 418.027)" stroke="white" stroke-opacity="0.06" stroke-width="0.617064"/>
<rect x="86.5597" y="387.174" width="30.8532" height="30.8532" transform="rotate(-90 86.5597 387.174)" stroke="white" stroke-opacity="0.06" stroke-width="0.617064"/>
<rect x="86.5597" y="356.321" width="30.8532" height="30.8532" transform="rotate(-90 86.5597 356.321)" stroke="white" stroke-opacity="0.06" stroke-width="0.617064"/>
<rect x="86.5597" y="325.468" width="30.8532" height="30.8532" transform="rotate(-90 86.5597 325.468)" stroke="white" stroke-opacity="0.06" stroke-width="0.617064"/>
<rect x="86.5597" y="294.615" width="30.8532" height="30.8532" transform="rotate(-90 86.5597 294.615)" stroke="white" stroke-opacity="0.06" stroke-width="0.617064"/>
<rect x="86.5597" y="263.761" width="30.8532" height="30.8532" transform="rotate(-90 86.5597 263.761)" stroke="white" stroke-opacity="0.06" stroke-width="0.617064"/>
<rect x="86.5597" y="232.908" width="30.8532" height="30.8532" transform="rotate(-90 86.5597 232.908)" stroke="white" stroke-opacity="0.06" stroke-width="0.617064"/>
<rect x="86.5597" y="202.055" width="30.8532" height="30.8532" transform="rotate(-90 86.5597 202.055)" stroke="white" stroke-opacity="0.06" stroke-width="0.617064"/>
<rect x="86.5597" y="171.202" width="30.8532" height="30.8532" transform="rotate(-90 86.5597 171.202)" stroke="white" stroke-opacity="0.06" stroke-width="0.617064"/>
<rect x="86.5597" y="140.348" width="30.8532" height="30.8532" transform="rotate(-90 86.5597 140.348)" stroke="white" stroke-opacity="0.06" stroke-width="0.617064"/>
<rect x="86.5596" y="109.495" width="30.8532" height="30.8532" transform="rotate(-90 86.5596 109.495)" stroke="white" stroke-opacity="0.06" stroke-width="0.617064"/>
<rect x="86.5597" y="78.6421" width="30.8532" height="30.8532" transform="rotate(-90 86.5597 78.6421)" stroke="white" stroke-opacity="0.06" stroke-width="0.617064"/>
<rect x="86.5597" y="47.7889" width="30.8532" height="30.8532" transform="rotate(-90 86.5597 47.7889)" stroke="white" stroke-opacity="0.06" stroke-width="0.617064"/>
<rect x="86.5597" y="16.9355" width="30.8532" height="30.8532" transform="rotate(-90 86.5597 16.9355)" stroke="white" stroke-opacity="0.06" stroke-width="0.617064"/>
<rect x="117.413" y="634" width="30.8532" height="30.8532" transform="rotate(-90 117.413 634)" stroke="white" stroke-opacity="0.06" stroke-width="0.617064"/>
<rect x="117.413" y="603.147" width="30.8532" height="30.8532" transform="rotate(-90 117.413 603.147)" stroke="white" stroke-opacity="0.06" stroke-width="0.617064"/>
<rect x="117.413" y="572.294" width="30.8532" height="30.8532" transform="rotate(-90 117.413 572.294)" stroke="white" stroke-opacity="0.06" stroke-width="0.617064"/>
<rect x="117.413" y="541.44" width="30.8532" height="30.8532" transform="rotate(-90 117.413 541.44)" fill="white" fill-opacity="0.05" stroke="white" stroke-opacity="0.06" stroke-width="0.617064"/>
<rect x="117.413" y="510.587" width="30.8532" height="30.8532" transform="rotate(-90 117.413 510.587)" stroke="white" stroke-opacity="0.06" stroke-width="0.617064"/>
<rect x="117.413" y="479.734" width="30.8532" height="30.8532" transform="rotate(-90 117.413 479.734)" stroke="white" stroke-opacity="0.06" stroke-width="0.617064"/>
<rect x="117.413" y="448.881" width="30.8532" height="30.8532" transform="rotate(-90 117.413 448.881)" stroke="white" stroke-opacity="0.06" stroke-width="0.617064"/>
<rect x="117.413" y="418.027" width="30.8532" height="30.8532" transform="rotate(-90 117.413 418.027)" stroke="white" stroke-opacity="0.06" stroke-width="0.617064"/>
<rect x="117.413" y="387.174" width="30.8532" height="30.8532" transform="rotate(-90 117.413 387.174)" stroke="white" stroke-opacity="0.06" stroke-width="0.617064"/>
<rect x="117.413" y="356.321" width="30.8532" height="30.8532" transform="rotate(-90 117.413 356.321)" stroke="white" stroke-opacity="0.06" stroke-width="0.617064"/>
<rect x="117.413" y="325.468" width="30.8532" height="30.8532" transform="rotate(-90 117.413 325.468)" stroke="white" stroke-opacity="0.06" stroke-width="0.617064"/>
<rect x="117.413" y="294.615" width="30.8532" height="30.8532" transform="rotate(-90 117.413 294.615)" stroke="white" stroke-opacity="0.06" stroke-width="0.617064"/>
<rect x="117.413" y="263.761" width="30.8532" height="30.8532" transform="rotate(-90 117.413 263.761)" fill="white" fill-opacity="0.05" stroke="white" stroke-opacity="0.06" stroke-width="0.617064"/>
<rect x="117.413" y="232.908" width="30.8532" height="30.8532" transform="rotate(-90 117.413 232.908)" stroke="white" stroke-opacity="0.06" stroke-width="0.617064"/>
<rect x="117.413" y="202.055" width="30.8532" height="30.8532" transform="rotate(-90 117.413 202.055)" stroke="white" stroke-opacity="0.06" stroke-width="0.617064"/>
<rect x="117.413" y="171.202" width="30.8532" height="30.8532" transform="rotate(-90 117.413 171.202)" stroke="white" stroke-opacity="0.06" stroke-width="0.617064"/>
<rect x="117.413" y="140.348" width="30.8532" height="30.8532" transform="rotate(-90 117.413 140.348)" stroke="white" stroke-opacity="0.06" stroke-width="0.617064"/>
<rect x="117.413" y="109.495" width="30.8532" height="30.8532" transform="rotate(-90 117.413 109.495)" stroke="white" stroke-opacity="0.06" stroke-width="0.617064"/>
<rect x="117.413" y="78.6423" width="30.8532" height="30.8532" transform="rotate(-90 117.413 78.6423)" stroke="white" stroke-opacity="0.06" stroke-width="0.617064"/>
<rect x="117.413" y="47.7889" width="30.8532" height="30.8532" transform="rotate(-90 117.413 47.7889)" stroke="white" stroke-opacity="0.06" stroke-width="0.617064"/>
<rect x="117.413" y="16.9355" width="30.8532" height="30.8532" transform="rotate(-90 117.413 16.9355)" stroke="white" stroke-opacity="0.06" stroke-width="0.617064"/>
<rect x="148.266" y="634" width="30.8532" height="30.8532" transform="rotate(-90 148.266 634)" stroke="white" stroke-opacity="0.06" stroke-width="0.617064"/>
<rect x="148.266" y="603.147" width="30.8532" height="30.8532" transform="rotate(-90 148.266 603.147)" stroke="white" stroke-opacity="0.06" stroke-width="0.617064"/>
<rect x="148.266" y="572.294" width="30.8532" height="30.8532" transform="rotate(-90 148.266 572.294)" stroke="white" stroke-opacity="0.06" stroke-width="0.617064"/>
<rect x="148.266" y="541.44" width="30.8532" height="30.8532" transform="rotate(-90 148.266 541.44)" stroke="white" stroke-opacity="0.06" stroke-width="0.617064"/>
<rect x="148.266" y="510.587" width="30.8532" height="30.8532" transform="rotate(-90 148.266 510.587)" stroke="white" stroke-opacity="0.06" stroke-width="0.617064"/>
<rect x="148.266" y="479.734" width="30.8532" height="30.8532" transform="rotate(-90 148.266 479.734)" stroke="white" stroke-opacity="0.06" stroke-width="0.617064"/>
<rect x="148.266" y="448.881" width="30.8532" height="30.8532" transform="rotate(-90 148.266 448.881)" stroke="white" stroke-opacity="0.06" stroke-width="0.617064"/>
<rect x="148.266" y="418.027" width="30.8532" height="30.8532" transform="rotate(-90 148.266 418.027)" stroke="white" stroke-opacity="0.06" stroke-width="0.617064"/>
<rect x="148.266" y="387.174" width="30.8532" height="30.8532" transform="rotate(-90 148.266 387.174)" stroke="white" stroke-opacity="0.06" stroke-width="0.617064"/>
<rect x="148.266" y="356.321" width="30.8532" height="30.8532" transform="rotate(-90 148.266 356.321)" stroke="white" stroke-opacity="0.06" stroke-width="0.617064"/>
<rect x="148.266" y="325.468" width="30.8532" height="30.8532" transform="rotate(-90 148.266 325.468)" stroke="white" stroke-opacity="0.06" stroke-width="0.617064"/>
<rect x="148.266" y="294.615" width="30.8532" height="30.8532" transform="rotate(-90 148.266 294.615)" stroke="white" stroke-opacity="0.06" stroke-width="0.617064"/>
<rect x="148.266" y="263.761" width="30.8532" height="30.8532" transform="rotate(-90 148.266 263.761)" stroke="white" stroke-opacity="0.06" stroke-width="0.617064"/>
<rect x="148.266" y="232.908" width="30.8532" height="30.8532" transform="rotate(-90 148.266 232.908)" stroke="white" stroke-opacity="0.06" stroke-width="0.617064"/>
<rect x="148.266" y="202.055" width="30.8532" height="30.8532" transform="rotate(-90 148.266 202.055)" stroke="white" stroke-opacity="0.06" stroke-width="0.617064"/>
<rect x="148.266" y="171.202" width="30.8532" height="30.8532" transform="rotate(-90 148.266 171.202)" stroke="white" stroke-opacity="0.06" stroke-width="0.617064"/>
<rect x="148.266" y="140.348" width="30.8532" height="30.8532" transform="rotate(-90 148.266 140.348)" stroke="white" stroke-opacity="0.06" stroke-width="0.617064"/>
<rect x="148.266" y="109.495" width="30.8532" height="30.8532" transform="rotate(-90 148.266 109.495)" stroke="white" stroke-opacity="0.06" stroke-width="0.617064"/>
<rect x="148.266" y="78.6421" width="30.8532" height="30.8532" transform="rotate(-90 148.266 78.6421)" fill="white" fill-opacity="0.05" stroke="white" stroke-opacity="0.06" stroke-width="0.617064"/>
<rect x="148.266" y="47.7889" width="30.8532" height="30.8532" transform="rotate(-90 148.266 47.7889)" stroke="white" stroke-opacity="0.06" stroke-width="0.617064"/>
<rect x="148.266" y="16.9355" width="30.8532" height="30.8532" transform="rotate(-90 148.266 16.9355)" stroke="white" stroke-opacity="0.06" stroke-width="0.617064"/>
<rect x="179.119" y="634" width="30.8532" height="30.8532" transform="rotate(-90 179.119 634)" stroke="white" stroke-opacity="0.06" stroke-width="0.617064"/>
<rect x="179.119" y="603.147" width="30.8532" height="30.8532" transform="rotate(-90 179.119 603.147)" stroke="white" stroke-opacity="0.06" stroke-width="0.617064"/>
<rect x="179.119" y="572.294" width="30.8532" height="30.8532" transform="rotate(-90 179.119 572.294)" stroke="white" stroke-opacity="0.06" stroke-width="0.617064"/>
<rect x="179.119" y="541.44" width="30.8532" height="30.8532" transform="rotate(-90 179.119 541.44)" stroke="white" stroke-opacity="0.06" stroke-width="0.617064"/>
<rect x="179.119" y="510.587" width="30.8532" height="30.8532" transform="rotate(-90 179.119 510.587)" stroke="white" stroke-opacity="0.06" stroke-width="0.617064"/>
<rect x="179.119" y="479.734" width="30.8532" height="30.8532" transform="rotate(-90 179.119 479.734)" stroke="white" stroke-opacity="0.06" stroke-width="0.617064"/>
<rect x="179.119" y="448.881" width="30.8532" height="30.8532" transform="rotate(-90 179.119 448.881)" stroke="white" stroke-opacity="0.06" stroke-width="0.617064"/>
<rect x="179.119" y="418.027" width="30.8532" height="30.8532" transform="rotate(-90 179.119 418.027)" stroke="white" stroke-opacity="0.06" stroke-width="0.617064"/>
<rect x="179.119" y="387.174" width="30.8532" height="30.8532" transform="rotate(-90 179.119 387.174)" stroke="white" stroke-opacity="0.06" stroke-width="0.617064"/>
<rect x="179.119" y="356.321" width="30.8532" height="30.8532" transform="rotate(-90 179.119 356.321)" stroke="white" stroke-opacity="0.06" stroke-width="0.617064"/>
<rect x="179.119" y="325.468" width="30.8532" height="30.8532" transform="rotate(-90 179.119 325.468)" stroke="white" stroke-opacity="0.06" stroke-width="0.617064"/>
<rect x="179.119" y="294.615" width="30.8532" height="30.8532" transform="rotate(-90 179.119 294.615)" stroke="white" stroke-opacity="0.06" stroke-width="0.617064"/>
<rect x="179.119" y="263.761" width="30.8532" height="30.8532" transform="rotate(-90 179.119 263.761)" stroke="white" stroke-opacity="0.06" stroke-width="0.617064"/>
<rect x="179.119" y="232.908" width="30.8532" height="30.8532" transform="rotate(-90 179.119 232.908)" stroke="white" stroke-opacity="0.06" stroke-width="0.617064"/>
<rect x="179.119" y="202.055" width="30.8532" height="30.8532" transform="rotate(-90 179.119 202.055)" stroke="white" stroke-opacity="0.06" stroke-width="0.617064"/>
<rect x="179.119" y="171.202" width="30.8532" height="30.8532" transform="rotate(-90 179.119 171.202)" stroke="white" stroke-opacity="0.06" stroke-width="0.617064"/>
<rect x="179.119" y="140.348" width="30.8532" height="30.8532" transform="rotate(-90 179.119 140.348)" stroke="white" stroke-opacity="0.06" stroke-width="0.617064"/>
<rect x="179.119" y="109.495" width="30.8532" height="30.8532" transform="rotate(-90 179.119 109.495)" stroke="white" stroke-opacity="0.06" stroke-width="0.617064"/>
<rect x="179.119" y="78.6421" width="30.8532" height="30.8532" transform="rotate(-90 179.119 78.6421)" stroke="white" stroke-opacity="0.06" stroke-width="0.617064"/>
<rect x="179.119" y="47.7889" width="30.8532" height="30.8532" transform="rotate(-90 179.119 47.7889)" stroke="white" stroke-opacity="0.06" stroke-width="0.617064"/>
<rect x="179.119" y="16.9355" width="30.8532" height="30.8532" transform="rotate(-90 179.119 16.9355)" stroke="white" stroke-opacity="0.06" stroke-width="0.617064"/>
<rect x="209.973" y="634" width="30.8532" height="30.8532" transform="rotate(-90 209.973 634)" stroke="white" stroke-opacity="0.06" stroke-width="0.617064"/>
<rect x="209.973" y="603.147" width="30.8532" height="30.8532" transform="rotate(-90 209.973 603.147)" stroke="white" stroke-opacity="0.06" stroke-width="0.617064"/>
<rect x="209.973" y="572.294" width="30.8532" height="30.8532" transform="rotate(-90 209.973 572.294)" stroke="white" stroke-opacity="0.06" stroke-width="0.617064"/>
<rect x="209.973" y="541.44" width="30.8532" height="30.8532" transform="rotate(-90 209.973 541.44)" stroke="white" stroke-opacity="0.06" stroke-width="0.617064"/>
<rect x="209.973" y="510.587" width="30.8532" height="30.8532" transform="rotate(-90 209.973 510.587)" stroke="white" stroke-opacity="0.06" stroke-width="0.617064"/>
<rect x="209.973" y="479.734" width="30.8532" height="30.8532" transform="rotate(-90 209.973 479.734)" stroke="white" stroke-opacity="0.06" stroke-width="0.617064"/>
<rect x="209.973" y="448.881" width="30.8532" height="30.8532" transform="rotate(-90 209.973 448.881)" stroke="white" stroke-opacity="0.06" stroke-width="0.617064"/>
<rect x="209.973" y="418.027" width="30.8532" height="30.8532" transform="rotate(-90 209.973 418.027)" stroke="white" stroke-opacity="0.06" stroke-width="0.617064"/>
<rect x="209.973" y="387.174" width="30.8532" height="30.8532" transform="rotate(-90 209.973 387.174)" fill="white" fill-opacity="0.05" stroke="white" stroke-opacity="0.06" stroke-width="0.617064"/>
<rect x="209.973" y="356.321" width="30.8532" height="30.8532" transform="rotate(-90 209.973 356.321)" stroke="white" stroke-opacity="0.06" stroke-width="0.617064"/>
<rect x="209.973" y="325.468" width="30.8532" height="30.8532" transform="rotate(-90 209.973 325.468)" stroke="white" stroke-opacity="0.06" stroke-width="0.617064"/>
<rect x="209.973" y="294.615" width="30.8532" height="30.8532" transform="rotate(-90 209.973 294.615)" stroke="white" stroke-opacity="0.06" stroke-width="0.617064"/>
<rect x="209.973" y="263.761" width="30.8532" height="30.8532" transform="rotate(-90 209.973 263.761)" stroke="white" stroke-opacity="0.06" stroke-width="0.617064"/>
<rect x="209.973" y="232.908" width="30.8532" height="30.8532" transform="rotate(-90 209.973 232.908)" stroke="white" stroke-opacity="0.06" stroke-width="0.617064"/>
<rect x="209.973" y="202.055" width="30.8532" height="30.8532" transform="rotate(-90 209.973 202.055)" stroke="white" stroke-opacity="0.06" stroke-width="0.617064"/>
<rect x="209.973" y="171.202" width="30.8532" height="30.8532" transform="rotate(-90 209.973 171.202)" stroke="white" stroke-opacity="0.06" stroke-width="0.617064"/>
<rect x="209.973" y="140.348" width="30.8532" height="30.8532" transform="rotate(-90 209.973 140.348)" stroke="white" stroke-opacity="0.06" stroke-width="0.617064"/>
<rect x="209.973" y="109.495" width="30.8532" height="30.8532" transform="rotate(-90 209.973 109.495)" stroke="white" stroke-opacity="0.06" stroke-width="0.617064"/>
<rect x="209.973" y="78.6423" width="30.8532" height="30.8532" transform="rotate(-90 209.973 78.6423)" stroke="white" stroke-opacity="0.06" stroke-width="0.617064"/>
<rect x="209.973" y="47.7889" width="30.8532" height="30.8532" transform="rotate(-90 209.973 47.7889)" stroke="white" stroke-opacity="0.06" stroke-width="0.617064"/>
<rect x="209.973" y="16.9355" width="30.8532" height="30.8532" transform="rotate(-90 209.973 16.9355)" stroke="white" stroke-opacity="0.06" stroke-width="0.617064"/>
<rect x="240.826" y="634" width="30.8532" height="30.8532" transform="rotate(-90 240.826 634)" stroke="white" stroke-opacity="0.06" stroke-width="0.617064"/>
<rect x="240.826" y="603.147" width="30.8532" height="30.8532" transform="rotate(-90 240.826 603.147)" stroke="white" stroke-opacity="0.06" stroke-width="0.617064"/>
<rect x="240.826" y="572.294" width="30.8532" height="30.8532" transform="rotate(-90 240.826 572.294)" stroke="white" stroke-opacity="0.06" stroke-width="0.617064"/>
<rect x="240.826" y="541.44" width="30.8532" height="30.8532" transform="rotate(-90 240.826 541.44)" stroke="white" stroke-opacity="0.06" stroke-width="0.617064"/>
<rect x="240.826" y="510.587" width="30.8532" height="30.8532" transform="rotate(-90 240.826 510.587)" fill="white" fill-opacity="0.05" stroke="white" stroke-opacity="0.06" stroke-width="0.617064"/>
<rect x="240.826" y="479.734" width="30.8532" height="30.8532" transform="rotate(-90 240.826 479.734)" stroke="white" stroke-opacity="0.06" stroke-width="0.617064"/>
<rect x="240.826" y="448.881" width="30.8532" height="30.8532" transform="rotate(-90 240.826 448.881)" stroke="white" stroke-opacity="0.06" stroke-width="0.617064"/>
<rect x="240.826" y="418.027" width="30.8532" height="30.8532" transform="rotate(-90 240.826 418.027)" stroke="white" stroke-opacity="0.06" stroke-width="0.617064"/>
<rect x="240.826" y="387.174" width="30.8532" height="30.8532" transform="rotate(-90 240.826 387.174)" stroke="white" stroke-opacity="0.06" stroke-width="0.617064"/>
<rect x="240.826" y="356.321" width="30.8532" height="30.8532" transform="rotate(-90 240.826 356.321)" stroke="white" stroke-opacity="0.06" stroke-width="0.617064"/>
<rect x="240.826" y="325.468" width="30.8532" height="30.8532" transform="rotate(-90 240.826 325.468)" stroke="white" stroke-opacity="0.06" stroke-width="0.617064"/>
<rect x="240.826" y="294.615" width="30.8532" height="30.8532" transform="rotate(-90 240.826 294.615)" stroke="white" stroke-opacity="0.06" stroke-width="0.617064"/>
<rect x="240.826" y="263.761" width="30.8532" height="30.8532" transform="rotate(-90 240.826 263.761)" stroke="white" stroke-opacity="0.06" stroke-width="0.617064"/>
<rect x="240.826" y="232.908" width="30.8532" height="30.8532" transform="rotate(-90 240.826 232.908)" stroke="white" stroke-opacity="0.06" stroke-width="0.617064"/>
<rect x="240.826" y="202.055" width="30.8532" height="30.8532" transform="rotate(-90 240.826 202.055)" stroke="white" stroke-opacity="0.06" stroke-width="0.617064"/>
<rect x="240.826" y="171.202" width="30.8532" height="30.8532" transform="rotate(-90 240.826 171.202)" stroke="white" stroke-opacity="0.06" stroke-width="0.617064"/>
<rect x="240.826" y="140.348" width="30.8532" height="30.8532" transform="rotate(-90 240.826 140.348)" stroke="white" stroke-opacity="0.06" stroke-width="0.617064"/>
<rect x="240.826" y="109.495" width="30.8532" height="30.8532" transform="rotate(-90 240.826 109.495)" stroke="white" stroke-opacity="0.06" stroke-width="0.617064"/>
<rect x="240.826" y="78.6421" width="30.8532" height="30.8532" transform="rotate(-90 240.826 78.6421)" stroke="white" stroke-opacity="0.06" stroke-width="0.617064"/>
<rect x="240.826" y="47.7889" width="30.8532" height="30.8532" transform="rotate(-90 240.826 47.7889)" stroke="white" stroke-opacity="0.06" stroke-width="0.617064"/>
<rect x="240.826" y="16.9355" width="30.8532" height="30.8532" transform="rotate(-90 240.826 16.9355)" stroke="white" stroke-opacity="0.06" stroke-width="0.617064"/>
<rect x="271.679" y="634" width="30.8532" height="30.8532" transform="rotate(-90 271.679 634)" stroke="white" stroke-opacity="0.06" stroke-width="0.617064"/>
<rect x="271.679" y="603.147" width="30.8532" height="30.8532" transform="rotate(-90 271.679 603.147)" stroke="white" stroke-opacity="0.06" stroke-width="0.617064"/>
<rect x="271.679" y="572.294" width="30.8532" height="30.8532" transform="rotate(-90 271.679 572.294)" stroke="white" stroke-opacity="0.06" stroke-width="0.617064"/>
<rect x="271.679" y="541.44" width="30.8532" height="30.8532" transform="rotate(-90 271.679 541.44)" stroke="white" stroke-opacity="0.06" stroke-width="0.617064"/>
<rect x="271.679" y="510.587" width="30.8532" height="30.8532" transform="rotate(-90 271.679 510.587)" stroke="white" stroke-opacity="0.06" stroke-width="0.617064"/>
<rect x="271.679" y="479.734" width="30.8532" height="30.8532" transform="rotate(-90 271.679 479.734)" stroke="white" stroke-opacity="0.06" stroke-width="0.617064"/>
<rect x="271.679" y="448.881" width="30.8532" height="30.8532" transform="rotate(-90 271.679 448.881)" stroke="white" stroke-opacity="0.06" stroke-width="0.617064"/>
<rect x="271.679" y="418.027" width="30.8532" height="30.8532" transform="rotate(-90 271.679 418.027)" stroke="white" stroke-opacity="0.06" stroke-width="0.617064"/>
<rect x="271.679" y="387.174" width="30.8532" height="30.8532" transform="rotate(-90 271.679 387.174)" stroke="white" stroke-opacity="0.06" stroke-width="0.617064"/>
<rect x="271.679" y="356.321" width="30.8532" height="30.8532" transform="rotate(-90 271.679 356.321)" stroke="white" stroke-opacity="0.06" stroke-width="0.617064"/>
<rect x="271.679" y="325.468" width="30.8532" height="30.8532" transform="rotate(-90 271.679 325.468)" stroke="white" stroke-opacity="0.06" stroke-width="0.617064"/>
<rect x="271.679" y="294.615" width="30.8532" height="30.8532" transform="rotate(-90 271.679 294.615)" stroke="white" stroke-opacity="0.06" stroke-width="0.617064"/>
<rect x="271.679" y="263.761" width="30.8532" height="30.8532" transform="rotate(-90 271.679 263.761)" stroke="white" stroke-opacity="0.06" stroke-width="0.617064"/>
<rect x="271.679" y="232.908" width="30.8532" height="30.8532" transform="rotate(-90 271.679 232.908)" stroke="white" stroke-opacity="0.06" stroke-width="0.617064"/>
<rect x="271.679" y="202.055" width="30.8532" height="30.8532" transform="rotate(-90 271.679 202.055)" stroke="white" stroke-opacity="0.06" stroke-width="0.617064"/>
<rect x="271.679" y="171.202" width="30.8532" height="30.8532" transform="rotate(-90 271.679 171.202)" stroke="white" stroke-opacity="0.06" stroke-width="0.617064"/>
<rect x="271.679" y="140.348" width="30.8532" height="30.8532" transform="rotate(-90 271.679 140.348)" stroke="white" stroke-opacity="0.06" stroke-width="0.617064"/>
<rect x="271.679" y="109.495" width="30.8532" height="30.8532" transform="rotate(-90 271.679 109.495)" stroke="white" stroke-opacity="0.06" stroke-width="0.617064"/>
<rect x="271.679" y="78.6421" width="30.8532" height="30.8532" transform="rotate(-90 271.679 78.6421)" stroke="white" stroke-opacity="0.06" stroke-width="0.617064"/>
<rect x="271.679" y="47.7889" width="30.8532" height="30.8532" transform="rotate(-90 271.679 47.7889)" stroke="white" stroke-opacity="0.06" stroke-width="0.617064"/>
<rect x="271.679" y="16.9355" width="30.8532" height="30.8532" transform="rotate(-90 271.679 16.9355)" stroke="white" stroke-opacity="0.06" stroke-width="0.617064"/>
<rect x="302.532" y="634" width="30.8532" height="30.8532" transform="rotate(-90 302.532 634)" stroke="white" stroke-opacity="0.06" stroke-width="0.617064"/>
<rect x="302.532" y="603.147" width="30.8532" height="30.8532" transform="rotate(-90 302.532 603.147)" stroke="white" stroke-opacity="0.06" stroke-width="0.617064"/>
<rect x="302.532" y="572.294" width="30.8532" height="30.8532" transform="rotate(-90 302.532 572.294)" stroke="white" stroke-opacity="0.06" stroke-width="0.617064"/>
<rect x="302.532" y="541.44" width="30.8532" height="30.8532" transform="rotate(-90 302.532 541.44)" stroke="white" stroke-opacity="0.06" stroke-width="0.617064"/>
<rect x="302.532" y="510.587" width="30.8532" height="30.8532" transform="rotate(-90 302.532 510.587)" stroke="white" stroke-opacity="0.06" stroke-width="0.617064"/>
<rect x="302.532" y="479.734" width="30.8532" height="30.8532" transform="rotate(-90 302.532 479.734)" stroke="white" stroke-opacity="0.06" stroke-width="0.617064"/>
<rect x="302.532" y="448.881" width="30.8532" height="30.8532" transform="rotate(-90 302.532 448.881)" stroke="white" stroke-opacity="0.06" stroke-width="0.617064"/>
<rect x="302.532" y="418.027" width="30.8532" height="30.8532" transform="rotate(-90 302.532 418.027)" stroke="white" stroke-opacity="0.06" stroke-width="0.617064"/>
<rect x="302.532" y="387.174" width="30.8532" height="30.8532" transform="rotate(-90 302.532 387.174)" stroke="white" stroke-opacity="0.06" stroke-width="0.617064"/>
<rect x="302.532" y="356.321" width="30.8532" height="30.8532" transform="rotate(-90 302.532 356.321)" stroke="white" stroke-opacity="0.06" stroke-width="0.617064"/>
<rect x="302.532" y="325.468" width="30.8532" height="30.8532" transform="rotate(-90 302.532 325.468)" stroke="white" stroke-opacity="0.06" stroke-width="0.617064"/>
<rect x="302.532" y="294.615" width="30.8532" height="30.8532" transform="rotate(-90 302.532 294.615)" stroke="white" stroke-opacity="0.06" stroke-width="0.617064"/>
<rect x="302.532" y="263.761" width="30.8532" height="30.8532" transform="rotate(-90 302.532 263.761)" stroke="white" stroke-opacity="0.06" stroke-width="0.617064"/>
<rect x="302.532" y="232.908" width="30.8532" height="30.8532" transform="rotate(-90 302.532 232.908)" stroke="white" stroke-opacity="0.06" stroke-width="0.617064"/>
<rect x="302.532" y="202.055" width="30.8532" height="30.8532" transform="rotate(-90 302.532 202.055)" stroke="white" stroke-opacity="0.06" stroke-width="0.617064"/>
<rect x="302.532" y="171.202" width="30.8532" height="30.8532" transform="rotate(-90 302.532 171.202)" stroke="white" stroke-opacity="0.06" stroke-width="0.617064"/>
<rect x="302.532" y="140.348" width="30.8532" height="30.8532" transform="rotate(-90 302.532 140.348)" stroke="white" stroke-opacity="0.06" stroke-width="0.617064"/>
<rect x="302.532" y="109.495" width="30.8532" height="30.8532" transform="rotate(-90 302.532 109.495)" stroke="white" stroke-opacity="0.06" stroke-width="0.617064"/>
<rect x="302.532" y="78.6421" width="30.8532" height="30.8532" transform="rotate(-90 302.532 78.6421)" stroke="white" stroke-opacity="0.06" stroke-width="0.617064"/>
<rect x="302.532" y="47.7889" width="30.8532" height="30.8532" transform="rotate(-90 302.532 47.7889)" stroke="white" stroke-opacity="0.06" stroke-width="0.617064"/>
<rect x="302.532" y="16.9355" width="30.8532" height="30.8532" transform="rotate(-90 302.532 16.9355)" stroke="white" stroke-opacity="0.06" stroke-width="0.617064"/>
<rect x="333.385" y="634" width="30.8532" height="30.8532" transform="rotate(-90 333.385 634)" stroke="white" stroke-opacity="0.06" stroke-width="0.617064"/>
<rect x="333.386" y="603.147" width="30.8532" height="30.8532" transform="rotate(-90 333.386 603.147)" stroke="white" stroke-opacity="0.06" stroke-width="0.617064"/>
<rect x="333.386" y="572.294" width="30.8532" height="30.8532" transform="rotate(-90 333.386 572.294)" stroke="white" stroke-opacity="0.06" stroke-width="0.617064"/>
<rect x="333.386" y="541.44" width="30.8532" height="30.8532" transform="rotate(-90 333.386 541.44)" stroke="white" stroke-opacity="0.06" stroke-width="0.617064"/>
<rect x="333.386" y="510.587" width="30.8532" height="30.8532" transform="rotate(-90 333.386 510.587)" stroke="white" stroke-opacity="0.06" stroke-width="0.617064"/>
<rect x="333.386" y="479.734" width="30.8532" height="30.8532" transform="rotate(-90 333.386 479.734)" stroke="white" stroke-opacity="0.06" stroke-width="0.617064"/>
<rect x="333.386" y="448.881" width="30.8532" height="30.8532" transform="rotate(-90 333.386 448.881)" stroke="white" stroke-opacity="0.06" stroke-width="0.617064"/>
<rect x="333.386" y="418.027" width="30.8532" height="30.8532" transform="rotate(-90 333.386 418.027)" stroke="white" stroke-opacity="0.06" stroke-width="0.617064"/>
<rect x="333.386" y="387.174" width="30.8532" height="30.8532" transform="rotate(-90 333.386 387.174)" stroke="white" stroke-opacity="0.06" stroke-width="0.617064"/>
<rect x="333.386" y="356.321" width="30.8532" height="30.8532" transform="rotate(-90 333.386 356.321)" stroke="white" stroke-opacity="0.06" stroke-width="0.617064"/>
<rect x="333.386" y="325.468" width="30.8532" height="30.8532" transform="rotate(-90 333.386 325.468)" stroke="white" stroke-opacity="0.06" stroke-width="0.617064"/>
<rect x="333.386" y="294.615" width="30.8532" height="30.8532" transform="rotate(-90 333.386 294.615)" stroke="white" stroke-opacity="0.06" stroke-width="0.617064"/>
<rect x="333.386" y="263.761" width="30.8532" height="30.8532" transform="rotate(-90 333.386 263.761)" stroke="white" stroke-opacity="0.06" stroke-width="0.617064"/>
<rect x="333.386" y="232.908" width="30.8532" height="30.8532" transform="rotate(-90 333.386 232.908)" stroke="white" stroke-opacity="0.06" stroke-width="0.617064"/>
<rect x="333.386" y="202.055" width="30.8532" height="30.8532" transform="rotate(-90 333.386 202.055)" stroke="white" stroke-opacity="0.06" stroke-width="0.617064"/>
<rect x="333.386" y="171.202" width="30.8532" height="30.8532" transform="rotate(-90 333.386 171.202)" stroke="white" stroke-opacity="0.06" stroke-width="0.617064"/>
<rect x="333.386" y="140.348" width="30.8532" height="30.8532" transform="rotate(-90 333.386 140.348)" stroke="white" stroke-opacity="0.06" stroke-width="0.617064"/>
<rect x="333.385" y="109.495" width="30.8532" height="30.8532" transform="rotate(-90 333.385 109.495)" stroke="white" stroke-opacity="0.06" stroke-width="0.617064"/>
<rect x="333.386" y="78.6421" width="30.8532" height="30.8532" transform="rotate(-90 333.386 78.6421)" stroke="white" stroke-opacity="0.06" stroke-width="0.617064"/>
<rect x="333.386" y="47.7889" width="30.8532" height="30.8532" transform="rotate(-90 333.386 47.7889)" stroke="white" stroke-opacity="0.06" stroke-width="0.617064"/>
<rect x="333.386" y="16.9355" width="30.8532" height="30.8532" transform="rotate(-90 333.386 16.9355)" stroke="white" stroke-opacity="0.06" stroke-width="0.617064"/>
<rect x="364.239" y="634" width="30.8532" height="30.8532" transform="rotate(-90 364.239 634)" stroke="white" stroke-opacity="0.06" stroke-width="0.617064"/>
<rect x="364.238" y="603.147" width="30.8532" height="30.8532" transform="rotate(-90 364.238 603.147)" stroke="white" stroke-opacity="0.06" stroke-width="0.617064"/>
<rect x="364.238" y="572.294" width="30.8532" height="30.8532" transform="rotate(-90 364.238 572.294)" stroke="white" stroke-opacity="0.06" stroke-width="0.617064"/>
<rect x="364.238" y="541.44" width="30.8532" height="30.8532" transform="rotate(-90 364.238 541.44)" stroke="white" stroke-opacity="0.06" stroke-width="0.617064"/>
<rect x="364.238" y="510.587" width="30.8532" height="30.8532" transform="rotate(-90 364.238 510.587)" stroke="white" stroke-opacity="0.06" stroke-width="0.617064"/>
<rect x="364.238" y="479.734" width="30.8532" height="30.8532" transform="rotate(-90 364.238 479.734)" stroke="white" stroke-opacity="0.06" stroke-width="0.617064"/>
<rect x="364.238" y="448.881" width="30.8532" height="30.8532" transform="rotate(-90 364.238 448.881)" stroke="white" stroke-opacity="0.06" stroke-width="0.617064"/>
<rect x="364.238" y="418.027" width="30.8532" height="30.8532" transform="rotate(-90 364.238 418.027)" stroke="white" stroke-opacity="0.06" stroke-width="0.617064"/>
<rect x="364.238" y="387.174" width="30.8532" height="30.8532" transform="rotate(-90 364.238 387.174)" stroke="white" stroke-opacity="0.06" stroke-width="0.617064"/>
<rect x="364.238" y="356.321" width="30.8532" height="30.8532" transform="rotate(-90 364.238 356.321)" stroke="white" stroke-opacity="0.06" stroke-width="0.617064"/>
<rect x="364.238" y="325.468" width="30.8532" height="30.8532" transform="rotate(-90 364.238 325.468)" stroke="white" stroke-opacity="0.06" stroke-width="0.617064"/>
<rect x="364.238" y="294.615" width="30.8532" height="30.8532" transform="rotate(-90 364.238 294.615)" stroke="white" stroke-opacity="0.06" stroke-width="0.617064"/>
<rect x="364.238" y="263.761" width="30.8532" height="30.8532" transform="rotate(-90 364.238 263.761)" stroke="white" stroke-opacity="0.06" stroke-width="0.617064"/>
<rect x="364.238" y="232.908" width="30.8532" height="30.8532" transform="rotate(-90 364.238 232.908)" stroke="white" stroke-opacity="0.06" stroke-width="0.617064"/>
<rect x="364.238" y="202.055" width="30.8532" height="30.8532" transform="rotate(-90 364.238 202.055)" stroke="white" stroke-opacity="0.06" stroke-width="0.617064"/>
<rect x="364.238" y="171.202" width="30.8532" height="30.8532" transform="rotate(-90 364.238 171.202)" stroke="white" stroke-opacity="0.06" stroke-width="0.617064"/>
<rect x="364.238" y="140.348" width="30.8532" height="30.8532" transform="rotate(-90 364.238 140.348)" stroke="white" stroke-opacity="0.06" stroke-width="0.617064"/>
<rect x="364.239" y="109.495" width="30.8532" height="30.8532" transform="rotate(-90 364.239 109.495)" stroke="white" stroke-opacity="0.06" stroke-width="0.617064"/>
<rect x="364.238" y="78.6421" width="30.8532" height="30.8532" transform="rotate(-90 364.238 78.6421)" stroke="white" stroke-opacity="0.06" stroke-width="0.617064"/>
<rect x="364.238" y="47.7889" width="30.8532" height="30.8532" transform="rotate(-90 364.238 47.7889)" stroke="white" stroke-opacity="0.06" stroke-width="0.617064"/>
<rect x="364.238" y="16.9355" width="30.8532" height="30.8532" transform="rotate(-90 364.238 16.9355)" stroke="white" stroke-opacity="0.06" stroke-width="0.617064"/>
<g filter="url(#filter0_f_51_7488)">
<ellipse cx="70.443" cy="169.493" rx="96.4937" ry="109.443" fill="#A26DFF"/>
</g>
</g>
<defs>
<filter id="filter0_f_51_7488" x="-318.456" y="-232.355" width="777.798" height="803.697" filterUnits="userSpaceOnUse" color-interpolation-filters="sRGB">
<feFlood flood-opacity="0" result="BackgroundImageFix"/>
<feBlend mode="normal" in="SourceGraphic" in2="BackgroundImageFix" result="shape"/>
<feGaussianBlur stdDeviation="146.203" result="effect1_foregroundBlur_51_7488"/>
</filter>
<clipPath id="clip0_51_7488">
<rect width="647.918" height="414.667" fill="white" transform="matrix(0 -1 1 0 -6 634)"/>
</clipPath>
</defs>
</svg>
