<svg width="540" height="295" viewBox="0 0 540 295" fill="none" xmlns="http://www.w3.org/2000/svg">
<g opacity="0.6" clip-path="url(#clip0_49_4083)">
<rect x="-5.92117" y="-18.9213" width="29.0787" height="29.0787" stroke="white" stroke-opacity="0.06" stroke-width="0.581575"/>
<rect x="23.1574" y="-18.9213" width="29.0787" height="29.0787" fill="white" fill-opacity="0.05" stroke="white" stroke-opacity="0.06" stroke-width="0.581575"/>
<rect x="52.2363" y="-18.9213" width="29.0787" height="29.0787" stroke="white" stroke-opacity="0.06" stroke-width="0.581575"/>
<rect x="81.3151" y="-18.9213" width="29.0787" height="29.0787" stroke="white" stroke-opacity="0.06" stroke-width="0.581575"/>
<rect x="110.394" y="-18.9213" width="29.0787" height="29.0787" stroke="white" stroke-opacity="0.06" stroke-width="0.581575"/>
<rect x="139.472" y="-18.9213" width="29.0787" height="29.0787" stroke="white" stroke-opacity="0.06" stroke-width="0.581575"/>
<rect x="168.551" y="-18.9213" width="29.0787" height="29.0787" stroke="white" stroke-opacity="0.06" stroke-width="0.581575"/>
<rect x="197.63" y="-18.9213" width="29.0787" height="29.0787" stroke="white" stroke-opacity="0.06" stroke-width="0.581575"/>
<rect x="226.709" y="-18.9213" width="29.0787" height="29.0787" fill="white" fill-opacity="0.05" stroke="white" stroke-opacity="0.06" stroke-width="0.581575"/>
<rect x="255.787" y="-18.9213" width="29.0787" height="29.0787" stroke="white" stroke-opacity="0.06" stroke-width="0.581575"/>
<rect x="284.866" y="-18.9213" width="29.0787" height="29.0787" stroke="white" stroke-opacity="0.06" stroke-width="0.581575"/>
<rect x="313.945" y="-18.9213" width="29.0787" height="29.0787" stroke="white" stroke-opacity="0.06" stroke-width="0.581575"/>
<rect x="343.024" y="-18.9213" width="29.0787" height="29.0787" stroke="white" stroke-opacity="0.06" stroke-width="0.581575"/>
<rect x="372.102" y="-18.9213" width="29.0787" height="29.0787" stroke="white" stroke-opacity="0.06" stroke-width="0.581575"/>
<rect x="401.181" y="-18.9213" width="29.0787" height="29.0787" stroke="white" stroke-opacity="0.06" stroke-width="0.581575"/>
<rect x="430.26" y="-18.9213" width="29.0787" height="29.0787" stroke="white" stroke-opacity="0.06" stroke-width="0.581575"/>
<rect x="459.339" y="-18.9213" width="29.0787" height="29.0787" stroke="white" stroke-opacity="0.06" stroke-width="0.581575"/>
<rect x="488.417" y="-18.9213" width="29.0787" height="29.0787" stroke="white" stroke-opacity="0.06" stroke-width="0.581575"/>
<rect x="517.496" y="-18.9213" width="29.0787" height="29.0787" stroke="white" stroke-opacity="0.06" stroke-width="0.581575"/>
<rect x="-5.92117" y="10.1575" width="29.0787" height="29.0787" stroke="white" stroke-opacity="0.06" stroke-width="0.581575"/>
<rect x="23.1574" y="10.1575" width="29.0787" height="29.0787" stroke="white" stroke-opacity="0.06" stroke-width="0.581575"/>
<rect x="52.2363" y="10.1575" width="29.0787" height="29.0787" stroke="white" stroke-opacity="0.06" stroke-width="0.581575"/>
<rect x="81.3151" y="10.1575" width="29.0787" height="29.0787" stroke="white" stroke-opacity="0.06" stroke-width="0.581575"/>
<rect x="110.394" y="10.1575" width="29.0787" height="29.0787" stroke="white" stroke-opacity="0.06" stroke-width="0.581575"/>
<rect x="139.472" y="10.1575" width="29.0787" height="29.0787" stroke="white" stroke-opacity="0.06" stroke-width="0.581575"/>
<rect x="168.551" y="10.1575" width="29.0787" height="29.0787" stroke="white" stroke-opacity="0.06" stroke-width="0.581575"/>
<rect x="197.63" y="10.1575" width="29.0787" height="29.0787" stroke="white" stroke-opacity="0.06" stroke-width="0.581575"/>
<rect x="226.709" y="10.1575" width="29.0787" height="29.0787" stroke="white" stroke-opacity="0.06" stroke-width="0.581575"/>
<rect x="255.787" y="10.1575" width="29.0787" height="29.0787" stroke="white" stroke-opacity="0.06" stroke-width="0.581575"/>
<rect x="284.866" y="10.1575" width="29.0787" height="29.0787" stroke="white" stroke-opacity="0.06" stroke-width="0.581575"/>
<rect x="313.945" y="10.1575" width="29.0787" height="29.0787" stroke="white" stroke-opacity="0.06" stroke-width="0.581575"/>
<rect x="343.024" y="10.1575" width="29.0787" height="29.0787" stroke="white" stroke-opacity="0.06" stroke-width="0.581575"/>
<rect x="372.102" y="10.1575" width="29.0787" height="29.0787" stroke="white" stroke-opacity="0.06" stroke-width="0.581575"/>
<rect x="401.181" y="10.1575" width="29.0787" height="29.0787" stroke="white" stroke-opacity="0.06" stroke-width="0.581575"/>
<rect x="430.26" y="10.1575" width="29.0787" height="29.0787" fill="white" fill-opacity="0.05" stroke="white" stroke-opacity="0.06" stroke-width="0.581575"/>
<rect x="459.339" y="10.1575" width="29.0787" height="29.0787" stroke="white" stroke-opacity="0.06" stroke-width="0.581575"/>
<rect x="488.417" y="10.1575" width="29.0787" height="29.0787" stroke="white" stroke-opacity="0.06" stroke-width="0.581575"/>
<rect x="517.496" y="10.1575" width="29.0787" height="29.0787" stroke="white" stroke-opacity="0.06" stroke-width="0.581575"/>
<rect x="-5.92117" y="39.2362" width="29.0787" height="29.0787" stroke="white" stroke-opacity="0.06" stroke-width="0.581575"/>
<rect x="23.1574" y="39.2362" width="29.0787" height="29.0787" stroke="white" stroke-opacity="0.06" stroke-width="0.581575"/>
<rect x="52.2363" y="39.2362" width="29.0787" height="29.0787" stroke="white" stroke-opacity="0.06" stroke-width="0.581575"/>
<rect x="81.3151" y="39.2362" width="29.0787" height="29.0787" stroke="white" stroke-opacity="0.06" stroke-width="0.581575"/>
<rect x="110.394" y="39.2362" width="29.0787" height="29.0787" stroke="white" stroke-opacity="0.06" stroke-width="0.581575"/>
<rect x="139.472" y="39.2362" width="29.0787" height="29.0787" stroke="white" stroke-opacity="0.06" stroke-width="0.581575"/>
<rect x="168.551" y="39.2362" width="29.0787" height="29.0787" stroke="white" stroke-opacity="0.06" stroke-width="0.581575"/>
<rect x="197.63" y="39.2362" width="29.0787" height="29.0787" stroke="white" stroke-opacity="0.06" stroke-width="0.581575"/>
<rect x="226.709" y="39.2362" width="29.0787" height="29.0787" stroke="white" stroke-opacity="0.06" stroke-width="0.581575"/>
<rect x="255.787" y="39.2362" width="29.0787" height="29.0787" stroke="white" stroke-opacity="0.06" stroke-width="0.581575"/>
<rect x="284.866" y="39.2362" width="29.0787" height="29.0787" stroke="white" stroke-opacity="0.06" stroke-width="0.581575"/>
<rect x="313.945" y="39.2362" width="29.0787" height="29.0787" stroke="white" stroke-opacity="0.06" stroke-width="0.581575"/>
<rect x="343.024" y="39.2362" width="29.0787" height="29.0787" stroke="white" stroke-opacity="0.06" stroke-width="0.581575"/>
<rect x="372.102" y="39.2362" width="29.0787" height="29.0787" stroke="white" stroke-opacity="0.06" stroke-width="0.581575"/>
<rect x="401.181" y="39.2362" width="29.0787" height="29.0787" stroke="white" stroke-opacity="0.06" stroke-width="0.581575"/>
<rect x="430.26" y="39.2362" width="29.0787" height="29.0787" stroke="white" stroke-opacity="0.06" stroke-width="0.581575"/>
<rect x="459.339" y="39.2362" width="29.0787" height="29.0787" stroke="white" stroke-opacity="0.06" stroke-width="0.581575"/>
<rect x="488.417" y="39.2362" width="29.0787" height="29.0787" stroke="white" stroke-opacity="0.06" stroke-width="0.581575"/>
<rect x="517.496" y="39.2362" width="29.0787" height="29.0787" stroke="white" stroke-opacity="0.06" stroke-width="0.581575"/>
<rect x="-5.92117" y="68.3151" width="29.0787" height="29.0787" stroke="white" stroke-opacity="0.06" stroke-width="0.581575"/>
<rect x="23.1574" y="68.3151" width="29.0787" height="29.0787" stroke="white" stroke-opacity="0.06" stroke-width="0.581575"/>
<rect x="52.2363" y="68.3151" width="29.0787" height="29.0787" fill="white" fill-opacity="0.05" stroke="white" stroke-opacity="0.06" stroke-width="0.581575"/>
<rect x="81.3151" y="68.3151" width="29.0787" height="29.0787" stroke="white" stroke-opacity="0.06" stroke-width="0.581575"/>
<rect x="110.394" y="68.3151" width="29.0787" height="29.0787" stroke="white" stroke-opacity="0.06" stroke-width="0.581575"/>
<rect x="139.472" y="68.3151" width="29.0787" height="29.0787" stroke="white" stroke-opacity="0.06" stroke-width="0.581575"/>
<rect x="168.551" y="68.3151" width="29.0787" height="29.0787" stroke="white" stroke-opacity="0.06" stroke-width="0.581575"/>
<rect x="197.63" y="68.3151" width="29.0787" height="29.0787" stroke="white" stroke-opacity="0.06" stroke-width="0.581575"/>
<rect x="226.709" y="68.3151" width="29.0787" height="29.0787" stroke="white" stroke-opacity="0.06" stroke-width="0.581575"/>
<rect x="255.787" y="68.3151" width="29.0787" height="29.0787" stroke="white" stroke-opacity="0.06" stroke-width="0.581575"/>
<rect x="284.866" y="68.3151" width="29.0787" height="29.0787" stroke="white" stroke-opacity="0.06" stroke-width="0.581575"/>
<rect x="313.945" y="68.3151" width="29.0787" height="29.0787" fill="white" fill-opacity="0.05" stroke="white" stroke-opacity="0.06" stroke-width="0.581575"/>
<rect x="343.024" y="68.3151" width="29.0787" height="29.0787" stroke="white" stroke-opacity="0.06" stroke-width="0.581575"/>
<rect x="372.102" y="68.3151" width="29.0787" height="29.0787" stroke="white" stroke-opacity="0.06" stroke-width="0.581575"/>
<rect x="401.181" y="68.3151" width="29.0787" height="29.0787" stroke="white" stroke-opacity="0.06" stroke-width="0.581575"/>
<rect x="430.26" y="68.3151" width="29.0787" height="29.0787" stroke="white" stroke-opacity="0.06" stroke-width="0.581575"/>
<rect x="459.339" y="68.3151" width="29.0787" height="29.0787" stroke="white" stroke-opacity="0.06" stroke-width="0.581575"/>
<rect x="488.417" y="68.3151" width="29.0787" height="29.0787" stroke="white" stroke-opacity="0.06" stroke-width="0.581575"/>
<rect x="517.496" y="68.3151" width="29.0787" height="29.0787" stroke="white" stroke-opacity="0.06" stroke-width="0.581575"/>
<rect x="-5.92117" y="97.3937" width="29.0787" height="29.0787" stroke="white" stroke-opacity="0.06" stroke-width="0.581575"/>
<rect x="23.1574" y="97.3937" width="29.0787" height="29.0787" stroke="white" stroke-opacity="0.06" stroke-width="0.581575"/>
<rect x="52.2363" y="97.3937" width="29.0787" height="29.0787" stroke="white" stroke-opacity="0.06" stroke-width="0.581575"/>
<rect x="81.3151" y="97.3937" width="29.0787" height="29.0787" stroke="white" stroke-opacity="0.06" stroke-width="0.581575"/>
<rect x="110.394" y="97.3937" width="29.0787" height="29.0787" stroke="white" stroke-opacity="0.06" stroke-width="0.581575"/>
<rect x="139.472" y="97.3937" width="29.0787" height="29.0787" stroke="white" stroke-opacity="0.06" stroke-width="0.581575"/>
<rect x="168.551" y="97.3937" width="29.0787" height="29.0787" stroke="white" stroke-opacity="0.06" stroke-width="0.581575"/>
<rect x="197.63" y="97.3937" width="29.0787" height="29.0787" stroke="white" stroke-opacity="0.06" stroke-width="0.581575"/>
<rect x="226.709" y="97.3937" width="29.0787" height="29.0787" stroke="white" stroke-opacity="0.06" stroke-width="0.581575"/>
<rect x="255.787" y="97.3937" width="29.0787" height="29.0787" stroke="white" stroke-opacity="0.06" stroke-width="0.581575"/>
<rect x="284.866" y="97.3937" width="29.0787" height="29.0787" stroke="white" stroke-opacity="0.06" stroke-width="0.581575"/>
<rect x="313.945" y="97.3937" width="29.0787" height="29.0787" stroke="white" stroke-opacity="0.06" stroke-width="0.581575"/>
<rect x="343.024" y="97.3937" width="29.0787" height="29.0787" stroke="white" stroke-opacity="0.06" stroke-width="0.581575"/>
<rect x="372.102" y="97.3937" width="29.0787" height="29.0787" stroke="white" stroke-opacity="0.06" stroke-width="0.581575"/>
<rect x="401.181" y="97.3937" width="29.0787" height="29.0787" stroke="white" stroke-opacity="0.06" stroke-width="0.581575"/>
<rect x="430.26" y="97.3937" width="29.0787" height="29.0787" stroke="white" stroke-opacity="0.06" stroke-width="0.581575"/>
<rect x="459.339" y="97.3937" width="29.0787" height="29.0787" stroke="white" stroke-opacity="0.06" stroke-width="0.581575"/>
<rect x="488.417" y="97.3937" width="29.0787" height="29.0787" fill="white" fill-opacity="0.05" stroke="white" stroke-opacity="0.06" stroke-width="0.581575"/>
<rect x="517.496" y="97.3937" width="29.0787" height="29.0787" stroke="white" stroke-opacity="0.06" stroke-width="0.581575"/>
<rect x="-5.92117" y="126.473" width="29.0787" height="29.0787" stroke="white" stroke-opacity="0.06" stroke-width="0.581575"/>
<rect x="23.1574" y="126.473" width="29.0787" height="29.0787" stroke="white" stroke-opacity="0.06" stroke-width="0.581575"/>
<rect x="52.2363" y="126.473" width="29.0787" height="29.0787" stroke="white" stroke-opacity="0.06" stroke-width="0.581575"/>
<rect x="81.3151" y="126.473" width="29.0787" height="29.0787" stroke="white" stroke-opacity="0.06" stroke-width="0.581575"/>
<rect x="110.394" y="126.473" width="29.0787" height="29.0787" stroke="white" stroke-opacity="0.06" stroke-width="0.581575"/>
<rect x="139.472" y="126.473" width="29.0787" height="29.0787" stroke="white" stroke-opacity="0.06" stroke-width="0.581575"/>
<rect x="168.551" y="126.473" width="29.0787" height="29.0787" stroke="white" stroke-opacity="0.06" stroke-width="0.581575"/>
<rect x="197.63" y="126.473" width="29.0787" height="29.0787" stroke="white" stroke-opacity="0.06" stroke-width="0.581575"/>
<rect x="226.709" y="126.473" width="29.0787" height="29.0787" stroke="white" stroke-opacity="0.06" stroke-width="0.581575"/>
<rect x="255.787" y="126.473" width="29.0787" height="29.0787" stroke="white" stroke-opacity="0.06" stroke-width="0.581575"/>
<rect x="284.866" y="126.473" width="29.0787" height="29.0787" stroke="white" stroke-opacity="0.06" stroke-width="0.581575"/>
<rect x="313.945" y="126.473" width="29.0787" height="29.0787" stroke="white" stroke-opacity="0.06" stroke-width="0.581575"/>
<rect x="343.024" y="126.473" width="29.0787" height="29.0787" stroke="white" stroke-opacity="0.06" stroke-width="0.581575"/>
<rect x="372.102" y="126.473" width="29.0787" height="29.0787" stroke="white" stroke-opacity="0.06" stroke-width="0.581575"/>
<rect x="401.181" y="126.473" width="29.0787" height="29.0787" stroke="white" stroke-opacity="0.06" stroke-width="0.581575"/>
<rect x="430.26" y="126.473" width="29.0787" height="29.0787" stroke="white" stroke-opacity="0.06" stroke-width="0.581575"/>
<rect x="459.339" y="126.473" width="29.0787" height="29.0787" stroke="white" stroke-opacity="0.06" stroke-width="0.581575"/>
<rect x="488.417" y="126.473" width="29.0787" height="29.0787" stroke="white" stroke-opacity="0.06" stroke-width="0.581575"/>
<rect x="517.496" y="126.473" width="29.0787" height="29.0787" stroke="white" stroke-opacity="0.06" stroke-width="0.581575"/>
<rect x="-5.92117" y="155.551" width="29.0787" height="29.0787" stroke="white" stroke-opacity="0.06" stroke-width="0.581575"/>
<rect x="23.1574" y="155.551" width="29.0787" height="29.0787" stroke="white" stroke-opacity="0.06" stroke-width="0.581575"/>
<rect x="52.2363" y="155.551" width="29.0787" height="29.0787" stroke="white" stroke-opacity="0.06" stroke-width="0.581575"/>
<rect x="81.3151" y="155.551" width="29.0787" height="29.0787" stroke="white" stroke-opacity="0.06" stroke-width="0.581575"/>
<rect x="110.394" y="155.551" width="29.0787" height="29.0787" stroke="white" stroke-opacity="0.06" stroke-width="0.581575"/>
<rect x="139.472" y="155.551" width="29.0787" height="29.0787" stroke="white" stroke-opacity="0.06" stroke-width="0.581575"/>
<rect x="168.551" y="155.551" width="29.0787" height="29.0787" stroke="white" stroke-opacity="0.06" stroke-width="0.581575"/>
<rect x="197.63" y="155.551" width="29.0787" height="29.0787" fill="white" fill-opacity="0.05" stroke="white" stroke-opacity="0.06" stroke-width="0.581575"/>
<rect x="226.709" y="155.551" width="29.0787" height="29.0787" stroke="white" stroke-opacity="0.06" stroke-width="0.581575"/>
<rect x="255.787" y="155.551" width="29.0787" height="29.0787" stroke="white" stroke-opacity="0.06" stroke-width="0.581575"/>
<rect x="284.866" y="155.551" width="29.0787" height="29.0787" stroke="white" stroke-opacity="0.06" stroke-width="0.581575"/>
<rect x="313.945" y="155.551" width="29.0787" height="29.0787" stroke="white" stroke-opacity="0.06" stroke-width="0.581575"/>
<rect x="343.024" y="155.551" width="29.0787" height="29.0787" stroke="white" stroke-opacity="0.06" stroke-width="0.581575"/>
<rect x="372.102" y="155.551" width="29.0787" height="29.0787" stroke="white" stroke-opacity="0.06" stroke-width="0.581575"/>
<rect x="401.181" y="155.551" width="29.0787" height="29.0787" stroke="white" stroke-opacity="0.06" stroke-width="0.581575"/>
<rect x="430.26" y="155.551" width="29.0787" height="29.0787" stroke="white" stroke-opacity="0.06" stroke-width="0.581575"/>
<rect x="459.339" y="155.551" width="29.0787" height="29.0787" stroke="white" stroke-opacity="0.06" stroke-width="0.581575"/>
<rect x="488.417" y="155.551" width="29.0787" height="29.0787" stroke="white" stroke-opacity="0.06" stroke-width="0.581575"/>
<rect x="517.496" y="155.551" width="29.0787" height="29.0787" stroke="white" stroke-opacity="0.06" stroke-width="0.581575"/>
<rect x="-5.92117" y="184.63" width="29.0787" height="29.0787" stroke="white" stroke-opacity="0.06" stroke-width="0.581575"/>
<rect x="23.1574" y="184.63" width="29.0787" height="29.0787" stroke="white" stroke-opacity="0.06" stroke-width="0.581575"/>
<rect x="52.2363" y="184.63" width="29.0787" height="29.0787" stroke="white" stroke-opacity="0.06" stroke-width="0.581575"/>
<rect x="81.3151" y="184.63" width="29.0787" height="29.0787" fill="white" fill-opacity="0.05" stroke="white" stroke-opacity="0.06" stroke-width="0.581575"/>
<rect x="110.394" y="184.63" width="29.0787" height="29.0787" stroke="white" stroke-opacity="0.06" stroke-width="0.581575"/>
<rect x="139.472" y="184.63" width="29.0787" height="29.0787" stroke="white" stroke-opacity="0.06" stroke-width="0.581575"/>
<rect x="168.551" y="184.63" width="29.0787" height="29.0787" stroke="white" stroke-opacity="0.06" stroke-width="0.581575"/>
<rect x="197.63" y="184.63" width="29.0787" height="29.0787" stroke="white" stroke-opacity="0.06" stroke-width="0.581575"/>
<rect x="226.709" y="184.63" width="29.0787" height="29.0787" stroke="white" stroke-opacity="0.06" stroke-width="0.581575"/>
<rect x="255.787" y="184.63" width="29.0787" height="29.0787" stroke="white" stroke-opacity="0.06" stroke-width="0.581575"/>
<rect x="284.866" y="184.63" width="29.0787" height="29.0787" stroke="white" stroke-opacity="0.06" stroke-width="0.581575"/>
<rect x="313.945" y="184.63" width="29.0787" height="29.0787" stroke="white" stroke-opacity="0.06" stroke-width="0.581575"/>
<rect x="343.024" y="184.63" width="29.0787" height="29.0787" stroke="white" stroke-opacity="0.06" stroke-width="0.581575"/>
<rect x="372.102" y="184.63" width="29.0787" height="29.0787" stroke="white" stroke-opacity="0.06" stroke-width="0.581575"/>
<rect x="401.181" y="184.63" width="29.0787" height="29.0787" stroke="white" stroke-opacity="0.06" stroke-width="0.581575"/>
<rect x="430.26" y="184.63" width="29.0787" height="29.0787" stroke="white" stroke-opacity="0.06" stroke-width="0.581575"/>
<rect x="459.339" y="184.63" width="29.0787" height="29.0787" stroke="white" stroke-opacity="0.06" stroke-width="0.581575"/>
<rect x="488.417" y="184.63" width="29.0787" height="29.0787" stroke="white" stroke-opacity="0.06" stroke-width="0.581575"/>
<rect x="517.496" y="184.63" width="29.0787" height="29.0787" stroke="white" stroke-opacity="0.06" stroke-width="0.581575"/>
<rect x="-5.92117" y="213.709" width="29.0787" height="29.0787" stroke="white" stroke-opacity="0.06" stroke-width="0.581575"/>
<rect x="23.1574" y="213.709" width="29.0787" height="29.0787" stroke="white" stroke-opacity="0.06" stroke-width="0.581575"/>
<rect x="52.2363" y="213.709" width="29.0787" height="29.0787" stroke="white" stroke-opacity="0.06" stroke-width="0.581575"/>
<rect x="81.3151" y="213.709" width="29.0787" height="29.0787" stroke="white" stroke-opacity="0.06" stroke-width="0.581575"/>
<rect x="110.394" y="213.709" width="29.0787" height="29.0787" stroke="white" stroke-opacity="0.06" stroke-width="0.581575"/>
<rect x="139.472" y="213.709" width="29.0787" height="29.0787" stroke="white" stroke-opacity="0.06" stroke-width="0.581575"/>
<rect x="168.551" y="213.709" width="29.0787" height="29.0787" stroke="white" stroke-opacity="0.06" stroke-width="0.581575"/>
<rect x="197.63" y="213.709" width="29.0787" height="29.0787" stroke="white" stroke-opacity="0.06" stroke-width="0.581575"/>
<rect x="226.709" y="213.709" width="29.0787" height="29.0787" stroke="white" stroke-opacity="0.06" stroke-width="0.581575"/>
<rect x="255.787" y="213.709" width="29.0787" height="29.0787" stroke="white" stroke-opacity="0.06" stroke-width="0.581575"/>
<rect x="284.866" y="213.709" width="29.0787" height="29.0787" stroke="white" stroke-opacity="0.06" stroke-width="0.581575"/>
<rect x="313.945" y="213.709" width="29.0787" height="29.0787" stroke="white" stroke-opacity="0.06" stroke-width="0.581575"/>
<rect x="343.024" y="213.709" width="29.0787" height="29.0787" stroke="white" stroke-opacity="0.06" stroke-width="0.581575"/>
<rect x="372.102" y="213.709" width="29.0787" height="29.0787" stroke="white" stroke-opacity="0.06" stroke-width="0.581575"/>
<rect x="401.181" y="213.709" width="29.0787" height="29.0787" stroke="white" stroke-opacity="0.06" stroke-width="0.581575"/>
<rect x="430.26" y="213.709" width="29.0787" height="29.0787" stroke="white" stroke-opacity="0.06" stroke-width="0.581575"/>
<rect x="459.339" y="213.709" width="29.0787" height="29.0787" stroke="white" stroke-opacity="0.06" stroke-width="0.581575"/>
<rect x="488.417" y="213.709" width="29.0787" height="29.0787" stroke="white" stroke-opacity="0.06" stroke-width="0.581575"/>
<rect x="517.496" y="213.709" width="29.0787" height="29.0787" stroke="white" stroke-opacity="0.06" stroke-width="0.581575"/>
<rect x="-5.92117" y="242.787" width="29.0787" height="29.0787" stroke="white" stroke-opacity="0.06" stroke-width="0.581575"/>
<rect x="23.1574" y="242.787" width="29.0787" height="29.0787" stroke="white" stroke-opacity="0.06" stroke-width="0.581575"/>
<rect x="52.2363" y="242.787" width="29.0787" height="29.0787" stroke="white" stroke-opacity="0.06" stroke-width="0.581575"/>
<rect x="81.3151" y="242.787" width="29.0787" height="29.0787" stroke="white" stroke-opacity="0.06" stroke-width="0.581575"/>
<rect x="110.394" y="242.787" width="29.0787" height="29.0787" stroke="white" stroke-opacity="0.06" stroke-width="0.581575"/>
<rect x="139.472" y="242.787" width="29.0787" height="29.0787" stroke="white" stroke-opacity="0.06" stroke-width="0.581575"/>
<rect x="168.551" y="242.787" width="29.0787" height="29.0787" stroke="white" stroke-opacity="0.06" stroke-width="0.581575"/>
<rect x="197.63" y="242.787" width="29.0787" height="29.0787" stroke="white" stroke-opacity="0.06" stroke-width="0.581575"/>
<rect x="226.709" y="242.787" width="29.0787" height="29.0787" stroke="white" stroke-opacity="0.06" stroke-width="0.581575"/>
<rect x="255.787" y="242.787" width="29.0787" height="29.0787" stroke="white" stroke-opacity="0.06" stroke-width="0.581575"/>
<rect x="284.866" y="242.787" width="29.0787" height="29.0787" stroke="white" stroke-opacity="0.06" stroke-width="0.581575"/>
<rect x="313.945" y="242.787" width="29.0787" height="29.0787" stroke="white" stroke-opacity="0.06" stroke-width="0.581575"/>
<rect x="343.024" y="242.787" width="29.0787" height="29.0787" stroke="white" stroke-opacity="0.06" stroke-width="0.581575"/>
<rect x="372.102" y="242.787" width="29.0787" height="29.0787" stroke="white" stroke-opacity="0.06" stroke-width="0.581575"/>
<rect x="401.181" y="242.787" width="29.0787" height="29.0787" stroke="white" stroke-opacity="0.06" stroke-width="0.581575"/>
<rect x="430.26" y="242.787" width="29.0787" height="29.0787" stroke="white" stroke-opacity="0.06" stroke-width="0.581575"/>
<rect x="459.339" y="242.787" width="29.0787" height="29.0787" stroke="white" stroke-opacity="0.06" stroke-width="0.581575"/>
<rect x="488.417" y="242.787" width="29.0787" height="29.0787" stroke="white" stroke-opacity="0.06" stroke-width="0.581575"/>
<rect x="517.496" y="242.787" width="29.0787" height="29.0787" stroke="white" stroke-opacity="0.06" stroke-width="0.581575"/>
<rect x="-5.92117" y="271.866" width="29.0787" height="29.0787" stroke="white" stroke-opacity="0.06" stroke-width="0.581575"/>
<rect x="23.1574" y="271.866" width="29.0787" height="29.0787" stroke="white" stroke-opacity="0.06" stroke-width="0.581575"/>
<rect x="52.2363" y="271.866" width="29.0787" height="29.0787" stroke="white" stroke-opacity="0.06" stroke-width="0.581575"/>
<rect x="81.3151" y="271.866" width="29.0787" height="29.0787" stroke="white" stroke-opacity="0.06" stroke-width="0.581575"/>
<rect x="110.394" y="271.866" width="29.0787" height="29.0787" stroke="white" stroke-opacity="0.06" stroke-width="0.581575"/>
<rect x="139.472" y="271.866" width="29.0787" height="29.0787" stroke="white" stroke-opacity="0.06" stroke-width="0.581575"/>
<rect x="168.551" y="271.866" width="29.0787" height="29.0787" stroke="white" stroke-opacity="0.06" stroke-width="0.581575"/>
<rect x="197.63" y="271.866" width="29.0787" height="29.0787" stroke="white" stroke-opacity="0.06" stroke-width="0.581575"/>
<rect x="226.709" y="271.866" width="29.0787" height="29.0787" stroke="white" stroke-opacity="0.06" stroke-width="0.581575"/>
<rect x="255.787" y="271.866" width="29.0787" height="29.0787" stroke="white" stroke-opacity="0.06" stroke-width="0.581575"/>
<rect x="284.866" y="271.866" width="29.0787" height="29.0787" stroke="white" stroke-opacity="0.06" stroke-width="0.581575"/>
<rect x="313.945" y="271.866" width="29.0787" height="29.0787" stroke="white" stroke-opacity="0.06" stroke-width="0.581575"/>
<rect x="343.024" y="271.866" width="29.0787" height="29.0787" stroke="white" stroke-opacity="0.06" stroke-width="0.581575"/>
<rect x="372.102" y="271.866" width="29.0787" height="29.0787" stroke="white" stroke-opacity="0.06" stroke-width="0.581575"/>
<rect x="401.181" y="271.866" width="29.0787" height="29.0787" stroke="white" stroke-opacity="0.06" stroke-width="0.581575"/>
<rect x="430.26" y="271.866" width="29.0787" height="29.0787" stroke="white" stroke-opacity="0.06" stroke-width="0.581575"/>
<rect x="459.339" y="271.866" width="29.0787" height="29.0787" stroke="white" stroke-opacity="0.06" stroke-width="0.581575"/>
<rect x="488.417" y="271.866" width="29.0787" height="29.0787" stroke="white" stroke-opacity="0.06" stroke-width="0.581575"/>
<rect x="517.496" y="271.866" width="29.0787" height="29.0787" stroke="white" stroke-opacity="0.06" stroke-width="0.581575"/>
<g filter="url(#filter0_f_49_4083)">
<ellipse cx="402.791" cy="24.0466" rx="90.9441" ry="103.149" transform="rotate(90 402.791 24.0466)" fill="#A26DFF"/>
</g>
</g>
<defs>
<filter id="filter0_f_49_4083" x="24.0546" y="-342.486" width="757.474" height="733.064" filterUnits="userSpaceOnUse" color-interpolation-filters="sRGB">
<feFlood flood-opacity="0" result="BackgroundImageFix"/>
<feBlend mode="normal" in="SourceGraphic" in2="BackgroundImageFix" result="shape"/>
<feGaussianBlur stdDeviation="137.794" result="effect1_foregroundBlur_49_4083"/>
</filter>
<clipPath id="clip0_49_4083">
<rect width="610.654" height="390.818" fill="white" transform="translate(-35 -48)"/>
</clipPath>
</defs>
</svg>
