<svg width="138" height="52" viewBox="0 0 138 52" fill="none" xmlns="http://www.w3.org/2000/svg">
<path d="M21.6898 32V31.7655L26.4079 23.8192H22.1036V22.0672H29.6912V22.3017L25.0007 30.2342H29.5533V32H21.6898ZM33.4117 32V22.0672H39.8957V23.8192H35.288V25.9437H39.068V27.6958H35.288V30.248H39.8957V32H33.4117ZM43.6183 32V22.0672H47.8122C47.9088 22.0672 48.0375 22.0718 48.1985 22.0809C48.364 22.0855 48.5112 22.0993 48.64 22.1223C49.2332 22.2143 49.7183 22.4097 50.0954 22.7086C50.4771 23.0076 50.7576 23.3846 50.9369 23.8399C51.1163 24.2905 51.2059 24.7941 51.2059 25.3505C51.2059 26.1828 50.999 26.8956 50.5851 27.4888C50.1713 28.0774 49.5229 28.4407 48.64 28.5787L47.8122 28.6339H45.4946V32H43.6183ZM49.2194 32L47.2604 27.9579L49.1918 27.5854L51.3439 32H49.2194ZM45.4946 26.8818H47.7294C47.826 26.8818 47.9318 26.8772 48.0467 26.868C48.1617 26.8588 48.2675 26.8404 48.364 26.8128C48.617 26.7439 48.8124 26.6289 48.9504 26.468C49.0883 26.3024 49.1826 26.1208 49.2332 25.923C49.2883 25.7207 49.3159 25.5299 49.3159 25.3505C49.3159 25.1712 49.2883 24.9826 49.2332 24.7849C49.1826 24.5826 49.0883 24.4009 48.9504 24.24C48.8124 24.0744 48.617 23.9572 48.364 23.8882C48.2675 23.8606 48.1617 23.8422 48.0467 23.833C47.9318 23.8238 47.826 23.8192 47.7294 23.8192H45.4946V26.8818ZM59.1925 32.2069C58.1992 32.2069 57.3416 31.9908 56.6196 31.5585C55.9023 31.1263 55.3481 30.5216 54.9573 29.7444C54.571 28.9673 54.3779 28.0636 54.3779 27.0336C54.3779 26.0035 54.571 25.0999 54.9573 24.3227C55.3481 23.5456 55.9023 22.9409 56.6196 22.5086C57.3416 22.0764 58.1992 21.8602 59.1925 21.8602C60.1858 21.8602 61.0411 22.0764 61.7585 22.5086C62.4805 22.9409 63.0346 23.5456 63.4209 24.3227C63.8118 25.0999 64.0072 26.0035 64.0072 27.0336C64.0072 28.0636 63.8118 28.9673 63.4209 29.7444C63.0346 30.5216 62.4805 31.1263 61.7585 31.5585C61.0411 31.9908 60.1858 32.2069 59.1925 32.2069ZM59.1925 30.4411C59.8225 30.4503 60.3468 30.3146 60.7652 30.0341C61.1837 29.7536 61.4964 29.3558 61.7033 28.8408C61.9149 28.3258 62.0206 27.7234 62.0206 27.0336C62.0206 26.3438 61.9149 25.746 61.7033 25.2401C61.4964 24.7343 61.1837 24.3411 60.7652 24.0606C60.3468 23.7801 59.8225 23.6353 59.1925 23.6261C58.5625 23.6169 58.0383 23.7525 57.6198 24.033C57.2014 24.3135 56.8864 24.7113 56.6748 25.2264C56.4679 25.7414 56.3644 26.3438 56.3644 27.0336C56.3644 27.7234 56.4679 28.3212 56.6748 28.827C56.8864 29.3328 57.2014 29.726 57.6198 30.0065C58.0383 30.287 58.5625 30.4319 59.1925 30.4411ZM65.9387 32L69.2772 26.9784L66.0353 22.0672H68.3391L70.4499 25.3781L72.533 22.0672H74.8507L71.6087 26.9784L74.9334 32H72.6296L70.4499 28.5787L68.2564 32H65.9387ZM78.1047 32V22.0672H82.0778C82.786 22.0672 83.3585 22.2097 83.7954 22.4948C84.2323 22.7753 84.5519 23.1294 84.7542 23.5571C84.9565 23.9847 85.0577 24.417 85.0577 24.8539C85.0577 25.4103 84.9312 25.8724 84.6783 26.2403C84.43 26.6082 84.0874 26.8542 83.6505 26.9784V26.6335C84.2713 26.7623 84.7358 27.0497 85.0439 27.4957C85.3566 27.9418 85.513 28.4407 85.513 28.9926C85.513 29.5858 85.4026 30.1077 85.1819 30.5584C84.9657 31.009 84.6346 31.3631 84.1886 31.6206C83.7425 31.8735 83.1815 32 82.5055 32H78.1047ZM80.0085 30.2342H82.3124C82.5653 30.2342 82.7906 30.1813 82.9884 30.0755C83.1861 29.9651 83.3401 29.8134 83.4505 29.6203C83.5655 29.4225 83.623 29.1903 83.623 28.9236C83.623 28.6891 83.5747 28.4798 83.4781 28.2959C83.3815 28.1119 83.2344 27.9671 83.0366 27.8613C82.8435 27.7509 82.6021 27.6958 82.3124 27.6958H80.0085V30.2342ZM80.0085 25.9437H82.0503C82.2618 25.9437 82.4503 25.9069 82.6159 25.8334C82.7814 25.7598 82.9125 25.6471 83.009 25.4954C83.1056 25.339 83.1539 25.139 83.1539 24.8953C83.1539 24.5918 83.0596 24.3365 82.8711 24.1296C82.6826 23.9227 82.4089 23.8192 82.0503 23.8192H80.0085V25.9437ZM88.958 32V22.0672H93.1518C93.2484 22.0672 93.3772 22.0718 93.5381 22.0809C93.7037 22.0855 93.8508 22.0993 93.9796 22.1223C94.5728 22.2143 95.0579 22.4097 95.435 22.7086C95.8167 23.0076 96.0972 23.3846 96.2766 23.8399C96.4559 24.2905 96.5456 24.7941 96.5456 25.3505C96.5456 26.1828 96.3386 26.8956 95.9248 27.4888C95.5109 28.0774 94.8625 28.4407 93.9796 28.5787L93.1518 28.6339H90.8342V32H88.958ZM94.559 32L92.6 27.9579L94.5314 27.5854L96.6835 32H94.559ZM90.8342 26.8818H93.0691C93.1656 26.8818 93.2714 26.8772 93.3864 26.868C93.5013 26.8588 93.6071 26.8404 93.7037 26.8128C93.9566 26.7439 94.152 26.6289 94.29 26.468C94.4279 26.3024 94.5222 26.1208 94.5728 25.923C94.628 25.7207 94.6556 25.5299 94.6556 25.3505C94.6556 25.1712 94.628 24.9826 94.5728 24.7849C94.5222 24.5826 94.4279 24.4009 94.29 24.24C94.152 24.0744 93.9566 23.9572 93.7037 23.8882C93.6071 23.8606 93.5013 23.8422 93.3864 23.833C93.2714 23.8238 93.1656 23.8192 93.0691 23.8192H90.8342V26.8818ZM100.407 32V22.0672H102.283V32H100.407ZM106.421 32V22.0672H109.635C109.713 22.0672 109.874 22.0695 110.118 22.0741C110.362 22.0786 110.596 22.0947 110.822 22.1223C111.622 22.2189 112.3 22.4971 112.856 22.957C113.413 23.4168 113.836 24.0008 114.126 24.709C114.415 25.4172 114.56 26.192 114.56 27.0336C114.56 27.8751 114.415 28.65 114.126 29.3581C113.836 30.0663 113.413 30.6503 112.856 31.1102C112.3 31.57 111.622 31.8482 110.822 31.9448C110.596 31.9724 110.362 31.9885 110.118 31.9931C109.874 31.9977 109.713 32 109.635 32H106.421ZM108.325 30.2342H109.635C109.759 30.2342 109.927 30.2319 110.139 30.2273C110.35 30.2181 110.541 30.1974 110.711 30.1652C111.143 30.0778 111.495 29.8755 111.767 29.5582C112.042 29.2409 112.245 28.8592 112.374 28.4131C112.507 27.9671 112.574 27.5072 112.574 27.0336C112.574 26.5369 112.505 26.0656 112.367 25.6195C112.233 25.1735 112.029 24.7964 111.753 24.4883C111.477 24.1802 111.13 23.9847 110.711 23.902C110.541 23.8652 110.35 23.8445 110.139 23.8399C109.927 23.8353 109.759 23.833 109.635 23.833H108.325V30.2342ZM122.423 32.2069C121.798 32.2069 121.202 32.0966 120.637 31.8758C120.071 31.6505 119.57 31.3194 119.133 30.8826C118.701 30.4457 118.358 29.9054 118.105 29.2616C117.857 28.6178 117.733 27.8751 117.733 27.0336C117.733 25.9345 117.942 25.001 118.36 24.2331C118.783 23.4605 119.349 22.8719 120.057 22.4672C120.77 22.0626 121.559 21.8602 122.423 21.8602C123.702 21.8602 124.706 22.1568 125.437 22.75C126.169 23.3432 126.658 24.1825 126.907 25.2677L124.989 25.5436C124.81 24.9642 124.515 24.5021 124.106 24.1572C123.702 23.8077 123.182 23.6307 122.547 23.6261C121.917 23.6169 121.393 23.7525 120.975 24.033C120.556 24.3135 120.241 24.7113 120.03 25.2264C119.823 25.7414 119.719 26.3438 119.719 27.0336C119.719 27.7234 119.823 28.3212 120.03 28.827C120.241 29.3328 120.556 29.726 120.975 30.0065C121.393 30.287 121.917 30.4319 122.547 30.4411C122.975 30.4503 123.361 30.3767 123.706 30.2204C124.056 30.064 124.35 29.818 124.589 29.4823C124.828 29.1466 124.998 28.7166 125.099 28.1924H123.527V26.7439H127.1C127.109 26.8036 127.116 26.9094 127.121 27.0612C127.125 27.2129 127.127 27.3003 127.127 27.3233C127.127 28.2752 126.934 29.119 126.548 29.8548C126.162 30.5905 125.617 31.1677 124.913 31.5861C124.21 32 123.38 32.2069 122.423 32.2069ZM130.579 32V22.0672H137.063V23.8192H132.455V25.9437H136.235V27.6958H132.455V30.248H137.063V32H130.579Z" fill="#09050E"/>
<path d="M17.5 1C17.5 -0.515219 15.5 0.500004 15.5 1V7.5L18.5 9.5V14L19.5 13.5L20.5 13V8.5L17.5 6C17.6667 5.5 17.5 4 17.5 1Z" fill="#09050E" stroke="#09050E" stroke-width="0.4"/>
<path d="M33.5 1C33.5 -0.515219 35.5 0.500004 35.5 1V7.5L32.5 9.5V14L31.5 13.5L30.5 13V8.5L33.5 6C33.3333 5.5 33.5 4 33.5 1Z" fill="#09050E" stroke="#09050E" stroke-width="0.4"/>
<rect x="24.2" y="5.2" width="1.6" height="7.6" fill="#09050E" stroke="#09050E" stroke-width="0.4"/>
<path d="M28 3C28 4.65685 26.6569 6 25 6C23.3431 6 22 4.65685 22 3C22 1.34315 23.3431 0 25 0C26.6569 0 28 1.34315 28 3ZM23.7221 3C23.7221 3.70577 24.2942 4.2779 25 4.2779C25.7058 4.2779 26.2779 3.70577 26.2779 3C26.2779 2.29423 25.7058 1.7221 25 1.7221C24.2942 1.7221 23.7221 2.29423 23.7221 3Z" fill="#09050E"/>
<path d="M1.00002 34C-0.515204 34 0.500019 36 1.00002 36H7.50001L9.50001 33H14L13.5 32L13 31H8.50001L6.00001 34C5.50001 33.8333 4.00002 34 1.00002 34Z" fill="#09050E" stroke="#09050E" stroke-width="0.4"/>
<path d="M1.00002 18C-0.515204 18 0.500019 16 1.00002 16H7.50001L9.50001 19H14L13.5 20L13 21H8.50001L6.00001 18C5.50001 18.1667 4.00002 18 1.00002 18Z" fill="#09050E" stroke="#09050E" stroke-width="0.4"/>
<rect x="5.2" y="27.3" width="1.6" height="7.6" transform="rotate(-90 5.2 27.3)" fill="#09050E" stroke="#09050E" stroke-width="0.4"/>
<path d="M3 23.5C4.65685 23.5 6 24.8431 6 26.5C6 28.1569 4.65685 29.5 3 29.5C1.34315 29.5 0 28.1569 0 26.5C0 24.8431 1.34315 23.5 3 23.5ZM3 27.7779C3.70577 27.7779 4.2779 27.2058 4.2779 26.5C4.2779 25.7942 3.70577 25.2221 3 25.2221C2.29423 25.2221 1.7221 25.7942 1.7221 26.5C1.7221 27.2058 2.29423 27.7779 3 27.7779Z" fill="#09050E"/>
<path d="M33.5 51C33.5 52.5152 35.5 51.5 35.5 51V44.5L32.5 42.5V38L31.5 38.5L30.5 39V43.5L33.5 46C33.3333 46.5 33.5 48 33.5 51Z" fill="#09050E" stroke="#09050E" stroke-width="0.4"/>
<path d="M17.5 51C17.5 52.5152 15.5 51.5 15.5 51V44.5L18.5 42.5V38L19.5 38.5L20.5 39V43.5L17.5 46C17.6667 46.5 17.5 48 17.5 51Z" fill="#09050E" stroke="#09050E" stroke-width="0.4"/>
<rect x="26.8" y="46.8" width="1.6" height="7.6" transform="rotate(180 26.8 46.8)" fill="#09050E" stroke="#09050E" stroke-width="0.4"/>
<path d="M23 49C23 47.3431 24.3431 46 26 46C27.6569 46 29 47.3431 29 49C29 50.6569 27.6569 52 26 52C24.3431 52 23 50.6569 23 49ZM27.2779 49C27.2779 48.2942 26.7058 47.7221 26 47.7221C25.2942 47.7221 24.7221 48.2942 24.7221 49C24.7221 49.7058 25.2942 50.2779 26 50.2779C26.7058 50.2779 27.2779 49.7058 27.2779 49Z" fill="#09050E"/>
</svg>
