<svg width="221" height="184" viewBox="0 0 221 184" fill="none" xmlns="http://www.w3.org/2000/svg">
<g clip-path="url(#clip0_592_2578)">
<circle cx="110" cy="92" r="92" fill="#EFE6FF"/>
<path fill-rule="evenodd" clip-rule="evenodd" d="M115.407 74.2112C117.646 96.0442 104.813 105.15 101.177 107.269C101.207 107.494 101.222 107.735 101.222 107.975V139.124L107.202 142.415H138.652C138.712 142.415 138.787 142.415 138.848 142.43C146.09 143.422 146.376 134.857 146.376 133.79C146.331 133.249 146.631 132.708 147.157 132.483C151.695 130.529 149.772 124.399 149.591 123.873C149.351 123.257 149.636 122.55 150.237 122.25C156.128 119.395 152.416 114.256 151.935 113.61C151.545 113.189 151.485 112.543 151.8 112.032C162.469 95.6685 129.141 99.7106 127.007 99.981C126.842 100.011 126.661 100.026 126.481 99.981C125.775 99.8458 125.324 99.1696 125.459 98.4634C130.433 73.2645 118.968 73.535 115.377 74.1811L115.407 74.2112Z" fill="#9C69F6"/>
<path fill-rule="evenodd" clip-rule="evenodd" d="M99.0884 139.5V107.975C99.0884 107.224 98.7879 106.548 98.292 106.067C97.7962 105.571 97.12 105.27 96.3837 105.27H79.7047C78.9534 105.27 78.2772 105.571 77.7964 106.067C77.3005 106.563 77 107.239 77 107.975V139.5C77 140.251 77.3005 140.927 77.7964 141.408C78.2922 141.904 78.9684 142.205 79.7047 142.205H96.3837C97.135 142.205 97.8112 141.904 98.292 141.408C98.6978 141.003 98.9682 140.477 99.0584 139.891C99.0584 139.8 99.0584 139.695 99.0884 139.605C99.0884 139.575 99.0884 139.53 99.0884 139.5Z" fill="#9C69F6"/>
<path opacity="0.1" d="M139.118 27.8403C138.256 27.6042 137.396 27.6137 136.413 27.6246C136.167 27.6273 135.922 27.63 135.676 27.6328C136.892 26.5138 138.108 25.3949 138.953 24.0344C139.195 23.6632 138.7 23.3002 138.457 23.5486C136.995 24.6702 135.657 25.9134 134.319 27.1565C134.301 25.5599 134.284 23.9633 134.266 22.3667C134.258 21.6299 133.152 21.6421 133.16 22.379C133.178 23.9756 133.197 25.695 133.215 27.2915C132.097 26.1985 130.98 25.2282 129.864 24.258C129.368 23.895 128.761 24.5159 129.256 24.8788C130.127 25.8518 130.998 26.8248 131.992 27.7964C130.763 27.81 129.535 27.8237 128.308 27.9601C127.816 27.9655 127.824 28.7024 128.316 28.697C129.791 28.8034 131.143 28.7885 132.494 28.7735C131.399 29.7683 130.306 30.8858 129.335 32.0021C128.849 32.4988 129.593 33.1047 130.081 32.7308C131.175 31.736 132.271 30.864 133.243 29.8706C133.258 31.2216 133.275 32.6954 133.535 34.0436C133.538 34.2892 134.029 34.2838 134.15 34.0368C134.382 32.8059 134.367 31.455 134.352 30.104C134.723 30.3456 134.973 30.7113 135.344 30.9528C136.088 31.5587 136.832 32.1646 137.574 32.6477C137.823 32.8906 138.187 32.5181 137.939 32.2752C137.317 31.5451 136.817 30.8137 136.195 30.0836C135.821 29.5964 135.325 29.2334 134.952 28.8691C135.567 28.8623 136.058 28.8568 136.672 28.85C137.655 28.8391 138.392 28.8309 139.372 28.5744C139.494 28.4502 139.488 27.959 139.118 27.8403Z" fill="#030229"/>
<path opacity="0.1" d="M12.0418 89.818C11.1792 89.5819 10.3192 89.5915 9.33639 89.6023C9.09069 89.6051 8.84498 89.6078 8.59928 89.6105C9.81554 88.4916 11.0318 87.3726 11.8768 86.0121C12.1184 85.641 11.6229 85.278 11.3799 85.5263C9.79376 86.5266 8.45737 87.8925 7.11962 89.1356C7.10192 87.539 7.08422 85.9424 7.06652 84.3459C7.05835 83.609 5.95269 83.6212 5.96086 84.3581C5.97856 85.9547 5.99762 87.6741 6.01532 89.2707C4.8974 88.1776 3.78084 87.2073 2.66429 86.2371C2.1688 85.8741 1.56135 86.495 2.05684 86.858C2.92769 87.831 3.79854 88.8039 4.79225 89.7755C3.56373 89.7892 2.33522 89.8028 1.10806 89.9392C0.616657 89.9447 0.624825 90.6815 1.11623 90.6761C2.59181 90.7826 3.94318 90.7676 5.29454 90.7526C4.19977 91.7474 3.10636 92.865 2.1358 93.9812C1.64984 94.4779 2.39376 95.0838 2.88108 94.7099C3.97585 93.7151 5.07198 92.8432 6.04391 91.8498C6.05888 93.2007 6.07522 94.6745 6.3359 96.0227C6.33862 96.2683 6.83002 96.2629 6.95015 96.0159C7.18224 94.785 7.16727 93.4341 7.15229 92.0831C7.52357 92.3247 7.77336 92.6904 8.14463 92.9319C8.88855 93.5378 9.63247 94.1437 10.375 94.6268C10.6234 94.8697 10.9879 94.4972 10.7395 94.2543C10.1171 93.5242 9.61749 92.7928 8.99506 92.0627C8.62106 91.5755 8.12557 91.2125 7.75293 90.8482C8.36719 90.8414 8.8586 90.8359 9.47286 90.8291C10.4557 90.8182 11.1928 90.8101 12.1729 90.5535C12.2944 90.4294 12.2889 89.9381 12.0418 89.818Z" fill="#030229"/>
<path d="M32.7263 49.1782C31.3668 48.4563 30.1301 47.7331 29.1337 46.5158C28.013 45.1771 27.5039 43.586 26.7491 41.9976C26.7491 41.9976 26.7478 41.8748 26.6249 41.8761L26.502 41.8775C26.502 41.8775 26.502 41.8775 26.3806 42.0017C26.3806 42.0017 26.3806 42.0017 26.3819 42.1245C26.0501 45.4445 24.1104 47.7998 21.6765 49.9149C21.555 50.039 21.5577 50.2847 21.6819 50.4061C24.3983 51.6043 26.2778 54.8998 27.1677 57.5922C27.2933 57.8365 27.6618 57.8324 27.782 57.5854C28.2557 55.9834 28.6079 54.5055 29.4515 53.0222C30.2951 51.5389 31.3886 50.4213 32.7304 49.5467C32.8519 49.4225 32.8492 49.1769 32.7263 49.1782Z" fill="#605BFF"/>
<path d="M220.45 86.0204C219.091 85.2985 217.854 84.5752 216.981 83.3566C215.86 82.0179 215.351 80.4268 214.596 78.8384C214.596 78.8384 214.595 78.7156 214.472 78.7169L214.349 78.7183C214.349 78.7183 214.349 78.7183 214.227 78.8425C214.227 78.8425 214.227 78.8425 214.229 78.9653C213.897 82.2854 211.957 84.6406 209.523 86.7557C209.402 86.8799 209.405 87.1255 209.529 87.2469C212.245 88.4451 214.125 91.7407 215.015 94.433C215.14 94.6773 215.509 94.6732 215.629 94.4262C216.103 92.8242 216.455 91.3463 217.298 89.8631C218.142 88.3797 219.235 87.2622 220.577 86.3875C220.577 86.3875 220.575 86.1419 220.45 86.0204Z" fill="#605BFF"/>
<path d="M130.424 55.8199C129.436 55.3395 128.694 54.8564 127.947 54.0049C127.199 53.0306 126.818 51.9293 126.192 50.8308C126.192 50.8308 126.192 50.8308 126.069 50.8322L125.946 50.8335C125.946 50.8335 125.946 50.8335 125.947 50.9564C125.728 53.2925 124.394 54.9041 122.69 56.3969C122.569 56.5211 122.57 56.6439 122.693 56.6426C124.668 57.4805 125.923 59.8003 126.557 61.6357C126.56 61.8813 126.928 61.8773 126.926 61.6316C127.159 60.5236 127.516 59.4142 128.119 58.4249C128.722 57.4355 129.451 56.6905 130.427 56.0655C130.55 56.0642 130.547 55.8185 130.424 55.8199Z" fill="#605BFF"/>
<path d="M99.0916 77.723C97.3622 76.8823 96.0013 76.0376 94.8793 74.5761C93.5089 72.8717 92.8742 71.0363 91.9925 69.0808C91.9925 69.0808 91.9911 68.958 91.8682 68.9594L91.7454 68.9607C91.7454 68.9607 91.6225 68.9621 91.6239 69.0849L91.6253 69.2077C91.1774 73.1432 88.8759 76.1166 85.9547 78.6056C85.8332 78.7297 85.8373 79.0982 86.083 79.0955C89.4163 80.5325 91.6712 84.438 92.6908 87.7431C92.8177 88.1102 93.3091 88.1047 93.4279 87.7349C93.8989 85.8872 94.4927 84.0382 95.4565 82.3079C96.4202 80.5776 97.7566 79.2117 99.4656 78.2101C99.2199 78.2129 99.3387 77.8431 99.0916 77.723Z" fill="#605BFF"/>
<path d="M69.6316 46.7903C67.8845 44.3531 66.1387 42.0387 63.9056 40.0982C62.6662 39.1293 61.4268 38.1604 60.0672 37.4385C59.326 37.0782 58.5862 36.8408 57.845 36.4805C57.4751 36.3618 57.1052 36.2431 56.7339 36.0015C56.364 35.8828 56.1156 35.6399 55.7484 35.7668C55.5027 35.7695 55.3812 35.8937 55.5068 36.138C55.6364 36.7507 56.3776 37.1109 56.8731 37.4739C57.4928 37.9584 58.1111 38.32 58.7308 38.8044C59.9689 39.6505 61.2083 40.6194 62.3248 41.5897C64.4351 43.5315 66.1782 45.6003 67.8011 47.9161C68.5505 49.0132 70.3824 48.0103 69.6316 46.7903Z" fill="#FF8F6B"/>
<path d="M68.7557 96.0678C67.747 93.7453 65.3992 92.543 63.0541 91.5864C60.7091 90.6297 57.9968 89.8 55.5438 90.1957C53.2124 90.4672 50.6488 91.9696 49.8134 94.1897C49.2168 95.7931 48.6284 98.1334 50.1163 99.3452C50.8616 100.074 52.2143 100.182 52.9432 99.4367C54.1595 98.3177 53.0348 96.6106 52.0424 95.7618C47.9475 92.1223 41.0746 92.8127 36.5522 94.9509C33.7403 96.2103 31.3064 98.3254 29.8635 101.166C28.6595 103.391 27.3517 107.336 28.9746 109.652C29.2244 110.017 29.7158 110.012 29.9574 109.641C31.2884 107.783 31.2584 105.082 32.2194 103.106C33.1791 101.007 34.7571 99.2698 36.5876 98.144C40.3688 95.6455 46.8663 94.3452 50.8275 97.0036C51.323 97.3666 52.6839 98.2113 51.955 98.9563C51.3475 99.5772 50.3579 98.974 49.9839 98.4869C48.4797 95.8013 52.0097 92.8143 54.2143 92.1757C56.4188 91.5371 59.0055 92.1226 61.1035 92.9591C63.4458 93.6701 66.1635 94.9911 67.5367 96.9412C68.1537 97.18 69.0082 96.6792 68.7557 96.0678Z" fill="#EF37FF"/>
<path d="M176.606 76.5574C176.729 76.5561 176.728 76.4333 176.605 76.4346C176.482 76.436 176.484 76.5588 176.606 76.5574Z" fill="#3F3937"/>
<path d="M177.69 74.4574C179.735 70.5042 183.988 66.2809 188.796 67.7015C190.521 68.1737 192.75 69.7458 192.529 71.9591C192.423 73.4343 190.692 72.4708 190.071 71.8636C188.579 70.2833 189.285 67.4504 189.756 65.6028C190.465 63.1383 192.037 60.7872 194.109 59.2902C195.814 57.9202 198.141 57.2803 200.227 57.0115C202.558 56.74 204.655 57.4537 206.872 57.9205C207.733 58.0338 208.336 57.0444 207.715 56.4372C206.099 54.7355 203.271 54.5212 201.062 54.7913C198.731 55.0628 196.281 55.7041 194.33 57.0769C190.427 59.6995 187.54 65.2588 187.96 69.9217C188.229 72.0068 190.976 75.9069 193.285 73.6704C194.38 72.6756 193.991 70.8375 193.486 69.6148C192.606 67.7821 190.626 66.5758 188.778 66.1049C183.233 64.6924 178.985 69.407 176.949 74.0971C176.83 74.4669 177.448 74.8285 177.69 74.4574Z" fill="#EF37FF"/>
<path d="M71.4063 69.3844C69.6591 66.9472 67.4274 65.1295 64.8339 63.93C63.4757 63.3309 62.1189 62.8546 60.7648 62.624C59.5336 62.392 57.6895 62.2896 56.5906 62.9159C56.3463 63.0414 56.3503 63.4099 56.5988 63.6528C57.5884 64.256 59.064 64.3624 60.1723 64.5958C61.5278 64.9493 62.6375 65.3054 63.8729 65.9059C66.2193 66.9854 68.4483 68.5574 70.0672 70.5047C70.6896 71.2348 72.0301 70.2373 71.4063 69.3844Z" fill="#FF8F6B"/>
<path d="M43.3667 77.9245C44.4694 77.6667 45.6963 77.5303 46.8018 77.518C47.4159 77.5112 48.03 77.5044 48.6442 77.4976C49.0126 77.4935 49.3811 77.4894 49.6254 77.3639C49.8697 77.2384 50.1154 77.2357 50.3597 77.1102C50.6039 76.9846 50.5999 76.6163 50.3528 76.4962C50.1058 76.3761 49.8588 76.2561 49.7346 76.1347C49.4876 76.0146 48.9963 76.02 48.7493 75.9C48.1352 75.9068 47.521 75.9136 46.7854 76.0445C45.5585 76.1809 44.333 76.4401 43.1088 76.8221C42.3732 76.9531 42.6311 78.0555 43.3667 77.9245Z" fill="#FF8F6B"/>
<path d="M174.245 107.168C177.662 105.042 181.328 103.282 185.247 102.133C187.085 101.621 189.045 101.108 191.008 100.841C192.112 100.706 193.094 100.572 194.198 100.437C195.058 100.427 195.918 100.418 196.651 100.041C196.895 99.9156 196.891 99.5472 196.644 99.4271C195.78 99.0682 194.921 99.2006 193.939 99.2114C192.833 99.2237 191.851 99.3574 190.746 99.3697C188.659 99.5156 186.574 99.9072 184.491 100.422C180.325 101.45 176.66 103.334 173.25 106.074C172.764 106.57 173.512 107.545 174.245 107.168Z" fill="#FF8F6B"/>
<path d="M167.424 101.471C170.339 98.3676 174.124 96.2375 177.786 94.1088C179.618 93.1059 181.572 91.9788 183.528 91.0973C184.628 90.5938 185.605 90.0916 186.583 89.5895C187.56 89.0873 188.663 88.8295 189.639 88.2045C189.883 88.079 189.879 87.7105 189.509 87.5918C188.524 87.3571 187.422 87.7378 186.441 87.8715C185.214 88.0079 184.112 88.3886 183.012 88.8921C180.811 89.8991 178.612 91.029 176.538 92.2803C172.508 94.5358 168.971 96.9088 166.186 100.625C165.702 101.244 166.816 101.969 167.424 101.471Z" fill="#FF8F6B"/>
<path d="M147.242 43.3499C147.115 42.9829 147.111 42.6146 146.982 42.1248C146.98 41.8792 146.855 41.7578 146.854 41.635C146.853 41.5122 146.851 41.3894 146.727 41.268C146.726 41.1452 146.603 41.1466 146.602 41.0238C146.477 40.9023 146.353 40.7809 146.23 40.7823C146.107 40.7836 145.986 40.9078 145.865 41.0319C145.866 41.1547 145.743 41.1561 145.744 41.2789C145.746 41.4017 145.747 41.5245 145.749 41.6472C145.751 41.8928 145.754 42.1384 145.88 42.3826C145.884 42.751 146.011 43.118 146.137 43.485L146.136 43.3622L146.137 43.485C146.139 43.6078 146.264 43.852 146.389 43.9734C146.513 44.0949 146.76 44.2149 146.881 44.0908C147.004 44.0894 147.248 43.9639 147.247 43.8411C147.247 43.8411 147.244 43.5955 147.242 43.3499Z" fill="#030229"/>
<path d="M152.352 60.9814C152.44 57.7868 153.391 54.9512 154.464 51.9914C155.062 50.5109 155.661 49.1531 156.384 47.794C157.106 46.4348 157.831 45.3214 158.183 43.8435C158.18 43.5979 157.93 43.2322 157.687 43.4805C157.079 43.9786 156.714 44.3511 156.229 44.9706C155.868 45.5888 155.507 46.3297 155.146 46.9479C154.425 48.4298 153.704 49.9118 153.107 51.5152C152.034 54.4749 151.457 57.7977 151.37 60.9923C151.499 61.605 152.359 61.5954 152.352 60.9814Z" fill="#FF8F6B"/>
<path d="M162.687 40.2306C162.807 39.9837 162.929 39.8595 163.049 39.6126C163.049 39.6126 163.05 39.7354 162.927 39.7367C162.927 39.7367 162.926 39.6139 163.049 39.6126L163.17 39.4884C163.292 39.3643 163.292 39.3643 163.413 39.2401C163.655 38.869 164.021 38.6194 164.262 38.2483C164.504 37.8772 164.87 37.6275 165.111 37.2564C165.231 37.0095 165.475 36.884 165.596 36.6371C165.594 36.5143 165.717 36.5129 165.716 36.3901C165.837 36.266 165.836 36.1432 165.834 36.0204C165.955 35.7734 165.705 35.4078 165.336 35.4119C165.214 35.4132 165.091 35.4146 164.845 35.4173C164.722 35.4187 164.724 35.5415 164.601 35.5428C164.601 35.5428 164.601 35.5428 164.478 35.5442C164.601 35.5428 164.601 35.5428 164.478 35.5442C164.232 35.5469 163.989 35.7952 163.745 35.9207C163.256 36.1718 162.892 36.5442 162.528 36.9167C162.163 37.2891 161.799 37.6616 161.559 38.1554C161.317 38.5265 160.954 39.0218 160.835 39.3915C160.594 39.7626 160.723 40.3752 161.217 40.6153C161.956 40.7299 162.446 40.6017 162.687 40.2306Z" fill="#FF8F6B"/>
<path d="M158.644 63.2454C159.002 62.2588 159.484 61.3937 159.841 60.4071C160.199 59.4205 160.558 58.5567 161.039 57.5687C161.52 56.7036 161.878 55.717 162.36 54.8518C162.842 53.9867 163.569 53.1188 163.681 52.1349C163.677 51.7665 163.307 51.6478 163.062 51.6505C162.082 51.907 161.603 53.0178 160.996 53.7615C160.269 54.6294 159.788 55.6173 159.308 56.6053C158.827 57.5932 158.47 58.5798 158.113 59.6892C157.996 60.1819 157.756 60.6758 157.762 61.2899C157.645 61.7825 157.652 62.3966 157.657 62.8878C157.541 63.5033 158.404 63.7394 158.644 63.2454Z" fill="#FF8F6B"/>
<path d="M165.375 49.7824C165.613 49.1656 165.977 48.6702 166.34 48.1749C166.823 47.4326 167.059 46.5702 167.544 45.9506C168.028 45.3311 168.64 45.0787 169.249 44.5806C169.857 44.0826 170.466 43.5845 171.074 42.9636C173.383 40.7271 176.064 38.7321 178.872 37.1042C179.605 36.7276 180.338 36.351 181.071 35.9744C181.56 35.7233 182.292 35.2239 181.916 34.6139C181.288 33.3926 178.849 35.0164 178.116 35.393C175.308 37.0209 173 39.3802 170.443 41.4967C169.711 41.9961 169.104 42.617 168.497 43.2378C167.889 43.8587 167.407 44.7239 166.8 45.3447C166.192 45.9656 165.459 46.3422 164.852 46.9631C164.366 47.4598 164.006 48.2008 163.768 48.9404C163.287 49.9283 164.773 50.8945 165.375 49.7824Z" fill="#FF8F6B"/>
<path opacity="0.5" d="M107.216 56.9356C107.697 55.9478 107.806 54.7186 107.671 53.6149C107.657 52.387 107.521 51.1604 107.263 50.0581C107.26 49.8125 106.769 49.8179 106.771 50.0635C106.661 51.17 106.673 52.2751 106.687 53.503C106.698 54.4853 106.71 55.5904 106.351 56.454C106.112 57.0706 106.977 57.5523 107.216 56.9356Z" fill="#EF37FF"/>
<g opacity="0.5">
<path d="M107.285 40.9672C107.272 39.8621 107.383 38.7556 107.249 37.7747C107.114 36.6709 106.735 35.6927 106.11 34.7172C105.984 34.473 105.494 34.6012 105.621 34.9682C106.134 36.9274 106.157 39.0148 106.18 41.1022C106.064 41.7175 107.293 41.7039 107.285 40.9672Z" fill="#EF37FF"/>
</g>
<path opacity="0.5" d="M101.762 30.4654C101.506 29.4858 101.126 28.5076 100.625 27.6535C100.376 27.2879 100.247 26.7981 99.9976 26.4324C99.7479 26.0668 99.4941 25.3328 99.0028 25.3382C98.7571 25.341 98.5115 25.3437 98.3914 25.5906C98.1511 26.0845 98.5251 26.5716 98.7762 27.06C99.0259 27.4257 99.277 27.9141 99.4039 28.2811C99.9047 29.1352 100.283 29.9906 100.538 30.8474C100.792 31.5814 102.016 31.1994 101.762 30.4654Z" fill="#EF37FF"/>
<path opacity="0.5" d="M107.396 28.6829C107.631 27.6978 107.741 26.5914 107.852 25.4849C107.846 24.9938 107.839 24.3798 107.834 23.8887C107.829 23.3975 107.822 22.7836 107.571 22.2951C107.444 21.9281 106.952 21.9336 106.834 22.3033C106.594 22.7972 106.6 23.4111 106.606 23.9023C106.611 24.3934 106.617 24.8846 106.622 25.3757C106.633 26.3581 106.521 27.3417 106.409 28.3254C106.412 28.571 106.539 28.938 106.784 28.9353C107.033 29.1781 107.4 29.0512 107.396 28.6829Z" fill="#EF37FF"/>
<path opacity="0.5" d="M112.102 32.1929C112.334 30.9623 112.813 29.8517 113.416 28.8626C114.019 27.8735 114.87 27.0045 115.596 26.014C115.716 25.767 115.589 25.4 115.345 25.5255C113.998 25.9089 113.027 27.0249 112.425 28.1368C111.701 29.2501 111.347 30.6048 111.115 31.8354C110.878 32.5749 111.987 32.931 112.102 32.1929Z" fill="#EF37FF"/>
<path d="M193.357 80.4242C193.478 80.3 193.477 80.1772 193.598 80.0531C193.718 79.8062 193.838 79.5592 193.836 79.3136C193.833 79.0681 193.832 78.9453 193.952 78.6983L193.95 78.5755C193.949 78.4527 193.948 78.33 193.946 78.2072C193.943 77.9616 193.941 77.716 193.815 77.4718C193.812 77.2262 193.688 77.1048 193.564 76.9834C193.313 76.4949 192.818 76.132 192.202 76.016C192.449 76.1361 192.696 76.2562 192.945 76.499C192.696 76.2562 192.449 76.1361 192.203 76.1388C191.956 76.0188 191.711 76.0215 191.589 76.1456C191.344 76.1484 191.222 76.2725 190.978 76.398C190.734 76.5235 190.491 76.7718 190.371 77.0188C190.736 76.7691 190.979 76.5208 191.345 76.2711C191.222 76.2725 191.101 76.3967 190.978 76.398C190.734 76.5235 190.489 76.649 190.368 76.7732C190.246 76.8973 190.125 77.0215 190.003 77.1456C190.005 77.2684 189.882 77.2698 189.883 77.3926C189.885 77.5154 189.763 77.6395 189.765 77.7623C189.886 77.6382 189.883 77.3926 190.005 77.2684C190.006 77.3912 189.883 77.3926 189.885 77.5154C189.886 77.6382 189.763 77.6395 189.765 77.7623C189.643 77.8865 189.646 78.132 189.524 78.2562C189.404 78.5031 189.284 78.7501 189.288 79.1184C189.168 79.3654 189.295 79.7324 189.298 79.978C189.423 80.2222 189.549 80.4664 189.674 80.7106C189.8 80.9548 190.048 81.1977 190.295 81.3177C190.42 81.4392 190.665 81.4364 190.789 81.5579C191.159 81.6766 191.651 81.6711 192.018 81.5443C192.139 81.4201 192.385 81.4174 192.506 81.2932C192.995 81.0422 193.236 80.6711 193.357 80.4242Z" fill="#FF8F6B"/>
<path d="M188.461 37.8574C188.459 37.7346 188.336 37.7359 188.335 37.6132C188.211 37.4917 188.087 37.3703 188.085 37.2475C188.085 37.2475 187.961 37.1261 187.838 37.1274C187.591 37.0074 187.59 36.8846 187.22 36.7659C187.097 36.7672 186.85 36.6472 186.727 36.6485C186.605 36.6499 186.359 36.6526 186.359 36.6526L185.992 36.7795C185.747 36.905 185.626 37.0292 185.506 37.2761C185.384 37.4003 185.384 37.4003 185.386 37.523C185.387 37.6458 185.264 37.6472 185.266 37.77C185.146 38.0169 185.027 38.3866 185.031 38.755C185.035 39.1234 185.161 39.3676 185.287 39.7346C185.663 40.3445 186.281 40.706 186.895 40.6992C187.509 40.6924 188.242 40.3159 188.481 39.6992C188.601 39.4523 188.72 39.0825 188.716 38.7142C188.713 38.4686 188.587 38.2244 188.461 37.8574Z" fill="#FF8F6B"/>
<path d="M98.0851 53.599C97.0655 50.294 97.5174 46.7269 98.0949 43.4041C98.0922 43.1585 97.8452 43.0384 97.725 43.2854C96.5333 46.615 96.2069 50.4263 97.2279 53.8542C97.2347 54.4683 98.2148 54.2117 98.0851 53.599Z" fill="#030229"/>
</g>
<defs>
<clipPath id="clip0_592_2578">
<rect width="220.258" height="184" fill="white"/>
</clipPath>
</defs>
</svg>
